<svg width="111" height="50" viewBox="0 0 111 50" fill="none" xmlns="http://www.w3.org/2000/svg">
<g clip-path="url(#clip0_120_86)">
<mask id="mask0_120_86" style="mask-type:luminance" maskUnits="userSpaceOnUse" x="0" y="0" width="111" height="50">
<path d="M111 0H0V50H111V0Z" fill="white"/>
</mask>
<g mask="url(#mask0_120_86)">
<path d="M0.562737 0V0.061346H0.526062L0.562737 0Z" fill="#1D4ED8"/>
<path d="M26.1562 48.2643C28.447 46.3971 28.2421 43.9956 28.2421 43.9956L20.9272 45.037C20.9272 45.037 18.9368 45.0789 18.432 45.6759C18.316 45.8284 18.2006 46.0574 18.0706 46.3282C17.709 47.1474 17.3475 48.2441 16.9391 48.022C16.4278 47.7654 16.9596 46.2519 17.0206 46.0851C16.9119 46.231 15.862 47.612 15.6643 47.0225C15.5417 46.6754 15.8208 46.1135 16.0868 45.655C15.9097 45.8284 15.6643 45.9811 15.344 46.0365C14.4917 46.1892 14.7782 45.4949 14.7782 45.4949L16.5372 43.7592C16.4828 43.7592 16.3256 43.6619 15.9369 42.8569C15.7459 42.4545 15.7805 42.26 15.8826 42.1837C16.0463 42.031 16.4071 42.1694 16.4071 42.1694C17.6884 43.3215 18.9772 43.5303 18.9772 43.5303C22.3996 44.113 27.6286 42.1417 28.1399 41.6839C28.6513 41.2395 28.4331 40.6844 28.4331 40.6844L26.6742 41.434C22.2974 43.0724 17.2388 39.5114 17.2388 39.5114C17.2388 39.5114 16.3527 40.7398 15.1933 39.8585C14.0413 38.9772 15.834 37.8939 15.834 37.8939C13.7614 37.068 12.8893 34.2423 12.8893 34.2423C12.7526 34.2423 12.6027 34.2565 12.4602 34.2565C8.84019 34.2565 7.91959 32.6181 7.91959 32.6181C9.11278 32.4102 10.9195 31.5423 10.9195 31.5423C10.0606 31.5423 8.49267 30.5078 8.49267 30.5078C9.03784 30.5078 9.84898 30.2788 10.6197 30.0012L9.50145 27.391C9.58301 27.4396 10.1693 27.6962 11.5535 27.3491C12.6101 27.0926 14.1508 26.4469 16.2918 25.0726C21.4664 21.7337 23.8182 23.3303 23.8182 23.3303C28.5088 18.1659 32.0399 26.6204 32.0399 26.6204C32.0399 26.6204 33.3557 25.7945 33.6827 26.8845C33.7032 26.9467 33.7165 27.0028 33.7165 27.0581C33.8458 28.0576 32.4689 28.7377 32.4689 28.7377L32.7959 31.0074C33.6415 37.873 30.6005 39.1635 30.6005 39.1635L31.0501 39.7949C33.818 37.7817 35.161 30.486 35.3108 28.9867C35.4336 27.7508 35.2293 27.6536 34.8884 27.0365C34.8135 26.9182 34.7245 26.7655 34.643 26.5711C34.1382 25.4811 34.9905 25.2454 35.4336 25.9254C35.856 26.613 36.2175 26.675 36.2175 26.675C36.2175 26.675 38.1609 25.2657 38.6171 25.6337C39.0124 25.9598 37.8949 26.8135 37.6356 27.0013C39.0535 26.1401 39.3944 26.5434 39.3944 26.5434C39.667 26.9601 38.7875 27.6125 38.5215 27.7928C38.8082 27.661 39.8581 27.293 39.7419 28.0771C39.6876 28.5005 39.0469 28.5214 38.3511 28.7159C37.5128 28.9591 36.5511 29.4589 36.3807 31.2289C36.0668 34.4496 34.0221 39.9131 34.0221 39.9131C34.4519 43.9395 36.1764 43.6619 36.6878 43.4951C36.7216 43.4809 36.7561 43.4742 36.7766 43.4607C36.7972 43.454 36.8178 43.4398 36.8178 43.4398C36.8178 43.4398 36.8927 43.3844 36.9883 43.3357C40.3761 41.0308 38.706 36.1231 38.706 36.1231C46.2664 33.943 43.1165 26.7454 43.1165 26.7454C43.73 24.6701 43.7572 23.0317 43.4575 21.7405L39.7485 24.0312C39.6869 24.5213 39.271 24.8983 38.7678 24.8916C38.2512 24.8848 37.8192 24.451 37.806 23.9249C37.792 23.3579 38.2336 22.8992 38.7802 22.8992C38.9441 22.8992 39.0939 22.9412 39.2233 23.0101L43.082 20.6153C42.1548 18.5191 40.3004 17.6236 39.3805 17.3041L39.4076 17.3737L32.3109 21.7749C32.2287 22.2357 31.8298 22.5836 31.3492 22.5799C30.8364 22.5761 30.4 22.1564 30.3758 21.635C30.3493 21.0657 30.8026 20.5883 31.3565 20.5883C31.527 20.5883 31.6909 20.637 31.8268 20.7132L32.6379 20.2135L32.5696 16.9861C32.2206 16.8163 31.9885 16.4407 32.02 16.0129C32.0545 15.5505 32.4123 15.169 32.8635 15.1076C33.4623 15.026 33.9737 15.4974 33.9737 16.0913C33.9737 16.3623 33.8715 16.5979 33.7011 16.7789L33.7555 19.5208L38.95 16.3136C39.7816 8.44857 33.0119 8.98348 33.0119 8.98348C32.1736 6.27602 30.4418 4.74911 28.594 3.8955V15.4323C28.8593 15.6276 29.029 15.9514 28.9995 16.3188C28.9598 16.8238 28.5396 17.23 28.0422 17.2376C27.4905 17.2457 27.046 16.7916 27.046 16.2381C27.046 15.9051 27.2097 15.6134 27.4552 15.4331V3.44962C25.7507 2.90124 23.5832 2.83167 22.5266 2.85936V12.2371L22.506 12.2715L19.6216 17.8248C19.6759 17.9497 19.7031 18.0814 19.7031 18.2272C19.7031 18.7809 19.2586 19.235 18.7061 19.2267C18.2101 19.2193 17.7914 18.8153 17.7502 18.3125C17.7046 17.7537 18.1154 17.2861 18.64 17.2419L21.3879 11.9109V2.94314C21.2313 2.92219 19.0015 2.55411 16.2264 3.4773V15.3402C16.4865 15.5319 16.6555 15.8483 16.6334 16.2074C16.6032 16.7101 16.1963 17.1231 15.7018 17.1447C15.1449 17.1687 14.6784 16.7086 14.6784 16.146C14.6784 15.8131 14.8421 15.5146 15.0942 15.3336V3.9359C13.2809 4.7895 11.5903 6.31717 10.7652 8.98273C10.7652 8.98273 3.96824 8.44857 4.82712 16.348L9.93346 19.5275L9.98783 16.7714C9.71452 16.5859 9.53451 16.268 9.54554 15.9013C9.56023 15.3874 9.97534 14.9595 10.4801 14.94C11.0436 14.9176 11.5014 15.3702 11.5014 15.9321C11.5014 16.2583 11.3515 16.5426 11.1193 16.7236L11.0444 20.2151L12.0194 20.8187C12.156 20.7424 12.3125 20.7006 12.4829 20.7006C13.0325 20.7006 13.4756 21.1636 13.4572 21.7345C13.4403 22.2574 13.009 22.6861 12.4947 22.6928C11.9988 22.6988 11.5903 22.336 11.5146 21.8602L4.19306 17.3827C3.21808 17.7574 1.52749 18.6739 0.668588 20.6595L5.08428 23.3864C5.2136 23.3235 5.35687 23.289 5.50675 23.289C6.04677 23.289 6.49054 23.7357 6.48834 24.293C6.48614 24.7928 6.10262 25.2215 5.61476 25.2753C5.07032 25.336 4.59642 24.9349 4.545 24.4068L0.298287 21.7823C0.0117441 23.0669 0.0462763 24.6911 0.645811 26.7454C0.645811 26.7454 -2.36729 33.6521 4.62067 35.978L6.24295 35.0892V35.0839C6.24295 34.6283 6.53536 34.2124 6.96959 34.101C7.75574 33.8989 8.4574 34.6934 8.10768 35.5014C7.97616 35.8059 7.68814 36.0086 7.36413 36.0513C7.20984 36.0715 7.0776 36.0611 6.94534 36.0199L4.8117 37.1787C4.42965 39.2615 4.30695 43.7383 9.97902 44.4123L10.3949 43.8572L9.70644 40.0253L9.71305 40.0186L10.5448 38.3106C10.4 38.1355 10.3111 37.9103 10.3126 37.6583C10.3155 37.1794 10.6682 36.762 11.1325 36.6857C11.7409 36.5862 12.2758 37.0628 12.2758 37.6649C12.2758 38.0817 12.0237 38.4355 11.6755 38.5882L10.8849 40.1989L11.314 42.5592L12.1046 41.449C12.0429 41.3174 12.0091 41.1782 12.0091 41.0255C12.0091 40.4704 12.4521 40.026 12.9907 40.026C13.5292 40.026 13.9722 40.4704 13.9722 41.0255C13.9722 41.532 13.5902 41.9555 13.1067 42.0041L10.8364 45.093C11.2523 46.537 13.1545 50.0008 21.8875 50.0008C21.8889 50 23.6493 49.9716 26.1562 48.2643Z" fill="#1D4ED8"/>
<path d="M34.9964 4.37048C34.9964 4.37048 34.582 5.10888 34.3895 5.30489C34.2272 5.47022 33.5769 5.81585 33.5769 5.81585C33.5769 5.81585 34.3315 6.26772 34.5306 6.46972C34.7099 6.65226 35.089 7.35474 35.089 7.35474C35.089 7.35474 35.5099 6.61859 35.693 6.43231C35.867 6.255 36.518 5.89964 36.518 5.89964C36.518 5.89964 35.7818 5.47321 35.601 5.29216C35.4012 5.09168 34.9964 4.37048 34.9964 4.37048Z" fill="#F97316"/>
<path d="M36.9221 2.62659C36.9221 2.62659 36.8111 2.82335 36.7597 2.87647C36.7164 2.9206 36.543 3.01262 36.543 3.01262C36.543 3.01262 36.7443 3.13307 36.7979 3.18768C36.8458 3.23631 36.9471 3.42409 36.9471 3.42409C36.9471 3.42409 37.0595 3.22733 37.1088 3.17795C37.155 3.13082 37.3292 3.03581 37.3292 3.03581C37.3292 3.03581 37.1323 2.9221 37.0845 2.87347C37.0301 2.8196 36.9221 2.62659 36.9221 2.62659Z" fill="#F97316"/>
<path d="M33.5519 1.82996C33.5519 1.82996 33.3498 2.19055 33.2558 2.28631C33.1765 2.36711 32.8591 2.53618 32.8591 2.53618C32.8591 2.53618 33.2272 2.75688 33.3249 2.85563C33.4123 2.94465 33.5975 3.28805 33.5975 3.28805C33.5975 3.28805 33.8032 2.92895 33.8928 2.83768C33.9781 2.75089 34.2955 2.57733 34.2955 2.57733C34.2955 2.57733 33.9361 2.36935 33.848 2.28032C33.7496 2.18157 33.5519 1.82996 33.5519 1.82996Z" fill="#F97316"/>
<path d="M108.668 12.7278C108.668 12.7278 108.254 13.4662 108.061 13.6622C107.899 13.8275 107.249 14.1732 107.249 14.1732C107.249 14.1732 108.003 14.625 108.202 14.8271C108.381 15.0095 108.761 15.7121 108.761 15.7121C108.761 15.7121 109.182 14.976 109.364 14.7896C109.539 14.6123 110.19 14.257 110.19 14.257C110.19 14.257 109.453 13.8306 109.273 13.6494C109.073 13.449 108.668 12.7278 108.668 12.7278Z" fill="#F97316"/>
<path d="M110.594 10.9846C110.594 10.9846 110.483 11.1814 110.431 11.2345C110.388 11.2786 110.215 11.3707 110.215 11.3707C110.215 11.3707 110.416 11.4911 110.47 11.5457C110.517 11.5943 110.619 11.7821 110.619 11.7821C110.619 11.7821 110.731 11.5854 110.78 11.536C110.827 11.4889 111.001 11.3939 111.001 11.3939C111.001 11.3939 110.804 11.2801 110.756 11.2315C110.702 11.1769 110.594 10.9846 110.594 10.9846Z" fill="#F97316"/>
<path d="M107.223 10.1871C107.223 10.1871 107.022 10.5477 106.927 10.6435C106.848 10.7243 106.531 10.8934 106.531 10.8934C106.531 10.8934 106.899 11.1141 106.996 11.2128C107.084 11.3018 107.269 11.6452 107.269 11.6452C107.269 11.6452 107.475 11.2861 107.564 11.1948C107.65 11.1081 107.967 10.9345 107.967 10.9345C107.967 10.9345 107.608 10.7265 107.52 10.6375C107.421 10.5395 107.223 10.1871 107.223 10.1871Z" fill="#F97316"/>
<path d="M92.2461 30.6963H85.0157V25.7879H90.6459C91.083 25.7879 91.46 25.6278 91.7745 25.306C92.0889 24.9858 92.2461 24.6021 92.2461 24.157C92.2461 23.7133 92.0889 23.3295 91.7745 23.0093C91.46 22.6877 91.083 22.5276 90.6459 22.5276H85.0157V17.6192H92.2461C92.6965 17.6192 93.0785 17.4591 93.3945 17.1389C93.7089 16.8187 93.8662 16.4289 93.8662 15.971C93.8662 15.5259 93.7089 15.142 93.3945 14.8218C93.0785 14.5016 92.6965 14.3401 92.2461 14.3401H83.4163C82.9658 14.3401 82.5838 14.5016 82.2679 14.8218C81.9534 15.142 81.7962 15.5259 81.7962 15.971V32.3443C81.7962 32.7895 81.9534 33.1733 82.2679 33.4935C82.5838 33.8137 82.9666 33.9738 83.4163 33.9738H92.2461C92.6965 33.9738 93.0785 33.8137 93.3945 33.4935C93.7089 33.1733 93.8662 32.7895 93.8662 32.3443C93.8662 31.8858 93.7089 31.4968 93.3945 31.1766C93.0785 30.8564 92.6958 30.6963 92.2461 30.6963Z" fill="#1D4ED8"/>
<path d="M77.786 20.8793C77.786 20.957 77.7471 21.314 77.6707 21.9491C77.5928 22.5836 77.3745 23.2935 77.0153 24.0791C76.4745 25.166 75.7126 25.9965 74.7296 26.5725C73.7458 27.1485 72.6055 27.4366 71.3072 27.4366H57.1086V32.345C57.1086 32.7901 56.9515 33.1739 56.6369 33.4941C56.3211 33.8143 55.9389 33.9744 55.49 33.9744C55.0528 33.9744 54.676 33.8143 54.3616 33.4941C54.0456 33.1739 53.8883 32.7901 53.8883 32.345V15.9709C53.8883 15.5258 54.0456 15.142 54.3616 14.8218C54.676 14.5016 55.0528 14.34 55.49 14.34H57.1086V24.1568H71.308C72.6827 24.1568 73.6076 23.6601 74.0837 22.6658C74.238 22.3777 74.3475 22.1033 74.4114 21.8399C74.476 21.5781 74.518 21.3566 74.5371 21.1726C74.5568 20.9893 74.5657 20.892 74.5657 20.8786C74.5657 19.4774 74.0522 18.5354 73.0236 18.0506C72.7407 17.907 72.471 17.8052 72.2139 17.7461C71.9567 17.6871 71.6539 17.6444 71.308 17.6182H62.9762C62.4942 18.2721 61.7264 18.6948 60.8624 18.6948C59.9983 18.6948 59.2306 18.2713 58.7486 17.6182C58.4164 17.1686 58.2203 16.609 58.2203 16.0052C58.2203 15.3761 58.4326 14.7963 58.7904 14.3392C59.2738 13.716 60.0226 13.3165 60.8624 13.3165C61.7022 13.3165 62.4509 13.716 62.9343 14.3392H71.3072C71.3968 14.3392 71.7473 14.3788 72.3578 14.4581C72.9684 14.536 73.6664 14.7596 74.4497 15.1255C76.6736 16.318 77.786 18.2347 77.786 20.8793Z" fill="#1D4ED8"/>
<path d="M109.428 27.4951V27.7696C109.428 29.3931 108.849 30.8272 107.692 32.0699C106.381 33.3395 104.819 33.9738 103.006 33.9738H102.775C100.537 33.8212 98.8653 32.8381 97.7587 31.0269C97.1438 30.917 96.6104 30.5684 96.2497 30.0806C95.9469 29.6706 95.7677 29.1597 95.7677 28.6083C95.7677 28.0352 95.9609 27.5063 96.2871 27.0889C96.7287 26.5203 97.4112 26.156 98.1776 26.156C98.9439 26.156 99.6279 26.5203 100.068 27.0889C100.396 27.5063 100.589 28.0352 100.589 28.6083C100.589 28.8402 100.557 29.0654 100.496 29.2794C100.995 30.1621 101.793 30.6342 102.892 30.6956H103.028C103.991 30.6956 104.775 30.3941 105.379 29.7918C105.945 29.2031 106.228 28.5283 106.228 27.7689V27.6514C106.113 26.9976 105.647 26.4186 104.83 25.915C104.013 25.4109 103.303 25.0734 102.7 24.9029L102.583 24.8437C99.7418 23.7829 98.3223 21.9845 98.3223 19.4446V19.2284C98.387 17.7486 99.0108 16.5381 100.192 15.597C101.273 14.7598 102.532 14.3394 103.972 14.3394H104.222C105.418 14.4052 106.517 14.8182 107.52 15.5768C107.944 15.9576 108.157 16.3892 108.157 16.8726C108.157 17.2137 108.047 17.5413 107.827 17.8555C107.455 18.2872 107.025 18.5035 106.536 18.5035C106.201 18.5035 105.88 18.398 105.572 18.1892C105.121 17.8481 104.633 17.6588 104.106 17.6192H103.952C103.271 17.6192 102.702 17.7762 102.246 18.0905C101.789 18.4047 101.548 18.8237 101.522 19.3465V19.4453C101.522 19.904 101.626 20.2772 101.831 20.5645C102.037 20.8525 102.296 21.0919 102.611 21.2812C102.927 21.4705 103.27 21.6366 103.642 21.781C103.964 21.8603 104.572 22.1026 105.465 22.5081C106.358 22.9136 107.216 23.5218 108.04 24.3342C108.862 25.146 109.323 26.1993 109.428 27.4951Z" fill="#1D4ED8"/>
</g>
</g>
<defs>
<clipPath id="clip0_120_86">
<rect width="111" height="50" fill="white"/>
</clipPath>
</defs>
</svg>
