<svg width="1920" height="1081" viewBox="0 0 1920 1081" fill="none" xmlns="http://www.w3.org/2000/svg">
<path d="M167.9 452.734C163.998 456.636 160.644 460.898 157.82 465.383L180.566 442.635C176.064 445.477 171.82 448.831 167.9 452.734Z" fill="#171717"/>
<path d="M196.825 435.053L150.221 481.66C149.827 482.858 149.485 484.074 149.16 485.289L200.47 433.974C199.238 434.3 198.023 434.659 196.825 435.053Z" fill="#171717"/>
<path d="M211.115 431.989L147.14 495.97C147.038 496.911 146.952 497.852 146.883 498.794L213.922 431.749C212.998 431.801 212.057 431.886 211.115 431.989Z" fill="#171717"/>
<path d="M222.719 431.63L146.798 507.557C146.832 508.362 146.901 509.149 146.969 509.954L225.115 431.801C224.311 431.732 223.524 431.664 222.719 431.63Z" fill="#171717"/>
<path d="M232.749 432.828L147.996 517.587C148.133 518.289 148.287 518.991 148.441 519.693L234.854 433.273C234.152 433.119 233.45 432.965 232.749 432.828Z" fill="#171717"/>
<path d="M241.665 435.138L150.306 526.505C150.512 527.138 150.734 527.789 150.957 528.422L243.582 435.789C242.949 435.566 242.299 435.361 241.665 435.138Z" fill="#171717"/>
<path d="M249.726 438.305L153.473 534.567C153.747 535.149 154.037 535.714 154.328 536.278L251.438 439.161C250.873 438.87 250.308 438.579 249.726 438.305Z" fill="#171717"/>
<path d="M257.017 442.259L157.426 541.858C157.751 542.389 158.077 542.92 158.419 543.433L258.592 443.251C258.079 442.909 257.548 442.584 257.017 442.259Z" fill="#171717"/>
<path d="M263.641 446.88L162.047 548.482C162.424 548.962 162.783 549.441 163.177 549.92L265.079 448.01C264.599 447.616 264.12 447.24 263.641 446.88Z" fill="#171717"/>
<path d="M270.299 452.734C270.076 452.511 269.854 452.323 269.648 452.101L167.284 554.473C167.49 554.696 167.695 554.918 167.918 555.123C168.14 555.346 168.363 555.534 168.568 555.757L270.932 453.384C270.709 453.179 270.504 452.956 270.299 452.734Z" fill="#171717"/>
<path d="M275.022 457.954L173.12 559.865C173.6 560.258 174.079 560.618 174.558 560.994L276.152 459.392C275.775 458.913 275.416 458.434 275.022 457.954Z" fill="#171717"/>
<path d="M279.78 464.441L179.607 564.623C180.121 564.965 180.651 565.291 181.182 565.616L280.773 466.016C280.448 465.486 280.122 464.955 279.78 464.441Z" fill="#171717"/>
<path d="M283.871 471.579L186.761 568.697C187.326 568.988 187.908 569.279 188.473 569.552L284.726 473.291C284.452 472.726 284.144 472.161 283.871 471.579Z" fill="#171717"/>
<path d="M287.242 479.452L194.617 572.086C195.25 572.308 195.9 572.531 196.534 572.736L287.893 481.369C287.67 480.719 287.465 480.086 287.242 479.452Z" fill="#171717"/>
<path d="M289.741 488.165L203.328 574.585C204.03 574.739 204.732 574.91 205.433 575.03L290.186 490.27C290.066 489.568 289.912 488.866 289.741 488.165Z" fill="#171717"/>
<path d="M291.23 497.921L213.084 576.074C213.888 576.142 214.675 576.211 215.48 576.245L291.401 500.317C291.367 499.513 291.298 498.725 291.23 497.921Z" fill="#171717"/>
<path d="M291.298 509.098L224.26 576.142C225.201 576.074 226.142 575.988 227.084 575.885L291.059 511.905C291.144 510.981 291.23 510.039 291.298 509.098Z" fill="#171717"/>
<path d="M289.039 522.568L237.729 573.883C238.944 573.558 240.159 573.198 241.357 572.822L287.961 526.214C288.372 524.999 288.731 523.801 289.039 522.568Z" fill="#171717"/>
<path d="M257.634 565.222C262.118 562.398 266.379 559.043 270.281 555.141C274.184 551.238 277.538 546.976 280.362 542.492L257.634 565.222Z" fill="#171717"/>
<path d="M1075.39 441.968C1078.64 445.224 1081.44 448.779 1083.8 452.521L1064.82 433.543C1068.57 435.914 1072.12 438.712 1075.39 441.968Z" fill="#171717"/>
<path d="M1051.26 427.217L1090.13 466.1C1090.46 467.1 1090.75 468.113 1091.02 469.127L1048.21 426.318C1049.24 426.589 1050.26 426.889 1051.26 427.217Z" fill="#171717"/>
<path d="M1039.33 424.661L1092.7 478.038C1092.79 478.823 1092.86 479.608 1092.92 480.394L1036.99 424.461C1037.76 424.504 1038.55 424.576 1039.33 424.661Z" fill="#171717"/>
<path d="M1029.65 424.362L1092.99 487.705C1092.96 488.376 1092.9 489.033 1092.85 489.704L1027.65 424.505C1028.32 424.447 1028.98 424.39 1029.65 424.362Z" fill="#171717"/>
<path d="M1021.29 425.361L1091.99 496.072C1091.88 496.658 1091.75 497.243 1091.62 497.829L1019.53 425.732C1020.11 425.604 1020.7 425.475 1021.29 425.361Z" fill="#171717"/>
<path d="M1013.85 427.289L1090.06 503.512C1089.89 504.04 1089.71 504.583 1089.52 505.111L1012.25 427.832C1012.78 427.646 1013.32 427.475 1013.85 427.289Z" fill="#171717"/>
<path d="M1007.12 429.931L1087.42 510.238C1087.19 510.723 1086.95 511.194 1086.71 511.666L1005.69 430.645C1006.16 430.402 1006.64 430.159 1007.12 429.931Z" fill="#171717"/>
<path d="M1001.04 433.229L1084.12 516.321C1083.85 516.763 1083.58 517.206 1083.3 517.634L999.725 434.057C1000.15 433.772 1000.6 433.5 1001.04 433.229Z" fill="#171717"/>
<path d="M995.513 437.085L1080.27 521.847C1079.95 522.247 1079.65 522.646 1079.33 523.046L994.314 438.027C994.714 437.699 995.114 437.384 995.513 437.085Z" fill="#171717"/>
<path d="M989.959 441.968C990.145 441.782 990.33 441.625 990.502 441.44L1075.9 526.844C1075.73 527.03 1075.56 527.216 1075.37 527.387C1075.19 527.573 1075 527.73 1074.83 527.915L989.431 442.511C989.616 442.339 989.788 442.154 989.959 441.968Z" fill="#171717"/>
<path d="M986.018 446.323L1071.03 531.342C1070.63 531.671 1070.23 531.971 1069.83 532.285L985.076 447.523C985.39 447.123 985.69 446.723 986.018 446.323Z" fill="#171717"/>
<path d="M982.049 451.735L1065.62 535.312C1065.19 535.598 1064.75 535.869 1064.31 536.14L981.221 453.049C981.492 452.606 981.763 452.164 982.049 451.735Z" fill="#171717"/>
<path d="M978.637 457.69L1059.65 538.711C1059.18 538.953 1058.69 539.196 1058.22 539.425L977.923 459.118C978.151 458.646 978.408 458.175 978.637 457.69Z" fill="#171717"/>
<path d="M975.824 464.258L1053.1 541.538C1052.57 541.724 1052.03 541.909 1051.5 542.081L975.281 465.857C975.467 465.315 975.638 464.787 975.824 464.258Z" fill="#171717"/>
<path d="M973.739 471.526L1045.83 543.623C1045.24 543.751 1044.66 543.894 1044.07 543.994L973.368 473.283C973.468 472.697 973.596 472.112 973.739 471.526Z" fill="#171717"/>
<path d="M972.497 479.666L1037.69 544.865C1037.02 544.922 1036.36 544.979 1035.69 545.008L972.354 481.665C972.383 480.994 972.44 480.337 972.497 479.666Z" fill="#171717"/>
<path d="M972.44 488.99L1028.37 544.922C1027.58 544.865 1026.8 544.794 1026.01 544.708L972.64 491.332C972.568 490.561 972.497 489.775 972.44 488.99Z" fill="#171717"/>
<path d="M974.325 500.228L1017.13 543.037C1016.12 542.766 1015.1 542.466 1014.1 542.152L975.224 503.269C974.881 502.256 974.582 501.256 974.325 500.228Z" fill="#171717"/>
<path d="M1000.53 535.812C996.784 533.456 993.229 530.657 989.973 527.401C986.718 524.146 983.92 520.59 981.564 516.849L1000.53 535.812Z" fill="#171717"/>
<path d="M1344.8 289.413C1346.62 289.413 1348.07 290.881 1348.07 292.683C1348.07 294.5 1346.6 295.953 1344.8 295.953C1342.98 295.953 1341.53 294.485 1341.53 292.683C1341.53 290.881 1343 289.413 1344.8 289.413Z" fill="#94A3B8"/>
<path d="M1344.8 268.714C1346.62 268.714 1348.07 270.182 1348.07 271.984C1348.07 273.801 1346.6 275.254 1344.8 275.254C1342.98 275.254 1341.53 273.786 1341.53 271.984C1341.53 270.182 1343 268.714 1344.8 268.714Z" fill="#94A3B8"/>
<path d="M1344.8 248C1346.62 248 1348.07 249.468 1348.07 251.271C1348.07 253.088 1346.6 254.541 1344.8 254.541C1342.98 254.541 1341.53 253.073 1341.53 251.271C1341.53 249.468 1343 248 1344.8 248Z" fill="#94A3B8"/>
<path d="M1344.8 227.302C1346.62 227.302 1348.07 228.77 1348.07 230.572C1348.07 232.389 1346.6 233.842 1344.8 233.842C1342.98 233.842 1341.53 232.374 1341.53 230.572C1341.53 228.77 1343 227.302 1344.8 227.302Z" fill="#94A3B8"/>
<path d="M1344.8 206.603C1346.62 206.603 1348.07 208.071 1348.07 209.873C1348.07 211.69 1346.6 213.143 1344.8 213.143C1342.98 213.143 1341.53 211.675 1341.53 209.873C1341.53 208.071 1343 206.603 1344.8 206.603Z" fill="#94A3B8"/>
<path d="M1344.8 185.89C1346.62 185.89 1348.07 187.358 1348.07 189.16C1348.07 190.977 1346.6 192.43 1344.8 192.43C1342.98 192.43 1341.53 190.962 1341.53 189.16C1341.53 187.358 1343 185.89 1344.8 185.89Z" fill="#94A3B8"/>
<path d="M1344.8 165.191C1346.62 165.191 1348.07 166.659 1348.07 168.461C1348.07 170.278 1346.6 171.731 1344.8 171.731C1343 171.731 1341.53 170.263 1341.53 168.461C1341.53 166.659 1343 165.191 1344.8 165.191Z" fill="#94A3B8"/>
<path d="M1344.8 144.492C1346.62 144.492 1348.07 145.96 1348.07 147.762C1348.07 149.579 1346.6 151.033 1344.8 151.033C1342.98 151.033 1341.53 149.565 1341.53 147.762C1341.53 145.96 1343 144.492 1344.8 144.492Z" fill="#94A3B8"/>
<path d="M1344.8 123.779C1346.62 123.779 1348.07 125.247 1348.07 127.049C1348.07 128.866 1346.6 130.319 1344.8 130.319C1342.98 130.319 1341.53 128.851 1341.53 127.049C1341.53 125.247 1343 123.779 1344.8 123.779Z" fill="#94A3B8"/>
<path d="M1344.8 103.08C1346.62 103.08 1348.07 104.548 1348.07 106.35C1348.07 108.167 1346.6 109.62 1344.8 109.62C1342.98 109.62 1341.53 108.152 1341.53 106.35C1341.53 104.548 1343 103.08 1344.8 103.08Z" fill="#94A3B8"/>
<path d="M1344.8 82.3811C1346.62 82.3811 1348.07 83.8491 1348.07 85.6514C1348.07 87.4682 1346.6 88.9216 1344.8 88.9216C1342.98 88.9216 1341.53 87.4537 1341.53 85.6514C1341.53 83.8491 1343 82.3811 1344.8 82.3811Z" fill="#94A3B8"/>
<path d="M1344.8 61.6678C1346.62 61.6678 1348.07 63.1358 1348.07 64.938C1348.07 66.7548 1346.6 68.2083 1344.8 68.2083C1342.98 68.2083 1341.53 66.7403 1341.53 64.938C1341.53 63.1358 1343 61.6678 1344.8 61.6678Z" fill="#94A3B8"/>
<path d="M1344.8 40.969C1346.62 40.969 1348.07 42.437 1348.07 44.2392C1348.07 46.056 1346.6 47.5095 1344.8 47.5095C1342.98 47.5095 1341.53 46.0415 1341.53 44.2392C1341.53 42.437 1343 40.969 1344.8 40.969Z" fill="#94A3B8"/>
<path d="M1344.8 20.2702C1346.62 20.2702 1348.07 21.7382 1348.07 23.5405C1348.07 25.3573 1346.6 26.8107 1344.8 26.8107C1342.98 26.8107 1341.53 25.3427 1341.53 23.5405C1341.53 21.7382 1343 20.2702 1344.8 20.2702Z" fill="#94A3B8"/>
<path d="M1360 289.413C1361.82 289.413 1363.27 290.881 1363.27 292.683C1363.27 294.5 1361.8 295.953 1360 295.953C1358.19 295.953 1356.73 294.485 1356.73 292.683C1356.73 290.881 1358.19 289.413 1360 289.413Z" fill="#94A3B8"/>
<path d="M1360 268.714C1361.82 268.714 1363.27 270.182 1363.27 271.984C1363.27 273.801 1361.8 275.254 1360 275.254C1358.19 275.254 1356.73 273.786 1356.73 271.984C1356.73 270.182 1358.19 268.714 1360 268.714Z" fill="#94A3B8"/>
<path d="M1360 248C1361.82 248 1363.27 249.468 1363.27 251.271C1363.27 253.088 1361.8 254.541 1360 254.541C1358.19 254.541 1356.73 253.073 1356.73 251.271C1356.73 249.468 1358.19 248 1360 248Z" fill="#94A3B8"/>
<path d="M1360 227.302C1361.82 227.302 1363.27 228.77 1363.27 230.572C1363.27 232.389 1361.8 233.842 1360 233.842C1358.19 233.842 1356.73 232.374 1356.73 230.572C1356.73 228.77 1358.19 227.302 1360 227.302Z" fill="#94A3B8"/>
<path d="M1360 206.603C1361.82 206.603 1363.27 208.071 1363.27 209.873C1363.27 211.69 1361.8 213.143 1360 213.143C1358.19 213.143 1356.73 211.675 1356.73 209.873C1356.73 208.071 1358.19 206.603 1360 206.603Z" fill="#94A3B8"/>
<path d="M1360 185.89C1361.82 185.89 1363.27 187.358 1363.27 189.16C1363.27 190.977 1361.8 192.43 1360 192.43C1358.19 192.43 1356.73 190.962 1356.73 189.16C1356.73 187.358 1358.19 185.89 1360 185.89Z" fill="#94A3B8"/>
<path d="M1360 165.191C1361.82 165.191 1363.27 166.659 1363.27 168.461C1363.27 170.278 1361.8 171.731 1360 171.731C1358.19 171.731 1356.73 170.263 1356.73 168.461C1356.73 166.659 1358.19 165.191 1360 165.191Z" fill="#94A3B8"/>
<path d="M1360 144.492C1361.82 144.492 1363.27 145.96 1363.27 147.762C1363.27 149.579 1361.8 151.033 1360 151.033C1358.19 151.033 1356.73 149.565 1356.73 147.762C1356.73 145.96 1358.19 144.492 1360 144.492Z" fill="#94A3B8"/>
<path d="M1360 123.779C1361.82 123.779 1363.27 125.247 1363.27 127.049C1363.27 128.866 1361.8 130.319 1360 130.319C1358.19 130.319 1356.73 128.851 1356.73 127.049C1356.73 125.247 1358.19 123.779 1360 123.779Z" fill="#94A3B8"/>
<path d="M1360 103.08C1361.82 103.08 1363.27 104.548 1363.27 106.35C1363.27 108.167 1361.8 109.62 1360 109.62C1358.19 109.62 1356.73 108.152 1356.73 106.35C1356.73 104.548 1358.19 103.08 1360 103.08Z" fill="#94A3B8"/>
<path d="M1360 82.3811C1361.82 82.3811 1363.27 83.8491 1363.27 85.6514C1363.27 87.4682 1361.8 88.9216 1360 88.9216C1358.19 88.9216 1356.73 87.4537 1356.73 85.6514C1356.73 83.8491 1358.19 82.3811 1360 82.3811Z" fill="#94A3B8"/>
<path d="M1360 61.6823C1361.82 61.6823 1363.27 63.1503 1363.27 64.9526C1363.27 66.7694 1361.8 68.2228 1360 68.2228C1358.19 68.2228 1356.73 66.7548 1356.73 64.9526C1356.73 63.1358 1358.19 61.6823 1360 61.6823Z" fill="#94A3B8"/>
<path d="M1360 40.969C1361.82 40.969 1363.27 42.437 1363.27 44.2392C1363.27 46.056 1361.8 47.5095 1360 47.5095C1358.19 47.5095 1356.73 46.0415 1356.73 44.2392C1356.73 42.437 1358.19 40.969 1360 40.969Z" fill="#94A3B8"/>
<path d="M1360 20.2702C1361.82 20.2702 1363.27 21.7382 1363.27 23.5405C1363.27 25.3573 1361.8 26.8107 1360 26.8107C1358.19 26.8107 1356.73 25.3427 1356.73 23.5405C1356.73 21.7382 1358.19 20.2702 1360 20.2702Z" fill="#94A3B8"/>
<path d="M1375.21 289.413C1377.02 289.413 1378.48 290.881 1378.48 292.683C1378.48 294.5 1377.01 295.953 1375.21 295.953C1373.39 295.953 1371.94 294.485 1371.94 292.683C1371.92 290.881 1373.39 289.413 1375.21 289.413Z" fill="#94A3B8"/>
<path d="M1375.21 268.714C1377.02 268.714 1378.48 270.182 1378.48 271.984C1378.48 273.801 1377.01 275.254 1375.21 275.254C1373.39 275.254 1371.94 273.786 1371.94 271.984C1371.92 270.182 1373.39 268.714 1375.21 268.714Z" fill="#94A3B8"/>
<path d="M1375.21 248C1377.02 248 1378.48 249.468 1378.48 251.271C1378.48 253.088 1377.01 254.541 1375.21 254.541C1373.39 254.541 1371.94 253.073 1371.94 251.271C1371.92 249.468 1373.39 248 1375.21 248Z" fill="#94A3B8"/>
<path d="M1375.21 227.302C1377.02 227.302 1378.48 228.77 1378.48 230.572C1378.48 232.389 1377.01 233.842 1375.21 233.842C1373.39 233.842 1371.94 232.374 1371.94 230.572C1371.92 228.77 1373.39 227.302 1375.21 227.302Z" fill="#94A3B8"/>
<path d="M1375.21 206.603C1377.02 206.603 1378.48 208.071 1378.48 209.873C1378.48 211.69 1377.01 213.143 1375.21 213.143C1373.39 213.143 1371.94 211.675 1371.94 209.873C1371.92 208.071 1373.39 206.603 1375.21 206.603Z" fill="#94A3B8"/>
<path d="M1375.21 185.89C1377.02 185.89 1378.48 187.358 1378.48 189.16C1378.48 190.977 1377.01 192.43 1375.21 192.43C1373.39 192.43 1371.94 190.962 1371.94 189.16C1371.92 187.358 1373.39 185.89 1375.21 185.89Z" fill="#94A3B8"/>
<path d="M1375.21 165.191C1377.02 165.191 1378.48 166.659 1378.48 168.461C1378.48 170.278 1377.01 171.731 1375.21 171.731C1373.39 171.731 1371.94 170.263 1371.94 168.461C1371.92 166.659 1373.39 165.191 1375.21 165.191Z" fill="#94A3B8"/>
<path d="M1375.21 144.492C1377.02 144.492 1378.48 145.96 1378.48 147.762C1378.48 149.579 1377.01 151.033 1375.21 151.033C1373.39 151.033 1371.94 149.565 1371.94 147.762C1371.92 145.96 1373.39 144.492 1375.21 144.492Z" fill="#94A3B8"/>
<path d="M1375.21 123.779C1377.02 123.779 1378.48 125.247 1378.48 127.049C1378.48 128.866 1377.01 130.319 1375.21 130.319C1373.39 130.319 1371.94 128.851 1371.94 127.049C1371.92 125.247 1373.39 123.779 1375.21 123.779Z" fill="#94A3B8"/>
<path d="M1375.21 103.08C1377.02 103.08 1378.48 104.548 1378.48 106.35C1378.48 108.167 1377.01 109.62 1375.21 109.62C1373.39 109.62 1371.94 108.152 1371.94 106.35C1371.92 104.548 1373.39 103.08 1375.21 103.08Z" fill="#94A3B8"/>
<path d="M1375.21 82.3811C1377.02 82.3811 1378.48 83.8491 1378.48 85.6514C1378.48 87.4682 1377.01 88.9216 1375.21 88.9216C1373.39 88.9216 1371.94 87.4537 1371.94 85.6514C1371.92 83.8491 1373.39 82.3811 1375.21 82.3811Z" fill="#94A3B8"/>
<path d="M1375.21 61.6823C1377.02 61.6823 1378.48 63.1503 1378.48 64.9526C1378.48 66.7694 1377.01 68.2228 1375.21 68.2228C1373.39 68.2228 1371.94 66.7548 1371.94 64.9526C1371.92 63.1358 1373.39 61.6823 1375.21 61.6823Z" fill="#94A3B8"/>
<path d="M1375.21 40.969C1377.02 40.969 1378.48 42.437 1378.48 44.2392C1378.48 46.0415 1377.01 47.5095 1375.21 47.5095C1373.39 47.5095 1371.94 46.0415 1371.94 44.2392C1371.94 42.437 1373.39 40.969 1375.21 40.969Z" fill="#94A3B8"/>
<path d="M1375.21 20.2702C1377.02 20.2702 1378.48 21.7382 1378.48 23.5405C1378.48 25.3573 1377.01 26.8107 1375.21 26.8107C1373.39 26.8107 1371.94 25.3427 1371.94 23.5405C1371.92 21.7382 1373.39 20.2702 1375.21 20.2702Z" fill="#94A3B8"/>
<path d="M540.87 50.7951H518.458V73.2091H540.87V50.7951Z" fill="#1D4ED8"/>
<path d="M563.181 73.1073H540.768V95.5213H563.181V73.1073Z" fill="#1D4ED8"/>
<path d="M496.235 50.7951H473.823V73.2091H496.235V50.7951Z" fill="#1D4ED8"/>
<path d="M518.545 73.1073H496.133V95.5213H518.545V73.1073Z" fill="#1D4ED8"/>
<path d="M630.025 50.7951H607.612V73.2091H630.025V50.7951Z" fill="#1D4ED8"/>
<path d="M652.335 73.1073H629.923V95.5213H652.335V73.1073Z" fill="#1D4ED8"/>
<path d="M585.404 50.7951H562.992V73.2091H585.404V50.7951Z" fill="#1D4ED8"/>
<path d="M607.714 73.1073H585.302V95.5213H607.714V73.1073Z" fill="#1D4ED8"/>
<path d="M133.727 1037.48C96.1588 1037.48 65.7041 1007.02 65.7041 969.449C65.7041 931.878 96.1588 901.431 133.727 901.431C171.296 901.431 201.75 931.888 201.75 969.46C201.75 1007.03 171.296 1037.48 133.727 1037.48ZM133.727 892.41C91.1802 892.41 56.6843 926.909 56.6843 969.449C56.6843 1012 91.1802 1046.49 133.717 1046.49C176.264 1046.49 210.749 1011.99 210.749 969.449C210.76 926.909 176.274 892.41 133.727 892.41Z" fill="#1D4ED8"/>
<path d="M133.727 1022.54C104.408 1022.54 80.6503 998.771 80.6503 969.46C80.6398 940.138 104.408 916.368 133.727 916.368C163.047 916.368 186.804 940.138 186.804 969.449C186.804 998.771 163.036 1022.54 133.727 1022.54ZM133.727 907.712C99.6272 907.712 71.9846 935.357 71.9846 969.46C71.9846 1003.56 99.6272 1031.21 133.727 1031.21C167.827 1031.21 195.47 1003.56 195.47 969.46C195.46 935.357 167.817 907.712 133.727 907.712Z" fill="#1D4ED8"/>
<path d="M133.727 1007.59C112.667 1007.59 95.586 990.521 95.586 969.449C95.586 948.387 112.657 931.305 133.727 931.305C154.787 931.305 171.869 948.377 171.869 969.449C171.858 990.521 154.787 1007.59 133.727 1007.59ZM133.727 923.013C108.074 923.013 87.2849 943.804 87.2849 969.46C87.2849 995.115 108.074 1015.91 133.727 1015.91C159.381 1015.91 180.17 995.115 180.17 969.46C180.17 943.804 159.37 923.013 133.727 923.013Z" fill="#1D4ED8"/>
<path d="M133.727 992.646C120.916 992.646 110.532 982.261 110.532 969.449C110.532 956.637 120.916 946.252 133.727 946.252C146.538 946.252 156.922 956.637 156.922 969.449C156.922 982.261 146.538 992.646 133.727 992.646ZM133.727 938.305C116.531 938.305 102.585 952.252 102.585 969.449C102.585 986.647 116.531 1000.59 133.727 1000.59C150.923 1000.59 164.869 986.647 164.869 969.449C164.869 952.252 150.923 938.305 133.727 938.305Z" fill="#1D4ED8"/>
<path d="M133.727 976.814C129.665 976.814 126.374 973.522 126.374 969.46C126.374 965.397 129.665 962.106 133.727 962.106C137.789 962.106 141.081 965.397 141.081 969.46C141.081 973.512 137.789 976.814 133.727 976.814ZM133.727 954.96C125.718 954.96 119.229 961.45 119.229 969.46C119.229 977.47 125.718 983.959 133.727 983.959C141.737 983.959 148.226 977.47 148.226 969.46C148.226 961.45 141.726 954.96 133.727 954.96Z" fill="#1D4ED8"/>
<path d="M1254.33 415.751C1236.61 415.751 1222.24 401.384 1222.24 383.662C1222.24 365.939 1236.61 351.578 1254.33 351.578C1272.05 351.578 1286.41 365.944 1286.41 383.667C1286.41 401.389 1272.05 415.751 1254.33 415.751ZM1254.33 347.323C1234.26 347.323 1217.99 363.596 1217.99 383.662C1217.99 403.733 1234.26 420.001 1254.32 420.001C1274.39 420.001 1290.66 403.728 1290.66 383.662C1290.66 363.596 1274.4 347.323 1254.33 347.323Z" fill="#1D4ED8"/>
<path d="M1254.33 408.705C1240.5 408.705 1229.29 397.493 1229.29 383.667C1229.29 369.836 1240.5 358.623 1254.33 358.623C1268.16 358.623 1279.36 369.836 1279.36 383.662C1279.36 397.493 1268.15 408.705 1254.33 408.705ZM1254.33 354.54C1238.24 354.54 1225.2 367.58 1225.2 383.667C1225.2 399.753 1238.24 412.793 1254.33 412.793C1270.41 412.793 1283.45 399.753 1283.45 383.667C1283.45 367.58 1270.41 354.54 1254.33 354.54Z" fill="#1D4ED8"/>
<path d="M1254.33 401.655C1244.39 401.655 1236.34 393.602 1236.34 383.662C1236.34 373.727 1244.39 365.669 1254.33 365.669C1264.26 365.669 1272.32 373.722 1272.32 383.662C1272.31 393.602 1264.26 401.655 1254.33 401.655ZM1254.33 361.758C1242.23 361.758 1232.42 371.565 1232.42 383.667C1232.42 395.768 1242.23 405.575 1254.33 405.575C1266.43 405.575 1276.23 395.768 1276.23 383.667C1276.23 371.565 1266.42 361.758 1254.33 361.758Z" fill="#1D4ED8"/>
<path d="M1254.33 394.604C1248.28 394.604 1243.39 389.705 1243.39 383.662C1243.39 377.618 1248.28 372.72 1254.33 372.72C1260.37 372.72 1265.27 377.618 1265.27 383.662C1265.27 389.705 1260.37 394.604 1254.33 394.604ZM1254.33 368.971C1246.22 368.971 1239.64 375.55 1239.64 383.662C1239.64 391.774 1246.22 398.353 1254.33 398.353C1262.44 398.353 1269.02 391.774 1269.02 383.662C1269.02 375.55 1262.44 368.971 1254.33 368.971Z" fill="#1D4ED8"/>
<path d="M1254.33 387.136C1252.41 387.136 1250.86 385.583 1250.86 383.667C1250.86 381.751 1252.41 380.198 1254.33 380.198C1256.24 380.198 1257.8 381.751 1257.8 383.667C1257.8 385.578 1256.24 387.136 1254.33 387.136ZM1254.33 376.827C1250.55 376.827 1247.49 379.888 1247.49 383.667C1247.49 387.445 1250.55 390.506 1254.33 390.506C1258.11 390.506 1261.17 387.445 1261.17 383.667C1261.17 379.888 1258.1 376.827 1254.33 376.827Z" fill="#1D4ED8"/>
<path d="M1418.56 341.264L1529.94 371.115L1559.77 482.504L1448.39 452.653L1418.56 341.264Z" stroke="#171717" stroke-miterlimit="10"/>
<path d="M1418.56 341.264L1454.65 305.169" stroke="#171717" stroke-miterlimit="10"/>
<path d="M1559.77 482.504L1595.88 446.41" stroke="#171717" stroke-miterlimit="10"/>
<path d="M1448.39 452.653L1529.94 371.115L1566.03 335.021" stroke="#171717" stroke-miterlimit="10"/>
<path d="M1465.41 352.025C1457.94 359.5 1455.03 370.376 1457.76 380.579L1466.6 413.552C1469.32 423.754 1477.29 431.722 1487.49 434.449L1520.46 443.288C1530.66 446.015 1541.54 443.107 1549.01 435.632C1556.49 428.157 1559.4 417.281 1556.67 407.079L1547.83 374.106C1545.1 363.903 1537.14 355.935 1526.93 353.208L1493.96 344.369C1483.76 341.642 1472.89 344.566 1465.41 352.025Z" fill="#F97316"/>
<path d="M1454.65 305.169L1566.03 335.021L1595.88 446.41L1484.5 416.558L1454.65 305.169Z" stroke="#171717" stroke-miterlimit="10"/>
<path d="M735.443 585.257L660.581 605.321L640.53 680.189L715.391 660.125L735.443 585.257Z" stroke="#171717" stroke-miterlimit="10"/>
<path d="M735.443 585.257L711.185 560.997" stroke="#171717" stroke-miterlimit="10"/>
<path d="M640.53 680.189L616.26 655.929" stroke="#171717" stroke-miterlimit="10"/>
<path d="M715.391 660.125L660.581 605.321L636.323 581.061" stroke="#171717" stroke-miterlimit="10"/>
<path d="M703.952 592.49C708.976 597.514 710.931 604.825 709.098 611.682L703.157 633.844C701.324 640.702 695.969 646.057 689.113 647.89L666.952 653.831C660.095 655.664 652.786 653.71 647.762 648.685C642.738 643.661 640.784 636.351 642.617 629.493L648.557 607.331C650.39 600.474 655.745 595.118 662.602 593.285L684.762 587.344C691.619 585.511 698.928 587.477 703.952 592.49Z" fill="#1D4ED8"/>
<path d="M711.185 560.997L636.323 581.061L616.26 655.929L691.122 635.865L711.185 560.997Z" stroke="#171717" stroke-miterlimit="10"/>
<path d="M32.9641 166.484C29.7084 163.228 29.7084 157.937 32.9641 154.681L43.3853 144.259C46.641 141.003 51.9316 141.003 55.1873 144.259C58.443 147.515 58.443 152.806 55.1873 156.062L44.7661 166.484C41.5104 169.74 36.2344 169.74 32.9641 166.484Z" fill="#1D4ED8"/>
<path d="M63.0795 137.457C59.8237 134.201 59.8237 128.91 63.0795 125.654L155.838 32.8872C159.094 29.6312 164.385 29.6312 167.64 32.8872C170.896 36.1431 170.896 41.4341 167.64 44.6901L74.8814 137.457C71.6257 140.727 66.3497 140.727 63.0795 137.457Z" fill="#1D4ED8"/>
<path d="M32.9641 227.578C29.7084 224.322 29.7084 219.031 32.9641 215.775L125.723 123.008C128.979 119.752 134.269 119.752 137.525 123.008C140.781 126.264 140.781 131.555 137.525 134.811L44.7661 227.578C41.5104 230.848 36.2344 230.848 32.9641 227.578Z" fill="#F97316"/>
<path d="M32.5826 285.005C29.8356 282.257 29.8356 277.809 32.5826 275.062L74.747 232.894C77.494 230.147 81.9415 230.147 84.6885 232.894C87.4355 235.642 87.4355 240.089 84.6885 242.837L42.5241 285.005C39.7771 287.752 35.3296 287.752 32.5826 285.005Z" fill="#FACC15"/>
<path d="M102.886 214.696C100.139 211.948 100.139 207.5 102.886 204.753L179.192 128.441C181.939 125.694 186.386 125.694 189.133 128.441C191.88 131.188 191.88 135.636 189.133 138.383L112.827 214.696C110.08 217.443 105.633 217.443 102.886 214.696Z" fill="#F97316"/>
<path d="M1610.17 764.321C1608.56 765.926 1608.56 768.533 1610.17 770.138L1615.3 775.274C1616.91 776.878 1619.51 776.878 1621.12 775.274C1622.72 773.669 1622.72 771.062 1621.12 769.457L1615.98 764.321C1614.38 762.717 1611.78 762.717 1610.17 764.321Z" fill="#F97316"/>
<path d="M1625.01 778.626C1623.4 780.23 1623.4 782.838 1625.01 784.442L1670.72 830.157C1672.32 831.762 1674.93 831.762 1676.53 830.157C1678.14 828.552 1678.14 825.945 1676.53 824.341L1630.82 778.626C1629.22 777.014 1626.62 777.014 1625.01 778.626Z" fill="#F97316"/>
<path d="M1610.17 734.215C1608.56 735.819 1608.56 738.427 1610.17 740.031L1655.88 785.746C1657.48 787.351 1660.09 787.351 1661.69 785.746C1663.3 784.141 1663.3 781.534 1661.69 779.93L1615.98 734.215C1614.38 732.603 1611.78 732.603 1610.17 734.215Z" fill="#1D4ED8"/>
<path d="M1609.98 705.915C1608.62 707.269 1608.62 709.461 1609.98 710.815L1630.76 731.595C1632.11 732.949 1634.3 732.949 1635.66 731.595C1637.01 730.241 1637.01 728.049 1635.66 726.695L1614.88 705.915C1613.52 704.562 1611.33 704.562 1609.98 705.915Z" fill="#171717"/>
<path d="M1644.62 740.563C1643.27 741.917 1643.27 744.109 1644.62 745.463L1682.23 783.069C1683.58 784.423 1685.77 784.423 1687.13 783.069C1688.48 781.715 1688.48 779.523 1687.13 778.169L1649.52 740.563C1648.17 739.209 1645.98 739.209 1644.62 740.563Z" fill="#1D4ED8"/>
<path d="M1821.64 197.048L1789.43 183.076L1785.42 148.211L1817.63 162.169L1821.64 197.048Z" stroke="#1D4ED8" stroke-miterlimit="10" stroke-linecap="square" stroke-linejoin="bevel"/>
<path d="M1821.64 197.048L1789.43 183.076L1761.24 203.983L1793.45 217.955L1821.64 197.048Z" stroke="#1D4ED8" stroke-miterlimit="10" stroke-linecap="square" stroke-linejoin="bevel"/>
<path d="M1796.6 166.569C1802.5 169.133 1806.58 174.64 1807.32 181.022C1808.05 187.403 1805.32 193.697 1800.17 197.529C1795.01 201.361 1788.19 202.147 1782.29 199.583C1776.39 197.019 1772.31 191.512 1771.57 185.13C1770.84 178.749 1773.57 172.455 1778.72 168.623C1783.88 164.791 1790.7 164.019 1796.6 166.569Z" fill="#FACC15"/>
<path d="M1785.42 148.211L1817.63 162.169L1821.64 197.048L1793.45 217.955L1761.24 203.983L1757.24 169.118L1785.42 148.211Z" stroke="#1D4ED8" stroke-miterlimit="10" stroke-linecap="square" stroke-linejoin="bevel"/>
<path d="M1817.63 162.169L1789.43 183.076L1793.45 217.955L1821.64 197.048L1817.63 162.169Z" stroke="#1D4ED8" stroke-miterlimit="10" stroke-linecap="square" stroke-linejoin="bevel"/>
<path d="M1789.43 183.076L1757.24 169.118L1761.24 203.983L1793.45 217.955L1789.43 183.076Z" stroke="#1D4ED8" stroke-miterlimit="10" stroke-linecap="square" stroke-linejoin="bevel"/>
<path d="M1765.68 110.593L1710.21 132.505L1663.49 95.4261L1718.96 73.4991L1765.68 110.593Z" stroke="#1D4ED8" stroke-miterlimit="10" stroke-linecap="square" stroke-linejoin="bevel"/>
<path d="M1765.68 110.593L1710.21 132.505L1701.45 191.526L1756.93 169.599L1765.68 110.593Z" stroke="#1D4ED8" stroke-miterlimit="10" stroke-linecap="square" stroke-linejoin="bevel"/>
<path d="M1698.98 104.066C1709.13 100.045 1720.67 101.764 1729.22 108.553C1737.77 115.343 1742.06 126.182 1740.45 136.993C1738.85 147.803 1731.6 156.938 1721.44 160.945C1711.29 164.966 1699.75 163.247 1691.2 156.458C1682.65 149.668 1678.36 138.829 1679.97 128.018C1681.57 117.222 1688.81 108.087 1698.98 104.066Z" fill="#1D4ED8"/>
<path d="M1663.49 95.4261L1718.96 73.4991L1765.68 110.593L1756.93 169.599L1701.45 191.526L1654.73 154.432L1663.49 95.4261Z" stroke="#1D4ED8" stroke-miterlimit="10" stroke-linecap="square" stroke-linejoin="bevel"/>
<path d="M1718.96 73.4991L1710.21 132.505L1756.93 169.599L1765.68 110.593L1718.96 73.4991Z" stroke="#1D4ED8" stroke-miterlimit="10" stroke-linecap="square" stroke-linejoin="bevel"/>
<path d="M1710.21 132.505L1654.73 154.432L1701.45 191.526L1756.93 169.599L1710.21 132.505Z" stroke="#1D4ED8" stroke-miterlimit="10" stroke-linecap="square" stroke-linejoin="bevel"/>
<path d="M1654.6 17.363L1636.57 58.9588L1591.52 64.1455L1609.56 22.5352L1654.6 17.363Z" stroke="#1D4ED8" stroke-miterlimit="10" stroke-linecap="square" stroke-linejoin="bevel"/>
<path d="M1654.6 17.363L1636.57 58.9588L1663.58 95.397L1681.61 53.7867L1654.6 17.363Z" stroke="#1D4ED8" stroke-miterlimit="10" stroke-linecap="square" stroke-linejoin="bevel"/>
<path d="M1615.24 49.7218C1618.55 42.1019 1625.65 36.8278 1633.92 35.8808C1642.16 34.9338 1650.29 38.4596 1655.24 45.1324C1660.2 51.8052 1661.2 60.6052 1657.89 68.225C1654.59 75.8448 1647.48 81.119 1639.22 82.066C1630.97 83.013 1622.84 79.4872 1617.89 72.8144C1612.94 66.1415 1611.93 57.3416 1615.24 49.7218Z" fill="#F97316"/>
<path d="M1591.52 64.1455L1609.56 22.5352L1654.6 17.363L1681.61 53.7867L1663.58 95.397L1618.52 100.569L1591.52 64.1455Z" stroke="#1D4ED8" stroke-miterlimit="10" stroke-linecap="square" stroke-linejoin="bevel"/>
<path d="M1609.56 22.5352L1636.57 58.9588L1681.61 53.7867L1654.6 17.363L1609.56 22.5352Z" stroke="#1D4ED8" stroke-miterlimit="10" stroke-linecap="square" stroke-linejoin="bevel"/>
<path d="M1636.57 58.9588L1618.52 100.569L1663.58 95.397L1681.61 53.7867L1636.57 58.9588Z" stroke="#1D4ED8" stroke-miterlimit="10" stroke-linecap="square" stroke-linejoin="bevel"/>
<path d="M1776.04 890.288C1774.34 890.506 1772.66 890.768 1770.99 891.073C1771.57 891.625 1772.36 891.974 1773.22 891.974C1774.44 891.974 1775.48 891.291 1776.04 890.288Z" fill="#94A3B8"/>
<path d="M1788.27 891.974C1789.77 891.974 1791.02 890.942 1791.37 889.561C1790.34 889.532 1789.31 889.503 1788.27 889.503C1787.24 889.503 1786.21 889.532 1785.18 889.561C1785.54 890.942 1786.78 891.974 1788.27 891.974Z" fill="#94A3B8"/>
<path d="M1803.33 891.974C1804.2 891.974 1804.99 891.625 1805.56 891.073C1803.88 890.768 1802.21 890.506 1800.51 890.288C1801.06 891.291 1802.11 891.974 1803.33 891.974Z" fill="#94A3B8"/>
<path d="M1743.1 901.626C1741.33 901.626 1739.89 903.065 1739.89 904.838C1739.89 906.611 1741.33 908.05 1743.1 908.05C1744.87 908.05 1746.31 906.611 1746.31 904.838C1746.31 903.065 1744.87 901.626 1743.1 901.626Z" fill="#94A3B8"/>
<path d="M1758.16 901.626C1756.39 901.626 1754.95 903.065 1754.95 904.838C1754.95 906.611 1756.39 908.05 1758.16 908.05C1759.93 908.05 1761.37 906.611 1761.37 904.838C1761.37 903.065 1759.93 901.626 1758.16 901.626Z" fill="#94A3B8"/>
<path d="M1773.22 901.626C1771.44 901.626 1770 903.065 1770 904.838C1770 906.611 1771.44 908.05 1773.22 908.05C1774.99 908.05 1776.43 906.611 1776.43 904.838C1776.43 903.065 1774.99 901.626 1773.22 901.626Z" fill="#94A3B8"/>
<path d="M1788.27 901.626C1786.5 901.626 1785.06 903.065 1785.06 904.838C1785.06 906.611 1786.5 908.05 1788.27 908.05C1790.05 908.05 1791.49 906.611 1791.49 904.838C1791.49 903.065 1790.05 901.626 1788.27 901.626Z" fill="#94A3B8"/>
<path d="M1803.33 901.626C1801.56 901.626 1800.12 903.065 1800.12 904.838C1800.12 906.611 1801.56 908.05 1803.33 908.05C1805.11 908.05 1806.54 906.611 1806.54 904.838C1806.54 903.065 1805.11 901.626 1803.33 901.626Z" fill="#94A3B8"/>
<path d="M1818.39 901.626C1816.62 901.626 1815.18 903.065 1815.18 904.838C1815.18 906.611 1816.62 908.05 1818.39 908.05C1820.16 908.05 1821.6 906.611 1821.6 904.838C1821.6 903.065 1820.16 901.626 1818.39 901.626Z" fill="#94A3B8"/>
<path d="M1833.45 901.626C1831.67 901.626 1830.24 903.065 1830.24 904.838C1830.24 906.611 1831.67 908.05 1833.45 908.05C1835.22 908.05 1836.66 906.611 1836.66 904.838C1836.66 903.065 1835.22 901.626 1833.45 901.626Z" fill="#94A3B8"/>
<path d="M1728.04 917.702C1726.27 917.702 1724.83 919.141 1724.83 920.914C1724.83 922.688 1726.27 924.127 1728.04 924.127C1729.82 924.127 1731.26 922.688 1731.26 920.914C1731.26 919.127 1729.82 917.702 1728.04 917.702Z" fill="#94A3B8"/>
<path d="M1743.1 917.702C1741.33 917.702 1739.89 919.141 1739.89 920.914C1739.89 922.688 1741.33 924.127 1743.1 924.127C1744.87 924.127 1746.31 922.688 1746.31 920.914C1746.31 919.127 1744.87 917.702 1743.1 917.702Z" fill="#94A3B8"/>
<path d="M1758.16 917.702C1756.39 917.702 1754.95 919.141 1754.95 920.914C1754.95 922.688 1756.39 924.127 1758.16 924.127C1759.93 924.127 1761.37 922.688 1761.37 920.914C1761.37 919.127 1759.93 917.702 1758.16 917.702Z" fill="#94A3B8"/>
<path d="M1773.22 917.702C1771.44 917.702 1770 919.141 1770 920.914C1770 922.688 1771.44 924.127 1773.22 924.127C1774.99 924.127 1776.43 922.688 1776.43 920.914C1776.43 919.127 1774.99 917.702 1773.22 917.702Z" fill="#94A3B8"/>
<path d="M1788.27 917.702C1786.5 917.702 1785.06 919.141 1785.06 920.914C1785.06 922.688 1786.5 924.127 1788.27 924.127C1790.05 924.127 1791.49 922.688 1791.49 920.914C1791.49 919.127 1790.05 917.702 1788.27 917.702Z" fill="#94A3B8"/>
<path d="M1803.33 917.702C1801.56 917.702 1800.12 919.141 1800.12 920.914C1800.12 922.688 1801.56 924.127 1803.33 924.127C1805.11 924.127 1806.54 922.688 1806.54 920.914C1806.54 919.127 1805.11 917.702 1803.33 917.702Z" fill="#94A3B8"/>
<path d="M1818.39 917.702C1816.62 917.702 1815.18 919.141 1815.18 920.914C1815.18 922.688 1816.62 924.127 1818.39 924.127C1820.16 924.127 1821.6 922.688 1821.6 920.914C1821.6 919.127 1820.16 917.702 1818.39 917.702Z" fill="#94A3B8"/>
<path d="M1833.45 917.702C1831.67 917.702 1830.24 919.141 1830.24 920.914C1830.24 922.688 1831.67 924.127 1833.45 924.127C1835.22 924.127 1836.66 922.688 1836.66 920.914C1836.66 919.127 1835.22 917.702 1833.45 917.702Z" fill="#94A3B8"/>
<path d="M1848.51 917.702C1846.73 917.702 1845.29 919.141 1845.29 920.914C1845.29 922.688 1846.73 924.127 1848.51 924.127C1850.28 924.127 1851.72 922.688 1851.72 920.914C1851.72 919.127 1850.28 917.702 1848.51 917.702Z" fill="#94A3B8"/>
<path d="M1712.99 933.764C1711.21 933.764 1709.77 935.203 1709.77 936.976C1709.77 938.749 1711.21 940.188 1712.99 940.188C1714.76 940.188 1716.2 938.749 1716.2 936.976C1716.2 935.203 1714.76 933.764 1712.99 933.764Z" fill="#94A3B8"/>
<path d="M1728.04 933.764C1726.27 933.764 1724.83 935.203 1724.83 936.976C1724.83 938.749 1726.27 940.188 1728.04 940.188C1729.82 940.188 1731.26 938.749 1731.26 936.976C1731.26 935.203 1729.82 933.764 1728.04 933.764Z" fill="#94A3B8"/>
<path d="M1743.1 933.764C1741.33 933.764 1739.89 935.203 1739.89 936.976C1739.89 938.749 1741.33 940.188 1743.1 940.188C1744.87 940.188 1746.31 938.749 1746.31 936.976C1746.31 935.203 1744.87 933.764 1743.1 933.764Z" fill="#94A3B8"/>
<path d="M1758.16 933.764C1756.39 933.764 1754.95 935.203 1754.95 936.976C1754.95 938.749 1756.39 940.188 1758.16 940.188C1759.93 940.188 1761.37 938.749 1761.37 936.976C1761.37 935.203 1759.93 933.764 1758.16 933.764Z" fill="#94A3B8"/>
<path d="M1773.22 933.764C1771.44 933.764 1770 935.203 1770 936.976C1770 938.749 1771.44 940.188 1773.22 940.188C1774.99 940.188 1776.43 938.749 1776.43 936.976C1776.43 935.203 1774.99 933.764 1773.22 933.764Z" fill="#94A3B8"/>
<path d="M1788.27 933.764C1786.5 933.764 1785.06 935.203 1785.06 936.976C1785.06 938.749 1786.5 940.188 1788.27 940.188C1790.05 940.188 1791.49 938.749 1791.49 936.976C1791.49 935.203 1790.05 933.764 1788.27 933.764Z" fill="#94A3B8"/>
<path d="M1803.33 933.764C1801.56 933.764 1800.12 935.203 1800.12 936.976C1800.12 938.749 1801.56 940.188 1803.33 940.188C1805.11 940.188 1806.54 938.749 1806.54 936.976C1806.54 935.203 1805.11 933.764 1803.33 933.764Z" fill="#94A3B8"/>
<path d="M1818.39 933.764C1816.62 933.764 1815.18 935.203 1815.18 936.976C1815.18 938.749 1816.62 940.188 1818.39 940.188C1820.16 940.188 1821.6 938.749 1821.6 936.976C1821.6 935.203 1820.16 933.764 1818.39 933.764Z" fill="#94A3B8"/>
<path d="M1833.45 933.764C1831.67 933.764 1830.24 935.203 1830.24 936.976C1830.24 938.749 1831.67 940.188 1833.45 940.188C1835.22 940.188 1836.66 938.749 1836.66 936.976C1836.66 935.203 1835.22 933.764 1833.45 933.764Z" fill="#94A3B8"/>
<path d="M1848.51 933.764C1846.73 933.764 1845.29 935.203 1845.29 936.976C1845.29 938.749 1846.73 940.188 1848.51 940.188C1850.28 940.188 1851.72 938.749 1851.72 936.976C1851.72 935.203 1850.28 933.764 1848.51 933.764Z" fill="#94A3B8"/>
<path d="M1863.56 933.764C1861.79 933.764 1860.35 935.203 1860.35 936.976C1860.35 938.749 1861.79 940.188 1863.56 940.188C1865.34 940.188 1866.77 938.749 1866.77 936.976C1866.77 935.203 1865.34 933.764 1863.56 933.764Z" fill="#94A3B8"/>
<path d="M1701.14 953.038C1701.14 951.73 1700.36 950.611 1699.24 950.117C1698.47 952.094 1697.75 954.099 1697.1 956.12C1697.36 956.192 1697.64 956.236 1697.93 956.236C1699.7 956.25 1701.14 954.811 1701.14 953.038Z" fill="#94A3B8"/>
<path d="M1712.99 949.841C1711.21 949.841 1709.77 951.279 1709.77 953.053C1709.77 954.826 1711.21 956.265 1712.99 956.265C1714.76 956.265 1716.2 954.826 1716.2 953.053C1716.2 951.279 1714.76 949.841 1712.99 949.841Z" fill="#94A3B8"/>
<path d="M1728.04 956.25C1729.82 956.25 1731.26 954.812 1731.26 953.038C1731.26 951.264 1729.82 949.826 1728.04 949.826C1726.27 949.826 1724.83 951.264 1724.83 953.038C1724.83 954.812 1726.27 956.25 1728.04 956.25Z" fill="#94A3B8"/>
<path d="M1743.1 949.841C1741.33 949.841 1739.89 951.279 1739.89 953.053C1739.89 954.826 1741.33 956.265 1743.1 956.265C1744.87 956.265 1746.31 954.826 1746.31 953.053C1746.31 951.279 1744.87 949.841 1743.1 949.841Z" fill="#94A3B8"/>
<path d="M1758.16 949.841C1756.39 949.841 1754.95 951.279 1754.95 953.053C1754.95 954.826 1756.39 956.265 1758.16 956.265C1759.93 956.265 1761.37 954.826 1761.37 953.053C1761.37 951.279 1759.93 949.841 1758.16 949.841Z" fill="#94A3B8"/>
<path d="M1773.22 949.841C1771.44 949.841 1770 951.279 1770 953.053C1770 954.826 1771.44 956.265 1773.22 956.265C1774.99 956.265 1776.43 954.826 1776.43 953.053C1776.43 951.279 1774.99 949.841 1773.22 949.841Z" fill="#94A3B8"/>
<path d="M1788.27 956.25C1790.05 956.25 1791.49 954.812 1791.49 953.038C1791.49 951.264 1790.05 949.826 1788.27 949.826C1786.5 949.826 1785.06 951.264 1785.06 953.038C1785.06 954.812 1786.5 956.25 1788.27 956.25Z" fill="#94A3B8"/>
<path d="M1803.33 949.841C1801.56 949.841 1800.12 951.279 1800.12 953.053C1800.12 954.826 1801.56 956.265 1803.33 956.265C1805.11 956.265 1806.54 954.826 1806.54 953.053C1806.54 951.279 1805.11 949.841 1803.33 949.841Z" fill="#94A3B8"/>
<path d="M1818.39 949.841C1816.62 949.841 1815.18 951.279 1815.18 953.053C1815.18 954.826 1816.62 956.265 1818.39 956.265C1820.16 956.265 1821.6 954.826 1821.6 953.053C1821.6 951.279 1820.16 949.841 1818.39 949.841Z" fill="#94A3B8"/>
<path d="M1833.45 949.841C1831.67 949.841 1830.24 951.279 1830.24 953.053C1830.24 954.826 1831.67 956.265 1833.45 956.265C1835.22 956.265 1836.66 954.826 1836.66 953.053C1836.66 951.279 1835.22 949.841 1833.45 949.841Z" fill="#94A3B8"/>
<path d="M1848.51 956.25C1850.28 956.25 1851.72 954.812 1851.72 953.038C1851.72 951.264 1850.28 949.826 1848.51 949.826C1846.73 949.826 1845.29 951.264 1845.29 953.038C1845.29 954.812 1846.73 956.25 1848.51 956.25Z" fill="#94A3B8"/>
<path d="M1863.56 949.841C1861.79 949.841 1860.35 951.279 1860.35 953.053C1860.35 954.826 1861.79 956.265 1863.56 956.265C1865.34 956.265 1866.77 954.826 1866.77 953.053C1866.77 951.279 1865.34 949.841 1863.56 949.841Z" fill="#94A3B8"/>
<path d="M1875.42 953.038C1875.42 954.811 1876.86 956.25 1878.63 956.25C1878.93 956.25 1879.2 956.207 1879.46 956.134C1878.81 954.099 1878.11 952.093 1877.33 950.131C1876.19 950.626 1875.42 951.73 1875.42 953.038Z" fill="#94A3B8"/>
<path d="M1697.93 965.903C1696.16 965.903 1694.72 967.341 1694.72 969.115C1694.72 970.888 1696.16 972.327 1697.93 972.327C1699.7 972.327 1701.14 970.888 1701.14 969.115C1701.14 967.341 1699.7 965.903 1697.93 965.903Z" fill="#94A3B8"/>
<path d="M1712.99 965.903C1711.21 965.903 1709.77 967.341 1709.77 969.115C1709.77 970.888 1711.21 972.327 1712.99 972.327C1714.76 972.327 1716.2 970.888 1716.2 969.115C1716.2 967.341 1714.76 965.903 1712.99 965.903Z" fill="#94A3B8"/>
<path d="M1728.04 965.903C1726.27 965.903 1724.83 967.341 1724.83 969.115C1724.83 970.888 1726.27 972.327 1728.04 972.327C1729.82 972.327 1731.26 970.888 1731.26 969.115C1731.26 967.341 1729.82 965.903 1728.04 965.903Z" fill="#94A3B8"/>
<path d="M1743.1 965.903C1741.33 965.903 1739.89 967.341 1739.89 969.115C1739.89 970.888 1741.33 972.327 1743.1 972.327C1744.87 972.327 1746.31 970.888 1746.31 969.115C1746.31 967.341 1744.87 965.903 1743.1 965.903Z" fill="#94A3B8"/>
<path d="M1758.16 965.903C1756.39 965.903 1754.95 967.341 1754.95 969.115C1754.95 970.888 1756.39 972.327 1758.16 972.327C1759.93 972.327 1761.37 970.888 1761.37 969.115C1761.37 967.341 1759.93 965.903 1758.16 965.903Z" fill="#94A3B8"/>
<path d="M1773.22 965.903C1771.44 965.903 1770 967.341 1770 969.115C1770 970.888 1771.44 972.327 1773.22 972.327C1774.99 972.327 1776.43 970.888 1776.43 969.115C1776.43 967.341 1774.99 965.903 1773.22 965.903Z" fill="#94A3B8"/>
<path d="M1788.27 965.903C1786.5 965.903 1785.06 967.341 1785.06 969.115C1785.06 970.888 1786.5 972.327 1788.27 972.327C1790.05 972.327 1791.49 970.888 1791.49 969.115C1791.49 967.341 1790.05 965.903 1788.27 965.903Z" fill="#94A3B8"/>
<path d="M1803.33 965.903C1801.56 965.903 1800.12 967.341 1800.12 969.115C1800.12 970.888 1801.56 972.327 1803.33 972.327C1805.11 972.327 1806.54 970.888 1806.54 969.115C1806.54 967.341 1805.11 965.903 1803.33 965.903Z" fill="#94A3B8"/>
<path d="M1818.39 965.903C1816.62 965.903 1815.18 967.341 1815.18 969.115C1815.18 970.888 1816.62 972.327 1818.39 972.327C1820.16 972.327 1821.6 970.888 1821.6 969.115C1821.6 967.341 1820.16 965.903 1818.39 965.903Z" fill="#94A3B8"/>
<path d="M1833.45 965.903C1831.67 965.903 1830.24 967.341 1830.24 969.115C1830.24 970.888 1831.67 972.327 1833.45 972.327C1835.22 972.327 1836.66 970.888 1836.66 969.115C1836.66 967.341 1835.22 965.903 1833.45 965.903Z" fill="#94A3B8"/>
<path d="M1848.51 965.903C1846.73 965.903 1845.29 967.341 1845.29 969.115C1845.29 970.888 1846.73 972.327 1848.51 972.327C1850.28 972.327 1851.72 970.888 1851.72 969.115C1851.72 967.341 1850.28 965.903 1848.51 965.903Z" fill="#94A3B8"/>
<path d="M1863.56 965.903C1861.79 965.903 1860.35 967.341 1860.35 969.115C1860.35 970.888 1861.79 972.327 1863.56 972.327C1865.34 972.327 1866.77 970.888 1866.77 969.115C1866.77 967.341 1865.34 965.903 1863.56 965.903Z" fill="#94A3B8"/>
<path d="M1878.62 965.903C1876.85 965.903 1875.41 967.341 1875.41 969.115C1875.41 970.888 1876.85 972.327 1878.62 972.327C1880.39 972.327 1881.83 970.888 1881.83 969.115C1881.83 967.341 1880.39 965.903 1878.62 965.903Z" fill="#94A3B8"/>
<path d="M1697.93 981.979C1696.16 981.979 1694.72 983.418 1694.72 985.191C1694.72 986.964 1696.16 988.403 1697.93 988.403C1699.7 988.403 1701.14 986.964 1701.14 985.191C1701.14 983.403 1699.7 981.979 1697.93 981.979Z" fill="#94A3B8"/>
<path d="M1712.99 981.979C1711.21 981.979 1709.77 983.418 1709.77 985.191C1709.77 986.964 1711.21 988.403 1712.99 988.403C1714.76 988.403 1716.2 986.964 1716.2 985.191C1716.2 983.403 1714.76 981.979 1712.99 981.979Z" fill="#94A3B8"/>
<path d="M1728.04 988.389C1729.82 988.389 1731.26 986.951 1731.26 985.177C1731.26 983.403 1729.82 981.964 1728.04 981.964C1726.27 981.964 1724.83 983.403 1724.83 985.177C1724.83 986.951 1726.27 988.389 1728.04 988.389Z" fill="#94A3B8"/>
<path d="M1743.1 981.979C1741.33 981.979 1739.89 983.418 1739.89 985.191C1739.89 986.964 1741.33 988.403 1743.1 988.403C1744.87 988.403 1746.31 986.964 1746.31 985.191C1746.31 983.403 1744.87 981.979 1743.1 981.979Z" fill="#94A3B8"/>
<path d="M1758.16 981.979C1756.39 981.979 1754.95 983.418 1754.95 985.191C1754.95 986.964 1756.39 988.403 1758.16 988.403C1759.93 988.403 1761.37 986.964 1761.37 985.191C1761.37 983.403 1759.93 981.979 1758.16 981.979Z" fill="#94A3B8"/>
<path d="M1773.22 981.979C1771.44 981.979 1770 983.418 1770 985.191C1770 986.964 1771.44 988.403 1773.22 988.403C1774.99 988.403 1776.43 986.964 1776.43 985.191C1776.43 983.403 1774.99 981.979 1773.22 981.979Z" fill="#94A3B8"/>
<path d="M1788.27 988.389C1790.05 988.389 1791.49 986.951 1791.49 985.177C1791.49 983.403 1790.05 981.964 1788.27 981.964C1786.5 981.964 1785.06 983.403 1785.06 985.177C1785.06 986.951 1786.5 988.389 1788.27 988.389Z" fill="#94A3B8"/>
<path d="M1803.33 981.979C1801.56 981.979 1800.12 983.418 1800.12 985.191C1800.12 986.964 1801.56 988.403 1803.33 988.403C1805.11 988.403 1806.54 986.964 1806.54 985.191C1806.54 983.403 1805.11 981.979 1803.33 981.979Z" fill="#94A3B8"/>
<path d="M1818.39 981.979C1816.62 981.979 1815.18 983.418 1815.18 985.191C1815.18 986.964 1816.62 988.403 1818.39 988.403C1820.16 988.403 1821.6 986.964 1821.6 985.191C1821.6 983.403 1820.16 981.979 1818.39 981.979Z" fill="#94A3B8"/>
<path d="M1833.45 981.979C1831.67 981.979 1830.24 983.418 1830.24 985.191C1830.24 986.964 1831.67 988.403 1833.45 988.403C1835.22 988.403 1836.66 986.964 1836.66 985.191C1836.66 983.403 1835.22 981.979 1833.45 981.979Z" fill="#94A3B8"/>
<path d="M1848.51 988.389C1850.28 988.389 1851.72 986.951 1851.72 985.177C1851.72 983.403 1850.28 981.964 1848.51 981.964C1846.73 981.964 1845.29 983.403 1845.29 985.177C1845.29 986.951 1846.73 988.389 1848.51 988.389Z" fill="#94A3B8"/>
<path d="M1863.56 981.979C1861.79 981.979 1860.35 983.418 1860.35 985.191C1860.35 986.964 1861.79 988.403 1863.56 988.403C1865.34 988.403 1866.77 986.964 1866.77 985.191C1866.77 983.403 1865.34 981.979 1863.56 981.979Z" fill="#94A3B8"/>
<path d="M1878.62 981.979C1876.85 981.979 1875.41 983.418 1875.41 985.191C1875.41 986.964 1876.85 988.403 1878.62 988.403C1880.39 988.403 1881.83 986.964 1881.83 985.191C1881.83 983.403 1880.39 981.979 1878.62 981.979Z" fill="#94A3B8"/>
<path d="M1697.93 998.041C1696.16 998.041 1694.72 999.48 1694.72 1001.25C1694.72 1003.03 1696.16 1004.47 1697.93 1004.47C1699.7 1004.47 1701.14 1003.03 1701.14 1001.25C1701.14 999.48 1699.7 998.041 1697.93 998.041Z" fill="#94A3B8"/>
<path d="M1712.99 998.041C1711.21 998.041 1709.77 999.48 1709.77 1001.25C1709.77 1003.03 1711.21 1004.47 1712.99 1004.47C1714.76 1004.47 1716.2 1003.03 1716.2 1001.25C1716.2 999.48 1714.76 998.041 1712.99 998.041Z" fill="#94A3B8"/>
<path d="M1728.04 1004.47C1729.82 1004.47 1731.26 1003.03 1731.26 1001.25C1731.26 999.479 1729.82 998.041 1728.04 998.041C1726.27 998.041 1724.83 999.479 1724.83 1001.25C1724.83 1003.03 1726.27 1004.47 1728.04 1004.47Z" fill="#94A3B8"/>
<path d="M1743.1 998.041C1741.33 998.041 1739.89 999.48 1739.89 1001.25C1739.89 1003.03 1741.33 1004.47 1743.1 1004.47C1744.87 1004.47 1746.31 1003.03 1746.31 1001.25C1746.31 999.48 1744.87 998.041 1743.1 998.041Z" fill="#94A3B8"/>
<path d="M1758.16 998.041C1756.39 998.041 1754.95 999.48 1754.95 1001.25C1754.95 1003.03 1756.39 1004.47 1758.16 1004.47C1759.93 1004.47 1761.37 1003.03 1761.37 1001.25C1761.37 999.48 1759.93 998.041 1758.16 998.041Z" fill="#94A3B8"/>
<path d="M1773.22 998.041C1771.44 998.041 1770 999.48 1770 1001.25C1770 1003.03 1771.44 1004.47 1773.22 1004.47C1774.99 1004.47 1776.43 1003.03 1776.43 1001.25C1776.43 999.48 1774.99 998.041 1773.22 998.041Z" fill="#94A3B8"/>
<path d="M1788.27 1004.47C1790.05 1004.47 1791.49 1003.03 1791.49 1001.25C1791.49 999.479 1790.05 998.041 1788.27 998.041C1786.5 998.041 1785.06 999.479 1785.06 1001.25C1785.06 1003.03 1786.5 1004.47 1788.27 1004.47Z" fill="#94A3B8"/>
<path d="M1803.33 998.041C1801.56 998.041 1800.12 999.48 1800.12 1001.25C1800.12 1003.03 1801.56 1004.47 1803.33 1004.47C1805.11 1004.47 1806.54 1003.03 1806.54 1001.25C1806.54 999.48 1805.11 998.041 1803.33 998.041Z" fill="#94A3B8"/>
<path d="M1818.39 998.041C1816.62 998.041 1815.18 999.48 1815.18 1001.25C1815.18 1003.03 1816.62 1004.47 1818.39 1004.47C1820.16 1004.47 1821.6 1003.03 1821.6 1001.25C1821.6 999.48 1820.16 998.041 1818.39 998.041Z" fill="#94A3B8"/>
<path d="M1833.45 998.041C1831.67 998.041 1830.24 999.48 1830.24 1001.25C1830.24 1003.03 1831.67 1004.47 1833.45 1004.47C1835.22 1004.47 1836.66 1003.03 1836.66 1001.25C1836.66 999.48 1835.22 998.041 1833.45 998.041Z" fill="#94A3B8"/>
<path d="M1848.51 1004.47C1850.28 1004.47 1851.72 1003.03 1851.72 1001.25C1851.72 999.479 1850.28 998.041 1848.51 998.041C1846.73 998.041 1845.29 999.479 1845.29 1001.25C1845.29 1003.03 1846.73 1004.47 1848.51 1004.47Z" fill="#94A3B8"/>
<path d="M1863.56 998.041C1861.79 998.041 1860.35 999.48 1860.35 1001.25C1860.35 1003.03 1861.79 1004.47 1863.56 1004.47C1865.34 1004.47 1866.77 1003.03 1866.77 1001.25C1866.77 999.48 1865.34 998.041 1863.56 998.041Z" fill="#94A3B8"/>
<path d="M1878.62 998.041C1876.85 998.041 1875.41 999.48 1875.41 1001.25C1875.41 1003.03 1876.85 1004.47 1878.62 1004.47C1880.39 1004.47 1881.83 1003.03 1881.83 1001.25C1881.83 999.48 1880.39 998.041 1878.62 998.041Z" fill="#94A3B8"/>
<path d="M1701.14 1017.31C1701.14 1015.54 1699.7 1014.1 1697.93 1014.1C1697.64 1014.1 1697.36 1014.15 1697.1 1014.22C1697.75 1016.25 1698.45 1018.26 1699.24 1020.22C1700.36 1019.74 1701.14 1018.62 1701.14 1017.31Z" fill="#94A3B8"/>
<path d="M1712.99 1014.1C1711.21 1014.1 1709.77 1015.54 1709.77 1017.31C1709.77 1019.09 1711.21 1020.53 1712.99 1020.53C1714.76 1020.53 1716.2 1019.09 1716.2 1017.31C1716.2 1015.54 1714.76 1014.1 1712.99 1014.1Z" fill="#94A3B8"/>
<path d="M1728.04 1014.1C1726.27 1014.1 1724.83 1015.54 1724.83 1017.31C1724.83 1019.09 1726.27 1020.53 1728.04 1020.53C1729.82 1020.53 1731.26 1019.09 1731.26 1017.31C1731.26 1015.54 1729.82 1014.1 1728.04 1014.1Z" fill="#94A3B8"/>
<path d="M1743.1 1014.1C1741.33 1014.1 1739.89 1015.54 1739.89 1017.31C1739.89 1019.09 1741.33 1020.53 1743.1 1020.53C1744.87 1020.53 1746.31 1019.09 1746.31 1017.31C1746.31 1015.54 1744.87 1014.1 1743.1 1014.1Z" fill="#94A3B8"/>
<path d="M1758.16 1014.1C1756.39 1014.1 1754.95 1015.54 1754.95 1017.31C1754.95 1019.09 1756.39 1020.53 1758.16 1020.53C1759.93 1020.53 1761.37 1019.09 1761.37 1017.31C1761.37 1015.54 1759.93 1014.1 1758.16 1014.1Z" fill="#94A3B8"/>
<path d="M1773.22 1014.1C1771.44 1014.1 1770 1015.54 1770 1017.31C1770 1019.09 1771.44 1020.53 1773.22 1020.53C1774.99 1020.53 1776.43 1019.09 1776.43 1017.31C1776.43 1015.54 1774.99 1014.1 1773.22 1014.1Z" fill="#94A3B8"/>
<path d="M1788.27 1014.1C1786.5 1014.1 1785.06 1015.54 1785.06 1017.31C1785.06 1019.09 1786.5 1020.53 1788.27 1020.53C1790.05 1020.53 1791.49 1019.09 1791.49 1017.31C1791.49 1015.54 1790.05 1014.1 1788.27 1014.1Z" fill="#94A3B8"/>
<path d="M1803.33 1014.1C1801.56 1014.1 1800.12 1015.54 1800.12 1017.31C1800.12 1019.09 1801.56 1020.53 1803.33 1020.53C1805.11 1020.53 1806.54 1019.09 1806.54 1017.31C1806.54 1015.54 1805.11 1014.1 1803.33 1014.1Z" fill="#94A3B8"/>
<path d="M1818.39 1014.1C1816.62 1014.1 1815.18 1015.54 1815.18 1017.31C1815.18 1019.09 1816.62 1020.53 1818.39 1020.53C1820.16 1020.53 1821.6 1019.09 1821.6 1017.31C1821.6 1015.54 1820.16 1014.1 1818.39 1014.1Z" fill="#94A3B8"/>
<path d="M1833.45 1014.1C1831.67 1014.1 1830.24 1015.54 1830.24 1017.31C1830.24 1019.09 1831.67 1020.53 1833.45 1020.53C1835.22 1020.53 1836.66 1019.09 1836.66 1017.31C1836.66 1015.54 1835.22 1014.1 1833.45 1014.1Z" fill="#94A3B8"/>
<path d="M1848.51 1014.1C1846.73 1014.1 1845.29 1015.54 1845.29 1017.31C1845.29 1019.09 1846.73 1020.53 1848.51 1020.53C1850.28 1020.53 1851.72 1019.09 1851.72 1017.31C1851.72 1015.54 1850.28 1014.1 1848.51 1014.1Z" fill="#94A3B8"/>
<path d="M1863.56 1014.1C1861.79 1014.1 1860.35 1015.54 1860.35 1017.31C1860.35 1019.09 1861.79 1020.53 1863.56 1020.53C1865.34 1020.53 1866.77 1019.09 1866.77 1017.31C1866.77 1015.54 1865.34 1014.1 1863.56 1014.1Z" fill="#94A3B8"/>
<path d="M1875.42 1017.31C1875.42 1018.62 1876.21 1019.74 1877.33 1020.24C1878.1 1018.26 1878.81 1016.25 1879.46 1014.23C1879.2 1014.16 1878.93 1014.12 1878.63 1014.12C1876.85 1014.1 1875.42 1015.54 1875.42 1017.31Z" fill="#94A3B8"/>
<path d="M1712.99 1030.18C1711.21 1030.18 1709.77 1031.62 1709.77 1033.39C1709.77 1035.16 1711.21 1036.6 1712.99 1036.6C1714.76 1036.6 1716.2 1035.16 1716.2 1033.39C1716.2 1031.62 1714.76 1030.18 1712.99 1030.18Z" fill="#94A3B8"/>
<path d="M1728.04 1036.6C1729.82 1036.6 1731.26 1035.17 1731.26 1033.39C1731.26 1031.62 1729.82 1030.18 1728.04 1030.18C1726.27 1030.18 1724.83 1031.62 1724.83 1033.39C1724.83 1035.17 1726.27 1036.6 1728.04 1036.6Z" fill="#94A3B8"/>
<path d="M1743.1 1030.18C1741.33 1030.18 1739.89 1031.62 1739.89 1033.39C1739.89 1035.16 1741.33 1036.6 1743.1 1036.6C1744.87 1036.6 1746.31 1035.16 1746.31 1033.39C1746.31 1031.62 1744.87 1030.18 1743.1 1030.18Z" fill="#94A3B8"/>
<path d="M1758.16 1030.18C1756.39 1030.18 1754.95 1031.62 1754.95 1033.39C1754.95 1035.16 1756.39 1036.6 1758.16 1036.6C1759.93 1036.6 1761.37 1035.16 1761.37 1033.39C1761.37 1031.62 1759.93 1030.18 1758.16 1030.18Z" fill="#94A3B8"/>
<path d="M1773.22 1030.18C1771.44 1030.18 1770 1031.62 1770 1033.39C1770 1035.16 1771.44 1036.6 1773.22 1036.6C1774.99 1036.6 1776.43 1035.16 1776.43 1033.39C1776.43 1031.62 1774.99 1030.18 1773.22 1030.18Z" fill="#94A3B8"/>
<path d="M1788.27 1036.6C1790.05 1036.6 1791.49 1035.17 1791.49 1033.39C1791.49 1031.62 1790.05 1030.18 1788.27 1030.18C1786.5 1030.18 1785.06 1031.62 1785.06 1033.39C1785.06 1035.17 1786.5 1036.6 1788.27 1036.6Z" fill="#94A3B8"/>
<path d="M1803.33 1030.18C1801.56 1030.18 1800.12 1031.62 1800.12 1033.39C1800.12 1035.16 1801.56 1036.6 1803.33 1036.6C1805.11 1036.6 1806.54 1035.16 1806.54 1033.39C1806.54 1031.62 1805.11 1030.18 1803.33 1030.18Z" fill="#94A3B8"/>
<path d="M1818.39 1030.18C1816.62 1030.18 1815.18 1031.62 1815.18 1033.39C1815.18 1035.16 1816.62 1036.6 1818.39 1036.6C1820.16 1036.6 1821.6 1035.16 1821.6 1033.39C1821.6 1031.62 1820.16 1030.18 1818.39 1030.18Z" fill="#94A3B8"/>
<path d="M1833.45 1030.18C1831.67 1030.18 1830.24 1031.62 1830.24 1033.39C1830.24 1035.16 1831.67 1036.6 1833.45 1036.6C1835.22 1036.6 1836.66 1035.16 1836.66 1033.39C1836.66 1031.62 1835.22 1030.18 1833.45 1030.18Z" fill="#94A3B8"/>
<path d="M1848.51 1036.6C1850.28 1036.6 1851.72 1035.17 1851.72 1033.39C1851.72 1031.62 1850.28 1030.18 1848.51 1030.18C1846.73 1030.18 1845.29 1031.62 1845.29 1033.39C1845.29 1035.17 1846.73 1036.6 1848.51 1036.6Z" fill="#94A3B8"/>
<path d="M1863.56 1030.18C1861.79 1030.18 1860.35 1031.62 1860.35 1033.39C1860.35 1035.16 1861.79 1036.6 1863.56 1036.6C1865.34 1036.6 1866.77 1035.16 1866.77 1033.39C1866.77 1031.62 1865.34 1030.18 1863.56 1030.18Z" fill="#94A3B8"/>
<path d="M1728.04 1046.24C1726.27 1046.24 1724.83 1047.68 1724.83 1049.45C1724.83 1051.23 1726.27 1052.67 1728.04 1052.67C1729.82 1052.67 1731.26 1051.23 1731.26 1049.45C1731.26 1047.68 1729.82 1046.24 1728.04 1046.24Z" fill="#94A3B8"/>
<path d="M1743.1 1046.24C1741.33 1046.24 1739.89 1047.68 1739.89 1049.45C1739.89 1051.23 1741.33 1052.67 1743.1 1052.67C1744.87 1052.67 1746.31 1051.23 1746.31 1049.45C1746.31 1047.68 1744.87 1046.24 1743.1 1046.24Z" fill="#94A3B8"/>
<path d="M1758.16 1046.24C1756.39 1046.24 1754.95 1047.68 1754.95 1049.45C1754.95 1051.23 1756.39 1052.67 1758.16 1052.67C1759.93 1052.67 1761.37 1051.23 1761.37 1049.45C1761.37 1047.68 1759.93 1046.24 1758.16 1046.24Z" fill="#94A3B8"/>
<path d="M1773.22 1046.24C1771.44 1046.24 1770 1047.68 1770 1049.45C1770 1051.23 1771.44 1052.67 1773.22 1052.67C1774.99 1052.67 1776.43 1051.23 1776.43 1049.45C1776.43 1047.68 1774.99 1046.24 1773.22 1046.24Z" fill="#94A3B8"/>
<path d="M1788.27 1046.24C1786.5 1046.24 1785.06 1047.68 1785.06 1049.45C1785.06 1051.23 1786.5 1052.67 1788.27 1052.67C1790.05 1052.67 1791.49 1051.23 1791.49 1049.45C1791.49 1047.68 1790.05 1046.24 1788.27 1046.24Z" fill="#94A3B8"/>
<path d="M1803.33 1046.24C1801.56 1046.24 1800.12 1047.68 1800.12 1049.45C1800.12 1051.23 1801.56 1052.67 1803.33 1052.67C1805.11 1052.67 1806.54 1051.23 1806.54 1049.45C1806.54 1047.68 1805.11 1046.24 1803.33 1046.24Z" fill="#94A3B8"/>
<path d="M1818.39 1046.24C1816.62 1046.24 1815.18 1047.68 1815.18 1049.45C1815.18 1051.23 1816.62 1052.67 1818.39 1052.67C1820.16 1052.67 1821.6 1051.23 1821.6 1049.45C1821.6 1047.68 1820.16 1046.24 1818.39 1046.24Z" fill="#94A3B8"/>
<path d="M1833.45 1046.24C1831.67 1046.24 1830.24 1047.68 1830.24 1049.45C1830.24 1051.23 1831.67 1052.67 1833.45 1052.67C1835.22 1052.67 1836.66 1051.23 1836.66 1049.45C1836.66 1047.68 1835.22 1046.24 1833.45 1046.24Z" fill="#94A3B8"/>
<path d="M1848.51 1046.24C1846.73 1046.24 1845.29 1047.68 1845.29 1049.45C1845.29 1051.23 1846.73 1052.67 1848.51 1052.67C1850.28 1052.67 1851.72 1051.23 1851.72 1049.45C1851.72 1047.68 1850.28 1046.24 1848.51 1046.24Z" fill="#94A3B8"/>
<path d="M1743.1 1062.32C1741.33 1062.32 1739.89 1063.76 1739.89 1065.53C1739.89 1067.3 1741.33 1068.74 1743.1 1068.74C1744.87 1068.74 1746.31 1067.3 1746.31 1065.53C1746.31 1063.76 1744.87 1062.32 1743.1 1062.32Z" fill="#94A3B8"/>
<path d="M1758.16 1062.32C1756.39 1062.32 1754.95 1063.76 1754.95 1065.53C1754.95 1067.3 1756.39 1068.74 1758.16 1068.74C1759.93 1068.74 1761.37 1067.3 1761.37 1065.53C1761.37 1063.76 1759.93 1062.32 1758.16 1062.32Z" fill="#94A3B8"/>
<path d="M1773.22 1062.32C1771.44 1062.32 1770 1063.76 1770 1065.53C1770 1067.3 1771.44 1068.74 1773.22 1068.74C1774.99 1068.74 1776.43 1067.3 1776.43 1065.53C1776.43 1063.76 1774.99 1062.32 1773.22 1062.32Z" fill="#94A3B8"/>
<path d="M1788.27 1062.32C1786.5 1062.32 1785.06 1063.76 1785.06 1065.53C1785.06 1067.3 1786.5 1068.74 1788.27 1068.74C1790.05 1068.74 1791.49 1067.3 1791.49 1065.53C1791.49 1063.76 1790.05 1062.32 1788.27 1062.32Z" fill="#94A3B8"/>
<path d="M1803.33 1062.32C1801.56 1062.32 1800.12 1063.76 1800.12 1065.53C1800.12 1067.3 1801.56 1068.74 1803.33 1068.74C1805.11 1068.74 1806.54 1067.3 1806.54 1065.53C1806.54 1063.76 1805.11 1062.32 1803.33 1062.32Z" fill="#94A3B8"/>
<path d="M1818.39 1062.32C1816.62 1062.32 1815.18 1063.76 1815.18 1065.53C1815.18 1067.3 1816.62 1068.74 1818.39 1068.74C1820.16 1068.74 1821.6 1067.3 1821.6 1065.53C1821.6 1063.76 1820.16 1062.32 1818.39 1062.32Z" fill="#94A3B8"/>
<path d="M1833.45 1062.32C1831.67 1062.32 1830.24 1063.76 1830.24 1065.53C1830.24 1067.3 1831.67 1068.74 1833.45 1068.74C1835.22 1068.74 1836.66 1067.3 1836.66 1065.53C1836.66 1063.76 1835.22 1062.32 1833.45 1062.32Z" fill="#94A3B8"/>
<path d="M1773.22 1078.38C1772.34 1078.38 1771.56 1078.73 1770.99 1079.28C1772.66 1079.59 1774.34 1079.85 1776.04 1080.07C1775.48 1079.08 1774.44 1078.38 1773.22 1078.38Z" fill="#94A3B8"/>
<path d="M1788.27 1078.38C1786.78 1078.38 1785.53 1079.41 1785.18 1080.79C1786.21 1080.82 1787.24 1080.85 1788.27 1080.85C1789.31 1080.85 1790.34 1080.82 1791.37 1080.79C1791.02 1079.41 1789.77 1078.38 1788.27 1078.38Z" fill="#94A3B8"/>
<path d="M1800.53 1080.08C1802.23 1079.86 1803.9 1079.6 1805.57 1079.3C1804.99 1078.74 1804.2 1078.39 1803.35 1078.39C1802.11 1078.38 1801.06 1079.08 1800.53 1080.08Z" fill="#94A3B8"/>
<path d="M1015.53 1029.05H993.588V1007.81H972.354V985.864H1015.53V1029.05Z" fill="#020617"/>
<path d="M1046.99 997.581H1025.03V976.346H1003.82V954.4H1046.99V997.581Z" fill="#F97316"/>
<path d="M1078.44 966.133H1056.5V944.897H1035.26V922.935H1078.44V966.133Z" fill="#1D4ED8"/>
<path d="M1872.05 549.368C1871.85 549.368 1871.68 549.289 1871.52 549.151L1824.29 501.204C1824.15 501.065 1824.07 500.867 1824.07 500.669C1824.07 500.471 1824.15 500.273 1824.29 500.134L1871.52 452.187C1871.79 451.91 1872.28 451.91 1872.55 452.187L1919.79 500.134C1919.92 500.273 1920 500.471 1920 500.669C1920 500.867 1919.92 501.065 1919.79 501.204L1880.59 540.991C1880.3 541.288 1879.85 541.288 1879.56 540.991L1840.36 501.204C1840.07 500.907 1840.07 500.451 1840.36 500.154L1871.52 468.526C1871.79 468.249 1872.28 468.249 1872.55 468.526L1903.71 500.154C1904 500.451 1904 500.907 1903.71 501.204L1880.42 524.89C1880.14 525.167 1879.65 525.167 1879.38 524.89L1871.54 516.929L1856.07 501.224C1855.78 500.926 1855.78 500.471 1856.07 500.174L1871.56 484.449C1871.83 484.172 1872.32 484.172 1872.59 484.449L1888.06 500.174C1888.36 500.471 1888.36 500.926 1888.06 501.224L1873.1 516.414L1879.91 523.325L1902.19 500.709L1872.07 470.13L1841.94 500.709L1880.1 539.446L1918.26 500.709L1872.07 453.811L1825.85 500.689L1872.57 548.121C1872.87 548.418 1872.87 548.873 1872.57 549.17C1872.42 549.309 1872.24 549.368 1872.05 549.368ZM1857.61 500.689L1872.07 515.364L1886.5 500.689L1872.07 486.014L1857.61 500.689Z" fill="#1D4ED8"/>
<path d="M743.607 258.655V292.984H709.281L743.607 258.655Z" fill="#1D4ED8"/>
<path d="M777.737 258.655V292.984H743.41L777.737 258.655Z" fill="#F97316"/>
<path d="M811.775 258.655V292.984H777.449L811.775 258.655Z" fill="#FACC15"/>
<path d="M845.905 258.655V292.984H811.578L845.905 258.655Z" fill="#FACC15"/>
<path d="M777.646 292.984V327.314H743.304L777.646 292.984Z" fill="#171717"/>
<path d="M811.775 292.984V327.314H777.449L811.775 292.984Z" fill="#1D4ED8"/>
<path d="M845.799 292.984V327.314H811.472L845.799 292.984Z" fill="#F97316"/>
<path d="M460.756 417.094L470.16 426.498L453.794 442.88L470.16 459.247L460.756 468.652L444.376 452.285L427.996 468.652L418.592 459.247L434.972 442.88L418.592 426.498L427.996 417.094L444.376 433.461L460.756 417.094ZM444.376 435.583L427.996 419.216L420.699 426.513L437.08 442.895L420.699 459.262L427.996 466.559L444.376 450.192L460.756 466.559L468.053 459.262L451.687 442.895L468.053 426.513L460.756 419.216L444.376 435.583Z" fill="#F97316"/>
<path d="M465.117 417.094L474.521 426.498L458.155 442.88L474.521 459.247L465.117 468.652L448.736 452.285L432.356 468.652L422.952 459.247L439.333 442.88L422.952 426.498L432.356 417.094L448.736 433.461L465.117 417.094ZM448.736 435.583L432.356 419.216L425.06 426.513L441.44 442.895L425.06 459.262L432.356 466.559L448.736 450.192L465.117 466.559L472.413 459.262L456.047 442.895L472.413 426.513L465.117 419.216L448.736 435.583Z" fill="#1D4ED8"/>
<path d="M942.015 648.799L918.582 639.625L895.149 648.799L871.716 639.625L861.003 643.817L858.986 638.658L871.716 633.675L895.149 642.85L918.582 633.675L942.015 642.85L965.448 633.675L978.168 638.658L976.15 643.817L965.448 639.625L942.015 648.799Z" fill="#171717"/>
<path d="M942.015 663.923L918.582 654.749L895.149 663.923L871.716 654.749L861.003 658.941L858.986 653.782L871.716 648.799L895.149 657.974L918.582 648.799L942.015 657.974L965.448 648.799L978.168 653.782L976.15 658.941L965.448 654.749L942.015 663.923Z" fill="#171717"/>
<path d="M406.717 202.751L373.971 189.93L341.225 202.751L308.479 189.93L293.509 195.788L290.689 188.579L308.479 181.616L341.225 194.437L373.971 181.616L406.717 194.437L439.463 181.616L457.239 188.579L454.419 195.788L439.463 189.93L406.717 202.751Z" fill="#64748B"/>
<path d="M406.717 223.886L373.971 211.065L341.225 223.886L308.479 211.065L293.509 216.923L290.689 209.714L308.479 202.751L341.225 215.571L373.971 202.751L406.717 215.571L439.463 202.751L457.239 209.714L454.419 216.923L439.463 211.065L406.717 223.886Z" fill="#64748B"/>
<path d="M1143.32 101.67L1129.73 105.318L1126.09 118.909L1136.04 128.852L1149.63 125.218L1153.28 111.627L1143.32 101.67Z" fill="#171717"/>
<path d="M1111.89 167.182L1121.84 177.125L1135.43 173.491L1139.06 159.9L1129.12 149.943L1115.53 153.591L1111.89 167.182Z" fill="#FACC15"/>
<path d="M1132.71 146.353L1142.65 156.309L1156.26 152.661L1159.89 139.07L1149.95 129.113L1136.35 132.762L1132.71 146.353Z" fill="#1D4ED8"/>
<path d="M1153.54 125.523L1163.48 135.48L1177.07 131.831L1180.72 118.241L1170.76 108.284L1157.17 111.932L1153.54 125.523Z" fill="#F97316"/>
<path d="M1460.31 1023.09L1463.96 1009.5L1477.55 1005.85L1487.49 1015.81L1483.86 1029.4L1470.27 1033.05L1460.31 1023.09Z" fill="#171717"/>
<path d="M1525.82 991.653L1535.76 1001.61L1532.13 1015.2L1518.54 1018.83L1508.58 1008.89L1512.23 995.301L1525.82 991.653Z" fill="#FACC15"/>
<path d="M1504.99 1012.48L1514.95 1022.42L1511.3 1036.03L1497.71 1039.66L1487.75 1029.72L1491.4 1016.12L1504.99 1012.48Z" fill="#1D4ED8"/>
<path d="M1484.16 1033.31L1494.12 1043.25L1490.47 1056.84L1476.88 1060.49L1466.93 1050.54L1470.57 1036.95L1484.16 1033.31Z" fill="#F97316"/>
<path d="M1391.83 842.611C1386.83 842.611 1384.39 838.367 1382.24 834.616C1380.21 831.084 1378.46 828.032 1375.09 828.032C1371.72 828.032 1369.96 831.084 1367.94 834.616C1365.79 838.367 1363.35 842.611 1358.35 842.611C1353.35 842.611 1350.9 838.367 1348.75 834.616C1346.72 831.084 1344.97 828.032 1341.6 828.032C1338.23 828.032 1336.47 831.084 1334.45 834.616C1332.3 838.367 1329.86 842.611 1324.86 842.611C1319.86 842.611 1317.42 838.367 1315.27 834.616C1313.23 831.084 1311.49 828.032 1308.11 828.032C1304.74 828.032 1302.98 831.084 1300.96 834.616C1298.81 838.367 1296.37 842.611 1291.37 842.611C1286.37 842.611 1283.93 838.367 1281.78 834.616C1279.74 831.084 1278 828.032 1274.63 828.032C1273.86 828.032 1273.22 827.407 1273.22 826.622C1273.22 825.851 1273.84 825.212 1274.63 825.212C1279.63 825.212 1282.07 829.456 1284.22 833.206C1286.25 836.739 1288 839.791 1291.37 839.791C1294.74 839.791 1296.5 836.739 1298.52 833.206C1300.67 829.456 1303.11 825.212 1308.11 825.212C1313.11 825.212 1315.56 829.456 1317.71 833.206C1319.74 836.739 1321.49 839.791 1324.86 839.791C1328.23 839.791 1329.99 836.739 1332.01 833.206C1334.16 829.456 1336.6 825.212 1341.6 825.212C1346.6 825.212 1349.04 829.456 1351.19 833.206C1353.23 836.739 1354.97 839.791 1358.35 839.791C1361.72 839.791 1363.48 836.739 1365.5 833.206C1367.65 829.456 1370.09 825.212 1375.09 825.212C1380.09 825.212 1382.53 829.456 1384.68 833.206C1386.72 836.739 1388.46 839.791 1391.83 839.791C1395.2 839.791 1396.96 836.739 1398.98 833.206C1401.13 829.456 1403.58 825.212 1408.58 825.212C1409.35 825.212 1409.99 825.837 1409.99 826.622C1409.99 827.392 1409.36 828.032 1408.58 828.032C1405.2 828.032 1403.45 831.084 1401.43 834.616C1399.27 838.367 1396.83 842.611 1391.83 842.611Z" fill="#1D4ED8"/>
<path d="M1391.83 819.688C1386.83 819.688 1384.39 815.444 1382.24 811.694C1380.21 808.161 1378.46 805.109 1375.09 805.109C1371.72 805.109 1369.96 808.161 1367.94 811.694C1365.79 815.444 1363.35 819.688 1358.35 819.688C1353.35 819.688 1350.9 815.444 1348.75 811.694C1346.72 808.161 1344.97 805.109 1341.6 805.109C1338.23 805.109 1336.47 808.161 1334.45 811.694C1332.3 815.444 1329.86 819.688 1324.86 819.688C1319.86 819.688 1317.42 815.444 1315.27 811.694C1313.23 808.161 1311.49 805.109 1308.11 805.109C1304.74 805.109 1302.98 808.161 1300.96 811.694C1298.81 815.444 1296.37 819.688 1291.37 819.688C1286.37 819.688 1283.93 815.444 1281.78 811.694C1279.74 808.161 1278 805.109 1274.63 805.109C1273.86 805.109 1273.22 804.484 1273.22 803.699C1273.22 802.914 1273.84 802.289 1274.63 802.289C1279.63 802.289 1282.07 806.533 1284.22 810.284C1286.25 813.816 1288 816.868 1291.37 816.868C1294.74 816.868 1296.5 813.816 1298.52 810.284C1300.67 806.533 1303.11 802.289 1308.11 802.289C1313.11 802.289 1315.56 806.533 1317.71 810.284C1319.74 813.816 1321.49 816.868 1324.86 816.868C1328.23 816.868 1329.99 813.816 1332.01 810.284C1334.16 806.533 1336.6 802.289 1341.6 802.289C1346.6 802.289 1349.04 806.533 1351.19 810.284C1353.23 813.816 1354.97 816.868 1358.35 816.868C1361.72 816.868 1363.48 813.816 1365.5 810.284C1367.65 806.533 1370.09 802.289 1375.09 802.289C1380.09 802.289 1382.53 806.533 1384.68 810.284C1386.72 813.816 1388.46 816.868 1391.83 816.868C1395.2 816.868 1396.96 813.816 1398.98 810.284C1401.13 806.533 1403.58 802.289 1408.58 802.289C1409.35 802.289 1409.99 802.914 1409.99 803.699C1409.99 804.484 1409.36 805.109 1408.58 805.109C1405.2 805.109 1403.45 808.161 1401.43 811.694C1399.27 815.444 1396.83 819.688 1391.83 819.688Z" fill="#1D4ED8"/>
<path d="M261.62 714.484C256.326 714.484 252.037 710.194 252.037 704.9C252.037 699.606 256.326 695.316 261.62 695.316C266.914 695.316 271.203 699.606 271.203 704.9C271.203 710.181 266.914 714.484 261.62 714.484ZM261.62 686.004C251.182 686.004 242.725 694.461 242.725 704.9C242.725 715.339 251.182 723.796 261.62 723.796C272.058 723.796 280.515 715.339 280.515 704.9C280.515 694.461 272.045 686.004 261.62 686.004Z" fill="#CBD5E1"/>
<path d="M353.187 1061.89C347.893 1061.89 343.604 1057.6 343.604 1052.3C343.604 1047.01 347.893 1042.72 353.187 1042.72C358.481 1042.72 362.77 1047.01 362.77 1052.3C362.77 1057.58 358.481 1061.89 353.187 1061.89ZM353.187 1033.41C342.749 1033.41 334.292 1041.86 334.292 1052.3C334.292 1062.74 342.749 1071.2 353.187 1071.2C363.625 1071.2 372.082 1062.74 372.082 1052.3C372.082 1041.86 363.612 1033.41 353.187 1033.41Z" fill="#CBD5E1"/>
<path d="M527.6 941.24C522.307 941.24 518.017 936.951 518.017 931.657C518.017 926.362 522.307 922.073 527.6 922.073C532.894 922.073 537.183 926.362 537.183 931.657C537.183 936.937 532.894 941.24 527.6 941.24ZM527.6 912.76C517.162 912.76 508.706 921.217 508.706 931.657C508.706 942.096 517.162 950.553 527.6 950.553C538.039 950.553 546.495 942.096 546.495 931.657C546.495 921.217 538.025 912.76 527.6 912.76Z" fill="#CBD5E1"/>
<path d="M1254.32 1027C1249.03 1027 1244.74 1022.71 1244.74 1017.42C1244.74 1012.12 1249.03 1007.83 1254.32 1007.83C1259.62 1007.83 1263.91 1012.12 1263.91 1017.42C1263.91 1022.7 1259.62 1027 1254.32 1027ZM1254.32 998.521C1243.88 998.521 1235.43 1006.98 1235.43 1017.42C1235.43 1027.86 1243.88 1036.31 1254.32 1036.31C1264.76 1036.31 1273.22 1027.86 1273.22 1017.42C1273.22 1006.98 1264.75 998.521 1254.32 998.521Z" fill="#CBD5E1"/>
<path d="M1039.21 781.348C1033.92 781.348 1029.63 777.058 1029.63 771.764C1029.63 766.47 1033.92 762.18 1039.21 762.18C1044.51 762.18 1048.8 766.47 1048.8 771.764C1048.8 777.045 1044.51 781.348 1039.21 781.348ZM1039.21 752.868C1028.77 752.868 1020.32 761.325 1020.32 771.764C1020.32 782.203 1028.77 790.661 1039.21 790.661C1049.65 790.661 1058.11 782.203 1058.11 771.764C1058.11 761.325 1049.64 752.868 1039.21 752.868Z" fill="#CBD5E1"/>
<path d="M1290.66 542.963C1285.36 542.963 1281.08 538.673 1281.08 533.379C1281.08 528.085 1285.36 523.795 1290.66 523.795C1295.95 523.795 1300.24 528.085 1300.24 533.379C1300.24 538.66 1295.95 542.963 1290.66 542.963ZM1290.66 514.483C1280.22 514.483 1271.76 522.94 1271.76 533.379C1271.76 543.818 1280.22 552.276 1290.66 552.276C1301.1 552.276 1309.55 543.818 1309.55 533.379C1309.55 522.94 1301.08 514.483 1290.66 514.483Z" fill="#CBD5E1"/>
<path d="M1079.91 295.857C1074.62 295.857 1070.33 291.567 1070.33 286.273C1070.33 280.979 1074.62 276.689 1079.91 276.689C1085.2 276.689 1089.49 280.979 1089.49 286.273C1089.49 291.554 1085.2 295.857 1079.91 295.857ZM1079.91 267.377C1069.47 267.377 1061.01 275.834 1061.01 286.273C1061.01 296.712 1069.47 305.169 1079.91 305.169C1090.35 305.169 1098.8 296.712 1098.8 286.273C1098.8 275.834 1090.33 267.377 1079.91 267.377Z" fill="#CBD5E1"/>
<path d="M575.564 447.028C570.27 447.028 565.981 442.738 565.981 437.444C565.981 432.15 570.27 427.86 575.564 427.86C580.858 427.86 585.147 432.15 585.147 437.444C585.147 442.724 580.858 447.028 575.564 447.028ZM575.564 418.547C565.126 418.547 556.669 427.005 556.669 437.444C556.669 447.883 565.126 456.34 575.564 456.34C586.002 456.34 594.459 447.883 594.459 437.444C594.459 427.005 585.989 418.547 575.564 418.547Z" fill="#CBD5E1"/>
<path d="M809.569 119.975C804.275 119.975 799.985 115.686 799.985 110.391C799.985 105.097 804.275 100.807 809.569 100.807C814.862 100.807 819.152 105.097 819.152 110.391C819.152 115.672 814.862 119.975 809.569 119.975ZM809.569 91.495C799.13 91.495 790.674 99.9522 790.674 110.391C790.674 120.83 799.13 129.288 809.569 129.288C820.007 129.288 828.463 120.83 828.463 110.391C828.463 99.9522 819.993 91.495 809.569 91.495Z" fill="#CBD5E1"/>
<path d="M353.187 29.3308C347.893 29.3308 343.604 25.0411 343.604 19.7469C343.604 14.4527 347.893 10.163 353.187 10.163C358.481 10.163 362.77 14.4527 362.77 19.7469C362.77 25.0276 358.481 29.3308 353.187 29.3308ZM353.187 0.850525C342.749 0.850525 334.292 9.30774 334.292 19.7469C334.292 30.1861 342.749 38.6433 353.187 38.6433C363.625 38.6433 372.082 30.1861 372.082 19.7469C372.082 9.30774 363.612 0.850525 353.187 0.850525Z" fill="#CBD5E1"/>
<path d="M56.6843 380.164C51.3905 380.164 47.1012 375.874 47.1012 370.58C47.1012 365.286 51.3905 360.996 56.6843 360.996C61.9781 360.996 66.2675 365.286 66.2675 370.58C66.2675 375.86 61.9781 380.164 56.6843 380.164ZM56.6843 351.683C46.2461 351.683 37.7896 360.141 37.7896 370.58C37.7896 381.019 46.2461 389.476 56.6843 389.476C67.1226 389.476 75.5791 381.019 75.5791 370.58C75.5791 360.141 67.109 351.683 56.6843 351.683Z" fill="#CBD5E1"/>
<path d="M18.8948 810.419C13.601 810.419 9.31165 806.13 9.31165 800.836C9.31165 795.541 13.601 791.252 18.8948 791.252C24.1886 791.252 28.4779 795.541 28.4779 800.836C28.4779 806.116 24.1886 810.419 18.8948 810.419ZM18.8948 781.939C8.4565 781.939 0 790.396 0 800.836C0 811.275 8.4565 819.732 18.8948 819.732C29.3331 819.732 37.7896 811.275 37.7896 800.836C37.7896 790.396 29.3195 781.939 18.8948 781.939Z" fill="#CBD5E1"/>
<path d="M1004.33 51.6576C999.036 51.6576 994.747 47.3679 994.747 42.0737C994.747 36.7794 999.036 32.4897 1004.33 32.4897C1009.62 32.4897 1013.91 36.7794 1013.91 42.0737C1013.91 47.3543 1009.62 51.6576 1004.33 51.6576ZM1004.33 23.1773C993.892 23.1773 985.435 31.6345 985.435 42.0737C985.435 52.5128 993.892 60.97 1004.33 60.97C1014.77 60.97 1023.22 52.5128 1023.22 42.0737C1023.22 31.6345 1014.75 23.1773 1004.33 23.1773Z" fill="#CBD5E1"/>
<path d="M1517.4 156.314C1512.1 156.314 1507.81 152.025 1507.81 146.73C1507.81 141.436 1512.1 137.147 1517.4 137.147C1522.69 137.147 1526.98 141.436 1526.98 146.73C1526.98 152.011 1522.69 156.314 1517.4 156.314ZM1517.4 127.834C1506.96 127.834 1498.5 136.291 1498.5 146.73C1498.5 157.17 1506.96 165.627 1517.4 165.627C1527.83 165.627 1536.29 157.17 1536.29 146.73C1536.29 136.291 1527.82 127.834 1517.4 127.834Z" fill="#CBD5E1"/>
<path d="M1578.44 631.631C1573.15 631.631 1568.86 627.341 1568.86 622.047C1568.86 616.753 1573.15 612.463 1578.44 612.463C1583.73 612.463 1588.02 616.753 1588.02 622.047C1588.02 627.327 1583.73 631.631 1578.44 631.631ZM1578.44 603.15C1568 603.15 1559.55 611.608 1559.55 622.047C1559.55 632.486 1568 640.943 1578.44 640.943C1588.88 640.943 1597.34 632.486 1597.34 622.047C1597.34 611.608 1588.87 603.15 1578.44 603.15Z" fill="#CBD5E1"/>
<path d="M1844.42 776.987C1839.13 776.987 1834.84 772.698 1834.84 767.403C1834.84 762.109 1839.13 757.82 1844.42 757.82C1849.71 757.82 1854 762.109 1854 767.403C1854 772.684 1849.71 776.987 1844.42 776.987ZM1844.42 748.507C1833.98 748.507 1825.53 756.964 1825.53 767.403C1825.53 777.843 1833.98 786.3 1844.42 786.3C1854.86 786.3 1863.32 777.843 1863.32 767.403C1863.32 756.964 1854.85 748.507 1844.42 748.507Z" fill="#CBD5E1"/>
<path d="M1819.71 351.092C1814.42 351.092 1810.13 346.803 1810.13 341.508C1810.13 336.214 1814.42 331.924 1819.71 331.924C1825.01 331.924 1829.3 336.214 1829.3 341.508C1829.3 346.789 1825.01 351.092 1819.71 351.092ZM1819.71 322.612C1809.27 322.612 1800.82 331.069 1800.82 341.508C1800.82 351.948 1809.27 360.405 1819.71 360.405C1830.15 360.405 1838.61 351.948 1838.61 341.508C1838.61 331.069 1830.14 322.612 1819.71 322.612Z" fill="#CBD5E1"/>
<path d="M1860.41 32.7612C1855.12 32.7612 1850.83 28.4716 1850.83 23.1773C1850.83 17.8831 1855.12 13.5934 1860.41 13.5934C1865.7 13.5934 1869.99 17.8831 1869.99 23.1773C1869.99 28.458 1865.7 32.7612 1860.41 32.7612ZM1860.41 4.28094C1849.97 4.28094 1841.51 12.7382 1841.51 23.1773C1841.51 33.6165 1849.97 42.0737 1860.41 42.0737C1870.85 42.0737 1879.3 33.6165 1879.3 23.1773C1879.3 12.7382 1870.83 4.28094 1860.41 4.28094Z" fill="#CBD5E1"/>
<path d="M466.352 555.183L452.762 558.831L449.114 572.422L459.07 582.364L472.66 578.731L476.308 565.14L466.352 555.183Z" fill="#171717"/>
<path d="M455.742 599.865L465.684 609.822L479.288 606.174L482.921 592.583L472.98 582.626L459.376 586.275L455.742 599.865Z" fill="#1D4ED8"/>
<path d="M290.689 802.289V831.36H319.758L290.689 802.289Z" fill="#FACC15"/>
<path d="M348.827 831.36V860.432H377.896L348.827 831.36Z" fill="#171717"/>
<path d="M319.758 831.36V860.432H348.827L319.758 831.36Z" fill="#1D4ED8"/>
<path d="M290.689 831.36V860.432H319.758L290.689 831.36Z" fill="#F97316"/>
<path d="M616.26 1032.1L638.436 1022.48L641.194 998.482L619.019 1008.09L616.26 1032.1Z" stroke="#1D4ED8" stroke-miterlimit="10" stroke-linecap="square" stroke-linejoin="bevel"/>
<path d="M616.26 1032.1L638.436 1022.48L657.843 1036.88L635.667 1046.5L616.26 1032.1Z" stroke="#1D4ED8" stroke-miterlimit="10" stroke-linecap="square" stroke-linejoin="bevel"/>
<path d="M633.501 1011.12C629.439 1012.89 626.631 1016.68 626.119 1021.07C625.618 1025.46 627.493 1029.8 631.044 1032.43C634.594 1035.07 639.288 1035.61 643.35 1033.85C647.412 1032.08 650.22 1028.29 650.732 1023.9C651.233 1019.51 649.358 1015.17 645.807 1012.53C642.257 1009.9 637.563 1009.36 633.501 1011.12Z" fill="#1D4ED8"/>
<path d="M641.194 998.482L619.019 1008.09L616.26 1032.1L635.667 1046.5L657.843 1036.88L660.601 1012.88L641.194 998.482Z" stroke="#1D4ED8" stroke-miterlimit="10" stroke-linecap="square" stroke-linejoin="bevel"/>
<path d="M619.018 1008.09L638.436 1022.48L635.667 1046.5L616.26 1032.1L619.018 1008.09Z" stroke="#1D4ED8" stroke-miterlimit="10" stroke-linecap="square" stroke-linejoin="bevel"/>
<path d="M638.436 1022.48L660.601 1012.88L657.843 1036.88L635.667 1046.5L638.436 1022.48Z" stroke="#1D4ED8" stroke-miterlimit="10" stroke-linecap="square" stroke-linejoin="bevel"/>
<path d="M654.784 972.583L692.976 987.669L725.14 962.142L686.948 947.046L654.784 972.583Z" stroke="#1D4ED8" stroke-miterlimit="10" stroke-linecap="square" stroke-linejoin="bevel"/>
<path d="M654.784 972.583L692.976 987.669L699.003 1028.3L660.811 1013.21L654.784 972.583Z" stroke="#1D4ED8" stroke-miterlimit="10" stroke-linecap="square" stroke-linejoin="bevel"/>
<path d="M700.709 968.09C693.718 965.322 685.775 966.505 679.887 971.179C674 975.853 671.051 983.316 672.155 990.758C673.258 998.201 678.253 1004.49 685.243 1007.25C692.234 1010.02 700.177 1008.83 706.064 1004.16C711.952 999.485 714.9 992.022 713.797 984.58C712.694 977.147 707.709 970.858 700.709 968.09Z" fill="#262626"/>
<path d="M725.14 962.142L686.948 947.046L654.784 972.583L660.811 1013.21L699.003 1028.3L731.168 1002.76L725.14 962.142Z" stroke="#1D4ED8" stroke-miterlimit="10" stroke-linecap="square" stroke-linejoin="bevel"/>
<path d="M686.948 947.046L692.976 987.669L660.811 1013.21L654.784 972.583L686.948 947.046Z" stroke="#1D4ED8" stroke-miterlimit="10" stroke-linecap="square" stroke-linejoin="bevel"/>
<path d="M692.976 987.669L731.168 1002.76L699.003 1028.3L660.811 1013.21L692.976 987.669Z" stroke="#1D4ED8" stroke-miterlimit="10" stroke-linecap="square" stroke-linejoin="bevel"/>
<path d="M731.258 908.399L743.675 937.036L774.686 940.607L762.269 911.96L731.258 908.399Z" stroke="#1D4ED8" stroke-miterlimit="10" stroke-linecap="square" stroke-linejoin="bevel"/>
<path d="M731.258 908.399L743.675 937.036L725.08 962.122L712.664 933.475L731.258 908.399Z" stroke="#1D4ED8" stroke-miterlimit="10" stroke-linecap="square" stroke-linejoin="bevel"/>
<path d="M758.358 930.677C756.081 925.431 751.187 921.8 745.5 921.148C739.823 920.496 734.227 922.923 730.817 927.517C727.407 932.111 726.715 938.169 728.992 943.415C731.268 948.661 736.163 952.292 741.849 952.944C747.526 953.596 753.123 951.169 756.533 946.575C759.943 941.981 760.635 935.923 758.358 930.677Z" fill="#FACC15"/>
<path d="M774.686 940.607L762.269 911.96L731.258 908.399L712.664 933.475L725.08 962.122L756.101 965.682L774.686 940.607Z" stroke="#1D4ED8" stroke-miterlimit="10" stroke-linecap="square" stroke-linejoin="bevel"/>
<path d="M762.269 911.96L743.675 937.036L712.664 933.475L731.258 908.399L762.269 911.96Z" stroke="#1D4ED8" stroke-miterlimit="10" stroke-linecap="square" stroke-linejoin="bevel"/>
<path d="M743.675 937.036L756.101 965.683L725.08 962.122L712.664 933.475L743.675 937.036Z" stroke="#1D4ED8" stroke-miterlimit="10" stroke-linecap="square" stroke-linejoin="bevel"/>
</svg>
