<svg width="274" height="599" viewBox="0 0 274 599" fill="none" xmlns="http://www.w3.org/2000/svg">
<g opacity="0.1">
<path d="M1.52195 523.793C-0.507318 521.763 -0.507318 518.466 1.52195 516.436L8.01743 509.94C10.0467 507.911 13.3443 507.911 15.3735 509.94C17.4028 511.969 17.4028 515.267 15.3735 517.297L8.87805 523.793C6.84878 525.822 3.56028 525.822 1.52195 523.793Z" fill="#1D4ED8"/>
<path d="M20.2925 505.7C18.2632 503.67 18.2632 500.372 20.2925 498.343L78.1085 440.522C80.1378 438.493 83.4354 438.493 85.4647 440.522C87.4939 442.552 87.4939 445.849 85.4647 447.879L27.6486 505.7C25.6193 507.738 22.3308 507.738 20.2925 505.7Z" fill="#1D4ED8"/>
<path d="M1.52195 561.872C-0.507318 559.842 -0.507318 556.544 1.52195 554.515L59.338 496.694C61.3673 494.665 64.6649 494.665 66.6942 496.694C68.7234 498.723 68.7234 502.021 66.6942 504.051L8.87807 561.872C6.8488 563.91 3.56028 563.91 1.52195 561.872Z" fill="#F97316"/>
<path d="M1.28415 597.666C-0.428049 595.953 -0.428049 593.181 1.28415 591.469L27.565 565.186C29.2772 563.473 32.0493 563.473 33.7615 565.186C35.4737 566.898 35.4737 569.67 33.7615 571.383L7.48064 597.666C5.76844 599.378 2.99634 599.378 1.28415 597.666Z" fill="#FACC15"/>
<path d="M45.1035 553.843C43.3913 552.13 43.3913 549.358 45.1035 547.646L92.6645 500.081C94.3767 498.368 97.1488 498.368 98.861 500.081C100.573 501.793 100.573 504.565 98.861 506.278L51.3 553.843C49.5878 555.555 46.8157 555.555 45.1035 553.843Z" fill="#F97316"/>
<path d="M175 402.536C173.599 402.536 172.464 401.401 172.464 400C172.464 398.599 173.599 397.464 175 397.464C176.401 397.464 177.536 398.599 177.536 400C177.536 401.397 176.401 402.536 175 402.536ZM175 395C172.238 395 170 397.238 170 400C170 402.762 172.238 405 175 405C177.762 405 180 402.762 180 400C180 397.238 177.759 395 175 395Z" fill="#CBD5E1"/>
<path d="M230 121.536C228.599 121.536 227.464 120.401 227.464 119C227.464 117.599 228.599 116.464 230 116.464C231.401 116.464 232.536 117.599 232.536 119C232.536 120.397 231.401 121.536 230 121.536ZM230 114C227.238 114 225 116.238 225 119C225 121.762 227.238 124 230 124C232.762 124 235 121.762 235 119C235 116.238 232.759 114 230 114Z" fill="#CBD5E1"/>
<path d="M145 69.5359C143.599 69.5359 142.464 68.4009 142.464 67C142.464 65.5991 143.599 64.4641 145 64.4641C146.401 64.4641 147.536 65.5991 147.536 67C147.536 68.3973 146.401 69.5359 145 69.5359ZM145 62C142.238 62 140 64.2378 140 67C140 69.7622 142.238 72 145 72C147.762 72 150 69.7622 150 67C150 64.2378 147.759 62 145 62Z" fill="#CBD5E1"/>
<path d="M245 492.536C243.599 492.536 242.464 491.401 242.464 490C242.464 488.599 243.599 487.464 245 487.464C246.401 487.464 247.536 488.599 247.536 490C247.536 491.397 246.401 492.536 245 492.536ZM245 485C242.238 485 240 487.238 240 490C240 492.762 242.238 495 245 495C247.762 495 250 492.762 250 490C250 487.238 247.759 485 245 485Z" fill="#CBD5E1"/>
<path d="M155 560.536C153.599 560.536 152.464 559.401 152.464 558C152.464 556.599 153.599 555.464 155 555.464C156.401 555.464 157.536 556.599 157.536 558C157.536 559.397 156.401 560.536 155 560.536ZM155 553C152.238 553 150 555.238 150 558C150 560.762 152.238 563 155 563C157.762 563 160 560.762 160 558C160 555.238 157.759 553 155 553Z" fill="#CBD5E1"/>
<path d="M77 240.536C75.5991 240.536 74.4641 239.401 74.4641 238C74.4641 236.599 75.5991 235.464 77 235.464C78.4009 235.464 79.5359 236.599 79.5359 238C79.5359 239.397 78.4009 240.536 77 240.536ZM77 233C74.2378 233 72 235.238 72 238C72 240.762 74.2378 243 77 243C79.7622 243 82 240.762 82 238C82 235.238 79.7586 233 77 233Z" fill="#CBD5E1"/>
<path d="M250 223.536C248.599 223.536 247.464 222.401 247.464 221C247.464 219.599 248.599 218.464 250 218.464C251.401 218.464 252.536 219.599 252.536 221C252.536 222.397 251.401 223.536 250 223.536ZM250 216C247.238 216 245 218.238 245 221C245 223.762 247.238 226 250 226C252.762 226 255 223.762 255 221C255 218.238 252.759 216 250 216Z" fill="#CBD5E1"/>
<path d="M17 7.53592C15.5991 7.53592 14.4641 6.40086 14.4641 5C14.4641 3.59914 15.5991 2.46408 17 2.46408C18.4009 2.46408 19.5359 3.59914 19.5359 5C19.5359 6.39727 18.4009 7.53592 17 7.53592ZM17 0C14.2378 0 12 2.23779 12 5C12 7.76221 14.2378 10 17 10C19.7622 10 22 7.76221 22 5C22 2.23779 19.7586 0 17 0Z" fill="#CBD5E1"/>
<path d="M47.0252 329.026C45.5411 330.51 44.2654 332.131 43.1914 333.837L51.8418 325.186C50.1299 326.266 48.5157 327.542 47.0252 329.026Z" fill="#64748B"/>
<path d="M58.0258 322.302L40.302 340.027C40.1523 340.483 40.0221 340.945 39.8984 341.407L59.4122 321.892C58.9436 322.015 58.4814 322.152 58.0258 322.302Z" fill="#64748B"/>
<path d="M63.4602 321.137L39.1299 345.469C39.0908 345.827 39.0583 346.185 39.0322 346.543L64.5277 321.045C64.1762 321.065 63.8182 321.097 63.4602 321.137Z" fill="#64748B"/>
<path d="M67.8736 321L39 349.876C39.013 350.182 39.0391 350.481 39.0651 350.787L68.7848 321.065C68.4789 321.039 68.1795 321.013 67.8736 321Z" fill="#64748B"/>
<path d="M71.6882 321.456L39.4561 353.69C39.5081 353.957 39.5667 354.224 39.6253 354.491L72.4888 321.625C72.222 321.566 71.9551 321.508 71.6882 321.456Z" fill="#64748B"/>
<path d="M75.0796 322.334L40.335 357.082C40.4131 357.323 40.4977 357.57 40.5823 357.811L75.8086 322.582C75.5677 322.497 75.3204 322.419 75.0796 322.334Z" fill="#64748B"/>
<path d="M78.1443 323.539L41.5381 360.148C41.6422 360.369 41.7529 360.584 41.8635 360.799L78.7951 323.864C78.5803 323.753 78.3656 323.643 78.1443 323.539Z" fill="#64748B"/>
<path d="M80.9174 325.042L43.042 362.921C43.1657 363.123 43.2893 363.325 43.4195 363.52L81.5162 325.42C81.3209 325.29 81.1192 325.166 80.9174 325.042Z" fill="#64748B"/>
<path d="M83.4358 326.8L44.7988 365.44C44.942 365.622 45.0787 365.805 45.2284 365.987L83.9825 327.229C83.8003 327.08 83.618 326.937 83.4358 326.8Z" fill="#64748B"/>
<path d="M85.9682 329.026C85.8836 328.942 85.799 328.87 85.7209 328.786L46.791 367.719C46.8691 367.803 46.9472 367.888 47.0318 367.966C47.1165 368.051 47.2011 368.122 47.2792 368.207L86.209 329.274C86.1244 329.196 86.0463 329.111 85.9682 329.026Z" fill="#64748B"/>
<path d="M87.7649 331.012L49.0107 369.769C49.193 369.919 49.3753 370.056 49.5575 370.199L88.1945 331.559C88.0513 331.376 87.9146 331.194 87.7649 331.012Z" fill="#64748B"/>
<path d="M89.5742 333.479L51.4775 371.578C51.6728 371.709 51.8746 371.832 52.0763 371.956L89.9518 334.077C89.8281 333.876 89.7044 333.674 89.5742 333.479Z" fill="#64748B"/>
<path d="M91.1299 336.193L54.1982 373.128C54.413 373.238 54.6343 373.349 54.8491 373.453L91.4553 336.844C91.3512 336.629 91.234 336.414 91.1299 336.193Z" fill="#64748B"/>
<path d="M92.4118 339.188L57.1855 374.417C57.4264 374.501 57.6737 374.586 57.9145 374.664L92.6592 339.917C92.5745 339.669 92.4964 339.428 92.4118 339.188Z" fill="#64748B"/>
<path d="M93.3626 342.5L60.499 375.367C60.7659 375.425 61.0327 375.49 61.2996 375.536L93.5318 343.301C93.4862 343.034 93.4277 342.767 93.3626 342.5Z" fill="#64748B"/>
<path d="M93.9287 346.211L64.209 375.933C64.5149 375.959 64.8143 375.985 65.1202 375.998L93.9938 347.122C93.9808 346.816 93.9547 346.517 93.9287 346.211Z" fill="#64748B"/>
<path d="M93.9554 350.462L68.46 375.959C68.818 375.933 69.176 375.901 69.5339 375.862L93.8643 351.529C93.8968 351.178 93.9294 350.82 93.9554 350.462Z" fill="#64748B"/>
<path d="M93.0948 355.585L73.5811 375.1C74.0432 374.977 74.5053 374.84 74.9609 374.697L92.6848 356.971C92.841 356.509 92.9777 356.054 93.0948 355.585Z" fill="#64748B"/>
<path d="M81.1514 371.806C82.8567 370.732 84.4774 369.456 85.9615 367.972C87.4455 366.488 88.7213 364.867 89.7952 363.162L81.1514 371.806Z" fill="#64748B"/>
<path d="M272.863 499.903L214.534 515.536L198.91 573.871L257.24 558.237L272.863 499.903Z" stroke="#64748B" stroke-miterlimit="10"/>
<path d="M272.863 499.903L253.962 481" stroke="#64748B" stroke-miterlimit="10"/>
<path d="M198.91 573.871L180 554.968" stroke="#64748B" stroke-miterlimit="10"/>
<path d="M257.24 558.237L214.534 515.536L195.633 496.633" stroke="#64748B" stroke-miterlimit="10"/>
<path d="M248.327 505.538C252.241 509.453 253.764 515.149 252.336 520.492L247.707 537.76C246.279 543.103 242.107 547.276 236.764 548.704L219.497 553.333C214.155 554.761 208.459 553.238 204.545 549.324C200.63 545.409 199.108 539.713 200.536 534.37L205.164 517.102C206.592 511.759 210.765 507.586 216.108 506.158L233.374 501.529C238.717 500.101 244.412 501.632 248.327 505.538Z" fill="#1D4ED8"/>
<path d="M253.962 481L195.632 496.633L180 554.968L238.33 539.335L253.962 481Z" stroke="#64748B" stroke-miterlimit="10"/>
<path d="M175 345.141L177.843 355.731L188.431 358.574L196.177 350.816L193.346 340.226L182.757 337.383L175 345.141Z" fill="#64748B"/>
<path d="M226.041 369.639L233.787 361.881L230.955 351.291L220.367 348.46L212.609 356.206L215.452 366.796L226.041 369.639Z" fill="#14B8A6"/>
<path d="M209.812 353.409L217.57 345.662L214.727 335.061L204.138 332.23L196.381 339.976L199.223 350.577L209.812 353.409Z" fill="#1D4ED8"/>
<path d="M193.584 337.18L201.342 329.433L198.499 318.843L187.911 316.001L180.153 323.759L182.996 334.348L193.584 337.18Z" fill="#F97316"/>
</g>
</svg>
