<svg width="14" height="14" viewBox="0 0 14 14" fill="none" xmlns="http://www.w3.org/2000/svg">
<g clip-path="url(#clip0_169_1078)">
<path d="M14 13.125C14 13.6082 13.6082 14 13.125 14H0.875C0.391754 14 0 13.6082 0 13.125C0 12.6418 0.391754 12.25 0.875 12.25H13.125C13.6082 12.25 14 12.6418 14 13.125ZM6.38129 10.3531C6.55216 10.524 6.77605 10.6094 7 10.6094C7.22389 10.6094 7.44789 10.524 7.61871 10.3531L10.7189 7.25296C11.0606 6.91124 11.0606 6.35723 10.7189 6.01552C10.3772 5.6738 9.82316 5.6738 9.48145 6.01552L7.875 7.62196V0.875C7.875 0.391754 7.48325 0 7 0C6.51675 0 6.125 0.391754 6.125 0.875V7.62196L4.51855 6.01552C4.17684 5.6738 3.62283 5.6738 3.28111 6.01552C2.9394 6.35723 2.9394 6.91124 3.28111 7.25296L6.38129 10.3531Z" fill="white"/>
</g>
<defs>
<clipPath id="clip0_169_1078">
<rect width="14" height="14" fill="white"/>
</clipPath>
</defs>
</svg>
