<svg width="30" height="30" viewBox="0 0 30 30" fill="none" xmlns="http://www.w3.org/2000/svg">
<rect width="30" height="30" rx="15" fill="#0072B1"/>
<path d="M21.2222 7C21.6937 7 22.1459 7.1873 22.4793 7.5207C22.8127 7.8541 23 8.30628 23 8.77778V21.2222C23 21.6937 22.8127 22.1459 22.4793 22.4793C22.1459 22.8127 21.6937 23 21.2222 23H8.77778C8.30628 23 7.8541 22.8127 7.5207 22.4793C7.1873 22.1459 7 21.6937 7 21.2222V8.77778C7 8.30628 7.1873 7.8541 7.5207 7.5207C7.8541 7.1873 8.30628 7 8.77778 7H21.2222ZM20.7778 20.7778V16.0667C20.7778 15.2981 20.4725 14.5611 19.929 14.0176C19.3856 13.4742 18.6485 13.1689 17.88 13.1689C17.1244 13.1689 16.2444 13.6311 15.8178 14.3244V13.3378H13.3378V20.7778H15.8178V16.3956C15.8178 15.7111 16.3689 15.1511 17.0533 15.1511C17.3834 15.1511 17.6999 15.2822 17.9333 15.5156C18.1667 15.749 18.2978 16.0655 18.2978 16.3956V20.7778H20.7778ZM10.4489 11.9422C10.8449 11.9422 11.2248 11.7849 11.5048 11.5048C11.7849 11.2248 11.9422 10.8449 11.9422 10.4489C11.9422 9.62222 11.2756 8.94667 10.4489 8.94667C10.0505 8.94667 9.66838 9.10494 9.38666 9.38666C9.10494 9.66838 8.94667 10.0505 8.94667 10.4489C8.94667 11.2756 9.62222 11.9422 10.4489 11.9422ZM11.6844 20.7778V13.3378H9.22222V20.7778H11.6844Z" fill="white"/>
</svg>
