<svg width="14" height="14" viewBox="0 0 14 14" fill="none" xmlns="http://www.w3.org/2000/svg">
<g clip-path="url(#clip0_169_1073)">
<path d="M13.16 0.812004C12.026 -0.321996 10.052 -0.251996 8.848 0.966004L6.356 3.458C6.048 3.766 6.048 4.214 6.356 4.522C6.664 4.83 7.112 4.83 7.42 4.522L9.912 2.016C10.598 1.33 11.578 1.33 12.11 1.862C12.642 2.394 12.642 3.458 11.956 4.06L9.464 6.566C9.156 6.874 9.156 7.322 9.464 7.63C9.618 7.784 9.842 7.854 9.996 7.854C10.22 7.854 10.374 7.784 10.528 7.63L13.02 5.124C14.308 3.92 14.308 1.946 13.16 0.812004Z" fill="white"/>
<path d="M6.664 9.37999L3.934 12.11C3.402 12.642 2.422 12.642 1.89 12.11C1.582 11.802 1.442 11.508 1.442 11.046C1.442 10.598 1.596 10.29 1.89 9.98199L4.69 7.18199C4.998 6.87399 4.998 6.42599 4.69 6.11799C4.382 5.80999 3.934 5.80999 3.626 6.11799L0.826 8.91799C0.308 9.44999 0 10.206 0 11.046C0 11.886 0.308 12.558 0.826 13.174C1.358 13.706 2.114 14.014 2.94 14.014C3.696 14.014 4.452 13.706 5.054 13.174L7.854 10.374C8.162 10.066 8.162 9.61799 7.854 9.30999C7.49 9.07199 6.958 9.07199 6.664 9.37999Z" fill="white"/>
<path d="M9.15602 4.83C8.84802 4.522 8.40002 4.522 8.09202 4.83L5.15202 7.784C4.84402 8.092 4.84402 8.54 5.15202 8.848C5.30602 9.002 5.53002 9.072 5.68402 9.072C5.83802 9.072 6.06202 9.002 6.21602 8.848L9.17002 5.894C9.46402 5.586 9.46402 5.124 9.15602 4.83Z" fill="white"/>
</g>
<defs>
<clipPath id="clip0_169_1073">
<rect width="14" height="14" fill="white"/>
</clipPath>
</defs>
</svg>
