<svg width="926" height="411" viewBox="0 0 926 411" fill="none" xmlns="http://www.w3.org/2000/svg">
<g clip-path="url(#clip0_287_1088)">
<path d="M4.69514 0V0.504264H4.38867L4.69514 0Z" fill="white"/>
<path d="M218.204 396.733C237.315 381.384 235.605 361.644 235.605 361.644L174.582 370.204C174.582 370.204 157.977 370.549 153.766 375.456C152.798 376.71 151.836 378.592 150.751 380.818C147.735 387.552 144.719 396.567 141.312 394.741C137.046 392.632 141.483 380.191 141.992 378.82C141.085 380.019 132.326 391.371 130.677 386.525C129.654 383.672 131.983 379.053 134.202 375.284C132.724 376.71 130.677 377.965 128.005 378.42C120.895 379.675 123.285 373.968 123.285 373.968L137.959 359.701C137.505 359.701 136.194 358.901 132.951 352.284C131.358 348.976 131.646 347.377 132.498 346.75C133.864 345.495 136.874 346.633 136.874 346.633C147.563 356.103 158.314 357.819 158.314 357.819C186.865 362.609 230.487 346.405 234.753 342.642C239.019 338.989 237.199 334.426 237.199 334.426L222.525 340.588C186.013 354.055 143.812 324.784 143.812 324.784C143.812 324.784 136.42 334.881 126.748 327.637C117.137 320.393 132.093 311.488 132.093 311.488C114.802 304.699 107.527 281.472 107.527 281.472C106.387 281.472 105.136 281.589 103.947 281.589C73.748 281.589 66.068 268.121 66.068 268.121C76.022 266.412 91.094 259.278 91.094 259.278C83.9288 259.278 70.8488 250.774 70.8488 250.774C75.3968 250.774 82.1636 248.892 88.5932 246.61L79.2644 225.154C79.9448 225.554 84.836 227.663 96.3836 224.81C105.198 222.701 118.051 217.394 135.912 206.097C179.08 178.651 198.7 191.775 198.7 191.775C237.83 149.324 267.288 218.82 267.288 218.82C267.288 218.82 278.265 212.031 280.993 220.991C281.164 221.502 281.275 221.963 281.275 222.418C282.353 230.634 270.867 236.224 270.867 236.224L273.595 254.881C280.649 311.316 255.28 321.924 255.28 321.924L259.031 327.114C282.121 310.566 293.325 250.595 294.575 238.271C295.599 228.112 293.895 227.313 291.051 222.24C290.426 221.268 289.684 220.013 289.004 218.415C284.793 209.455 291.903 207.517 295.599 213.107C299.123 218.759 302.139 219.269 302.139 219.269C302.139 219.269 318.351 207.684 322.157 210.709C325.455 213.39 316.132 220.407 313.969 221.951C325.798 214.872 328.642 218.187 328.642 218.187C330.916 221.612 323.579 226.975 321.36 228.457C323.751 227.374 332.51 224.349 331.541 230.794C331.088 234.274 325.743 234.446 319.938 236.045C312.945 238.044 304.922 242.152 303.5 256.702C300.882 283.176 283.824 328.086 283.824 328.086C287.41 361.183 301.796 358.901 306.062 357.53C306.344 357.413 306.632 357.358 306.803 357.247C306.975 357.192 307.147 357.075 307.147 357.075C307.147 357.075 307.772 356.62 308.569 356.22C336.831 337.273 322.899 296.932 322.899 296.932C385.97 279.012 359.693 219.847 359.693 219.847C364.811 202.788 365.038 189.321 362.537 178.707L331.596 197.537C331.082 201.565 327.612 204.664 323.414 204.609C319.105 204.553 315.501 200.987 315.391 196.663C315.274 192.002 318.958 188.232 323.518 188.232C324.885 188.232 326.135 188.577 327.214 189.143L359.405 169.458C351.67 152.227 336.2 144.866 328.526 142.24L328.752 142.812L269.549 178.99C268.863 182.778 265.535 185.637 261.526 185.607C257.248 185.576 253.607 182.126 253.405 177.84C253.184 173.16 256.966 169.236 261.587 169.236C263.009 169.236 264.376 169.636 265.51 170.263L272.277 166.155L271.707 139.626C268.795 138.23 266.859 135.143 267.122 131.626C267.41 127.825 270.395 124.689 274.159 124.185C279.154 123.514 283.42 127.389 283.42 132.271C283.42 134.498 282.568 136.435 281.146 137.923L281.6 160.461L324.934 134.098C331.872 69.4474 275.397 73.8444 275.397 73.8444C268.403 51.5891 253.956 39.0379 238.541 32.0212V126.854C240.754 128.459 242.17 131.121 241.924 134.141C241.593 138.292 238.087 141.631 233.938 141.693C229.335 141.76 225.627 138.027 225.627 133.477C225.627 130.74 226.993 128.342 229.041 126.86V28.3561C214.821 23.8484 196.739 23.2765 187.925 23.5041V100.589L187.753 100.872L163.69 146.52C164.143 147.547 164.37 148.629 164.37 149.828C164.37 154.379 160.662 158.112 156.053 158.044C151.915 157.983 148.422 154.662 148.078 150.529C147.698 145.936 151.125 142.092 155.501 141.729L178.425 97.9076V24.1928C177.119 24.0206 158.517 20.995 135.366 28.5836V126.097C137.536 127.672 138.946 130.273 138.762 133.225C138.51 137.357 135.115 140.752 130.99 140.93C126.344 141.127 122.452 137.345 122.452 132.72C122.452 129.984 123.818 127.53 125.921 126.042V32.3533C110.794 39.3699 96.6901 51.9273 89.8068 73.8382C89.8068 73.8382 33.1045 69.4474 40.2696 134.381L82.8684 160.516L83.322 137.861C81.0419 136.336 79.5402 133.723 79.6322 130.709C79.7548 126.485 83.2178 122.967 87.4287 122.807C92.1299 122.623 95.9484 126.343 95.9484 130.962C95.9484 133.643 94.698 135.98 92.7612 137.468L92.136 166.168L100.27 171.13C101.41 170.503 102.715 170.159 104.137 170.159C108.722 170.159 112.418 173.965 112.265 178.658C112.124 182.956 108.526 186.48 104.235 186.535C100.098 186.584 96.6901 183.602 96.0588 179.691L34.98 142.886C26.8464 145.966 12.7429 153.5 5.57767 169.821L42.4149 192.236C43.4937 191.719 44.6889 191.436 45.9393 191.436C50.4443 191.436 54.1464 195.108 54.128 199.689C54.1097 203.797 50.9102 207.321 46.8403 207.763C42.2984 208.262 38.345 204.965 37.916 200.624L2.48849 179.051C0.098054 189.61 0.386133 202.961 5.38766 219.847C5.38766 219.847 -19.7487 276.62 38.5473 295.739L52.0809 288.433V288.39C52.0809 284.645 54.5203 281.226 58.1428 280.31C64.7011 278.649 70.5546 285.18 67.6371 291.822C66.5399 294.325 64.1372 295.991 61.4342 296.342C60.147 296.508 59.0438 296.422 57.9405 296.084L40.1409 305.609C36.9537 322.73 35.9301 359.529 83.2485 365.069L86.7177 360.506L80.9745 329.008L81.0297 328.953L87.968 314.913C86.7606 313.474 86.0189 311.623 86.0312 309.551C86.0557 305.615 88.9978 302.184 92.8715 301.557C97.9466 300.739 102.409 304.656 102.409 309.606C102.409 313.032 100.306 315.94 97.4011 317.195L90.8059 330.435L94.3855 349.837L100.981 340.711C100.466 339.629 100.184 338.485 100.184 337.23C100.184 332.667 103.88 329.014 108.373 329.014C112.865 329.014 116.561 332.667 116.561 337.23C116.561 341.393 113.374 344.874 109.341 345.274L90.4014 370.665C93.8706 382.534 109.739 411.007 182.593 411.007C182.605 411 197.291 410.767 218.204 396.733Z" fill="white"/>
<path d="M291.952 35.9258C291.952 35.9258 288.495 41.9954 286.889 43.6066C285.535 44.9656 280.11 47.8067 280.11 47.8067C280.11 47.8067 286.405 51.5211 288.066 53.1815C289.562 54.682 292.724 60.4564 292.724 60.4564C292.724 60.4564 296.236 54.4052 297.763 52.874C299.215 51.4165 304.646 48.4955 304.646 48.4955C304.646 48.4955 298.504 44.9902 296.996 43.502C295.329 41.854 291.952 35.9258 291.952 35.9258Z" fill="#F97316"/>
<path d="M308.017 21.5908C308.017 21.5908 307.091 23.2082 306.662 23.6448C306.301 24.0076 304.854 24.764 304.854 24.764C304.854 24.764 306.534 25.7541 306.981 26.203C307.38 26.6027 308.225 28.1463 308.225 28.1463C308.225 28.1463 309.163 26.5289 309.574 26.123C309.96 25.7356 311.413 24.9546 311.413 24.9546C311.413 24.9546 309.77 24.0199 309.372 23.6202C308.918 23.1774 308.017 21.5908 308.017 21.5908Z" fill="#F97316"/>
<path d="M279.902 15.042C279.902 15.042 278.216 18.0061 277.432 18.7932C276.77 19.4574 274.122 20.8472 274.122 20.8472C274.122 20.8472 277.193 22.6613 278.008 23.473C278.737 24.2048 280.282 27.0275 280.282 27.0275C280.282 27.0275 281.998 24.0757 282.746 23.3255C283.457 22.6121 286.105 21.1854 286.105 21.1854C286.105 21.1854 283.107 19.4758 282.372 18.744C281.551 17.9323 279.902 15.042 279.902 15.042Z" fill="#F97316"/>
<path d="M906.546 104.622C906.546 104.622 903.089 110.692 901.483 112.303C900.128 113.662 894.704 116.503 894.704 116.503C894.704 116.503 900.998 120.217 902.659 121.878C904.155 123.378 907.318 129.153 907.318 129.153C907.318 129.153 910.83 123.102 912.356 121.57C913.809 120.113 919.239 117.192 919.239 117.192C919.239 117.192 913.098 113.687 911.59 112.198C909.923 110.55 906.546 104.622 906.546 104.622Z" fill="#F97316"/>
<path d="M922.611 90.2939C922.611 90.2939 921.685 91.9113 921.256 92.3479C920.894 92.7107 919.448 93.4671 919.448 93.4671C919.448 93.4671 921.127 94.4572 921.575 94.9061C921.973 95.3058 922.819 96.8494 922.819 96.8494C922.819 96.8494 923.757 95.232 924.167 94.8262C924.554 94.4387 926.006 93.6578 926.006 93.6578C926.006 93.6578 924.363 92.723 923.965 92.3233C923.511 91.8744 922.611 90.2939 922.611 90.2939Z" fill="#F97316"/>
<path d="M894.495 83.7383C894.495 83.7383 892.81 86.7024 892.025 87.4895C891.363 88.1537 888.715 89.5435 888.715 89.5435C888.715 89.5435 891.786 91.3576 892.601 92.1693C893.331 92.9011 894.875 95.7238 894.875 95.7238C894.875 95.7238 896.592 92.772 897.339 92.0217C898.05 91.3084 900.698 89.8817 900.698 89.8817C900.698 89.8817 897.701 88.1721 896.965 87.4403C896.144 86.6347 894.495 83.7383 894.495 83.7383Z" fill="#F97316"/>
<path d="M769.549 252.323H709.23V211.976H756.199C759.846 211.976 762.991 210.66 765.614 208.015C768.237 205.383 769.549 202.229 769.549 198.57C769.549 194.923 768.237 191.768 765.614 189.136C762.991 186.492 759.846 185.176 756.199 185.176H709.23V144.829H769.549C773.306 144.829 776.493 143.513 779.129 140.881C781.752 138.249 783.064 135.045 783.064 131.281C783.064 127.622 781.752 124.467 779.129 121.835C776.493 119.203 773.306 117.875 769.549 117.875H695.887C692.129 117.875 688.942 119.203 686.307 121.835C683.683 124.467 682.372 127.622 682.372 131.281V265.87C682.372 269.529 683.683 272.684 686.307 275.316C688.942 277.948 692.136 279.264 695.887 279.264H769.549C773.306 279.264 776.493 277.948 779.129 275.316C781.752 272.684 783.064 269.529 783.064 265.87C783.064 262.101 781.752 258.903 779.129 256.271C776.493 253.639 773.3 252.323 769.549 252.323Z" fill="white"/>
<path d="M450.793 312.748H457.352C459.908 312.748 462.09 314.076 463.892 316.727C464.56 318.086 464.897 319.31 464.897 320.398V320.915C464.897 323.313 463.818 325.379 461.655 327.113C460.184 328.128 458.755 328.639 457.346 328.639H452.381V338.816C452.381 339.511 451.927 339.941 451.014 340.107H450.941C450.205 340.107 449.751 339.628 449.574 338.662V314.353C449.696 313.283 450.101 312.748 450.793 312.748ZM452.387 315.565V325.816H456.843C459.246 325.816 460.901 324.66 461.808 322.354C461.998 321.874 462.096 321.296 462.096 320.626C462.096 318.51 461.017 316.942 458.854 315.927C458.32 315.688 457.701 315.565 456.996 315.565H452.387Z" fill="white"/>
<path d="M470.266 320.49C471.18 320.718 471.633 321.124 471.633 321.708V323.288C473.717 321.425 475.948 320.49 478.326 320.49C479.601 320.49 480.962 320.804 482.402 321.425C482.782 321.819 482.972 322.2 482.972 322.563V322.636C482.819 323.534 482.372 323.989 481.63 323.989H481.55C480.251 323.571 479.27 323.362 478.608 323.362H478.191C475.396 323.362 473.349 324.813 472.05 327.716C471.774 328.491 471.633 329.37 471.633 330.36V338.804C471.633 339.511 471.18 339.947 470.266 340.095H470.193C469.469 340.095 469.022 339.622 468.844 338.668V322.138C468.961 321.044 469.433 320.49 470.266 320.49Z" fill="white"/>
<path d="M494.876 320.736C497.364 320.736 499.62 321.683 501.642 323.571C503.561 325.601 504.523 327.882 504.523 330.422C504.523 334.05 502.807 336.904 499.381 338.982C497.904 339.732 496.469 340.107 495.078 340.107H494.508C491.915 340.107 489.5 338.884 487.263 336.436C485.896 334.493 485.216 332.494 485.216 330.428C485.216 327.286 486.601 324.647 489.365 322.514C491.149 321.327 492.982 320.736 494.876 320.736ZM488.048 330.213V330.557C488.048 333.146 489.292 335.151 491.78 336.565C492.675 337.033 493.637 337.266 494.661 337.266H495.078C497.744 337.266 499.785 335.877 501.201 333.103C501.532 332.23 501.691 331.381 501.691 330.557V330.213C501.691 328.054 500.705 326.24 498.737 324.77C497.585 323.971 496.273 323.571 494.796 323.571C491.878 323.571 489.739 325.103 488.385 328.153C488.164 328.909 488.048 329.592 488.048 330.213Z" fill="white"/>
<path d="M517.076 320.68C519.945 320.68 522.433 321.879 524.548 324.277C526 326.282 526.73 328.17 526.73 329.947L526.65 332.345V340.887C526.65 342.486 525.43 344.226 522.991 346.12C521.109 347.35 519.136 347.965 517.076 347.965C513.552 347.965 510.634 346.385 508.336 343.23C507.919 342.535 507.71 342.062 507.71 341.822V341.613C507.71 340.992 508.133 340.586 508.979 340.395H509.188C509.819 340.395 510.358 340.986 510.8 342.166C512.491 344.3 514.581 345.364 517.076 345.364C520.073 345.364 522.329 343.993 523.843 341.256L523.978 340.346V337.167C521.894 339.098 519.663 340.057 517.284 340.057H516.714C514.122 340.057 511.707 338.833 509.47 336.386C508.103 334.442 507.422 332.444 507.422 330.378C507.422 327.235 508.808 324.597 511.572 322.463C513.349 321.27 515.182 320.68 517.076 320.68ZM510.174 330.156V330.501C510.174 333.379 511.676 335.525 514.686 336.927C515.495 337.167 516.218 337.29 516.868 337.29H517.284C520.092 337.29 522.206 335.783 523.634 332.764C523.861 331.866 523.978 331.159 523.978 330.654V330.218C523.978 327.352 522.451 325.206 519.411 323.791C518.461 323.564 517.726 323.447 517.211 323.447H516.947C514.14 323.447 512.025 324.929 510.597 327.899C510.315 328.717 510.174 329.467 510.174 330.156Z" fill="white"/>
<path d="M532.89 320.49C533.797 320.718 534.257 321.124 534.257 321.708V323.288C536.341 321.425 538.572 320.49 540.95 320.49C542.231 320.49 543.585 320.804 545.026 321.425C545.406 321.819 545.596 322.2 545.596 322.563V322.636C545.443 323.534 544.995 323.989 544.247 323.989H544.174C542.868 323.571 541.894 323.362 541.232 323.362H540.815C538.02 323.362 535.973 324.813 534.673 327.716C534.398 328.491 534.257 329.37 534.257 330.36V338.804C534.257 339.511 533.803 339.947 532.89 340.095H532.816C532.093 340.095 531.646 339.622 531.468 338.668V322.138C531.578 321.044 532.056 320.49 532.89 320.49Z" fill="white"/>
<path d="M557.628 320.645C561.293 320.645 564.192 322.446 566.331 326.044C566.987 327.501 567.318 329.02 567.318 330.588V338.823C567.318 339.518 566.871 339.948 565.97 340.096H565.896C565.289 340.096 564.842 339.739 564.548 339.032V338.958L564.621 337.187V337.113C562.537 339.106 560.294 340.102 557.891 340.102H557.346C554.054 340.102 551.314 338.448 549.114 335.139C548.317 333.54 547.919 331.929 547.919 330.306C547.919 326.69 549.69 323.824 553.227 321.708C554.735 321.001 556.199 320.645 557.628 320.645ZM550.689 330.232V330.441C550.689 333.27 552.105 335.397 554.937 336.83C555.832 337.162 556.635 337.322 557.346 337.322H557.891C560.245 337.322 562.182 336.141 563.714 333.786C564.272 332.673 564.548 331.609 564.548 330.588V330.306C564.548 327.581 563.205 325.49 560.527 324.045C559.589 323.627 558.627 323.418 557.628 323.418H557.554C554.698 323.418 552.546 324.906 551.106 327.889C550.83 328.817 550.689 329.598 550.689 330.232Z" fill="white"/>
<path d="M572.455 320.969C573.337 321.196 573.778 321.59 573.778 322.149V322.851C575.323 321.596 576.996 320.969 578.805 320.969C581.207 320.969 583.316 322.082 585.136 324.314C585.884 322.93 587.41 321.885 589.727 321.178L591.321 320.969C594.226 320.969 596.531 322.365 598.222 325.15C598.78 326.319 599.056 327.432 599.056 328.496V338.919C599.056 339.528 598.614 339.922 597.732 340.1H597.677C596.794 339.946 596.353 339.504 596.353 338.772V328.65C596.353 326.356 595.145 324.769 592.73 323.896L591.762 323.761H591.063C589.139 323.761 587.674 324.874 586.662 327.106C586.521 327.598 586.454 328.016 586.454 328.361V338.71C586.288 339.639 585.853 340.1 585.142 340.1H585.069C584.186 339.946 583.745 339.528 583.745 338.846V330.248C583.745 327.862 583.42 326.374 582.776 325.778C581.777 324.437 580.478 323.761 578.872 323.761H578.664C576.451 323.761 574.894 324.948 573.999 327.315C573.858 327.887 573.791 328.637 573.791 329.56V338.839C573.791 339.522 573.349 339.946 572.467 340.094H572.412C571.701 340.094 571.259 339.633 571.082 338.704V322.555C571.173 321.498 571.633 320.969 572.455 320.969Z" fill="white"/>
<path d="M604.217 320.969C605.099 321.196 605.541 321.59 605.541 322.149V322.851C607.079 321.596 608.759 320.969 610.567 320.969C612.963 320.969 615.078 322.082 616.898 324.314C617.646 322.93 619.172 321.885 621.489 321.178L623.083 320.969C625.988 320.969 628.286 322.365 629.984 325.15C630.542 326.319 630.818 327.432 630.818 328.496V338.919C630.818 339.528 630.377 339.922 629.494 340.1H629.439C628.556 339.946 628.115 339.504 628.115 338.772V328.65C628.115 326.356 626.907 324.769 624.492 323.896L623.524 323.761H622.825C620.901 323.761 619.436 324.874 618.424 327.106C618.283 327.598 618.216 328.016 618.216 328.361V338.71C618.051 339.639 617.615 340.1 616.91 340.1H616.837C615.954 339.946 615.513 339.528 615.513 338.846V330.248C615.513 327.862 615.188 326.374 614.545 325.778C613.546 324.437 612.246 323.761 610.64 323.761H610.432C608.219 323.761 606.668 324.948 605.767 327.315C605.626 327.887 605.559 328.637 605.559 329.56V338.839C605.559 339.522 605.118 339.946 604.235 340.094H604.18C603.475 340.094 603.028 339.633 602.856 338.704V322.555C602.93 321.498 603.389 320.969 604.217 320.969Z" fill="white"/>
<path d="M643.671 320.607C647.41 320.607 650.322 322.391 652.393 325.951C653.098 327.347 653.454 328.86 653.454 330.496V330.859C653.288 331.812 652.841 332.285 652.111 332.285H637.15C637.707 334.173 638.903 335.619 640.754 336.621C641.839 337.039 642.856 337.248 643.806 337.248C644.903 337.248 646.166 336.891 647.582 336.184H647.998C648.844 336.35 649.267 336.781 649.267 337.476V337.685C649.267 338.853 647.569 339.659 644.168 340.102H643.677C640.19 340.102 637.395 338.466 635.299 335.194C634.453 333.651 634.03 332.027 634.03 330.342C634.03 326.782 635.709 323.941 639.074 321.819C640.692 321.013 642.225 320.607 643.671 320.607ZM636.917 329.512H650.548C650.548 328.534 649.978 327.274 648.838 325.724C647.281 324.254 645.749 323.516 644.229 323.516H643.451C641.177 323.516 639.301 324.629 637.836 326.862C637.34 327.753 637.033 328.633 636.917 329.512Z" fill="white"/>
<path d="M658.78 320.49C659.693 320.718 660.147 321.124 660.147 321.708V323.288C662.231 321.425 664.462 320.49 666.84 320.49C668.115 320.49 669.476 320.804 670.916 321.425C671.296 321.819 671.486 322.2 671.486 322.563V322.636C671.333 323.534 670.885 323.989 670.144 323.989H670.064C668.765 323.571 667.784 323.362 667.122 323.362H666.705C663.91 323.362 661.863 324.813 660.564 327.716C660.288 328.491 660.147 329.37 660.147 330.36V338.804C660.147 339.511 659.693 339.947 658.78 340.095H658.706C657.983 340.095 657.536 339.622 657.358 338.668V322.138C657.468 321.044 657.946 320.49 658.78 320.49Z" fill="white"/>
<path d="M681.452 320.76C684.701 320.76 687.251 322.236 689.108 325.194L689.163 325.747V325.821C689.163 326.571 688.697 327.014 687.759 327.155C687.14 327.155 686.509 326.614 685.865 325.538C684.56 324.271 683.095 323.638 681.446 323.638C679.283 323.638 677.579 324.671 676.328 326.737L676.273 327.1C676.273 327.721 676.972 328.096 678.382 328.225C683.769 329.529 686.711 330.279 687.214 330.47C688.562 331.355 689.243 332.487 689.243 333.858V333.914C689.243 335.869 687.815 337.653 684.958 339.276C683.732 339.836 682.427 340.112 681.036 340.112C678.192 340.112 675.783 338.772 673.815 336.097C673.625 335.82 673.527 335.556 673.527 335.316V334.898C673.527 334.215 674.042 333.815 675.084 333.698C675.525 333.698 676.157 334.289 676.978 335.47C678.228 336.638 679.681 337.222 681.324 337.222C683.291 337.222 684.928 336.281 686.233 334.406L686.368 333.987V333.914C686.368 333.305 685.951 332.954 685.118 332.868C678.835 331.46 675.513 330.593 675.145 330.261C673.981 329.375 673.398 328.293 673.398 327.026C673.398 325.249 674.679 323.539 677.248 321.891C678.664 321.129 680.067 320.76 681.452 320.76Z" fill="white"/>
<path d="M713.196 312.674L713.551 312.748H727.661L727.943 312.674C728.764 312.674 729.249 313.203 729.383 314.254C729.193 315.127 728.666 315.564 727.808 315.564H714.63V325.305H723.26L724.284 325.231C724.928 325.231 725.357 325.711 725.571 326.676C725.571 327.31 725.185 327.789 724.413 328.122L722.972 328.048H714.63V337.291H728.151C728.82 337.291 729.23 337.795 729.383 338.816C729.126 339.677 728.703 340.107 728.096 340.107H713.196C712.283 339.941 711.829 339.486 711.829 338.736V314.119C711.97 313.209 712.424 312.748 713.196 312.748V312.674Z" fill="white"/>
<path d="M733.821 312.957H734.103C734.961 313.135 735.39 313.517 735.39 314.101V337.309H736.886C737.505 337.309 737.909 337.764 738.099 338.681V338.736C737.946 339.646 737.493 340.107 736.733 340.107H733.962C733.233 340.107 732.773 339.634 732.595 338.681V314.525C732.718 313.48 733.122 312.957 733.821 312.957Z" fill="white"/>
<path d="M743.695 315.639C744.609 315.866 745.062 316.272 745.062 316.856V317.274C745.062 317.945 744.566 318.351 743.567 318.492C742.923 318.492 742.494 318.019 742.28 317.065C742.463 316.118 742.935 315.639 743.695 315.639ZM743.695 320.509C744.609 320.737 745.062 321.143 745.062 321.727V338.81C745.062 339.517 744.609 339.954 743.695 340.102H743.622C742.899 340.102 742.451 339.628 742.273 338.675V322.145C742.39 321.056 742.862 320.509 743.695 320.509Z" fill="white"/>
<path d="M753.631 313.664H753.895C754.728 313.842 755.145 314.218 755.145 314.789V321.068H758.007L758.633 320.994C759.276 320.994 759.711 321.462 759.938 322.403C759.938 323.036 759.546 323.497 758.761 323.792L757.719 323.719H755.139V333.97C755.139 335.759 755.721 336.854 756.886 337.26L758.479 337.395H759.258C759.865 337.395 760.257 337.838 760.435 338.724V338.779C760.281 339.664 759.84 340.107 759.111 340.107H757.652C755.439 340.107 753.797 338.896 752.724 336.473C752.534 335.876 752.436 335.181 752.436 334.382V323.712H751.051L749.929 323.786C749.145 323.51 748.752 323.042 748.752 322.396C748.905 321.511 749.322 321.068 750.003 321.068V320.994L750.701 321.068H752.424V315.208C752.552 314.174 752.951 313.664 753.631 313.664Z" fill="white"/>
<path d="M772.154 320.607C775.893 320.607 778.804 322.391 780.876 325.951C781.581 327.347 781.936 328.86 781.936 330.496V330.859C781.771 331.812 781.324 332.285 780.594 332.285H765.633C766.19 334.173 767.385 335.619 769.237 336.621C770.321 337.039 771.339 337.248 772.289 337.248C773.386 337.248 774.649 336.891 776.065 336.184H776.481C777.327 336.35 777.75 336.781 777.75 337.476V337.685C777.75 338.853 776.052 339.659 772.651 340.102H772.16C768.673 340.102 765.878 338.466 763.781 335.194C762.936 333.651 762.513 332.027 762.513 330.342C762.513 326.782 764.192 323.941 767.557 321.819C769.181 321.013 770.714 320.607 772.154 320.607ZM765.406 329.512H779.037C779.037 328.534 778.467 327.274 777.327 325.724C775.77 324.254 774.238 323.516 772.718 323.516H771.94C769.666 323.516 767.79 324.629 766.325 326.862C765.829 327.753 765.516 328.633 765.406 329.512Z" fill="white"/>
<path d="M811.835 312.766C814.189 312.766 816.144 313.829 817.713 315.963L817.793 316.265V316.701C817.793 317.322 817.333 317.71 816.408 317.864C816.028 317.864 815.378 317.353 814.453 316.326C813.619 315.791 812.822 315.527 812.062 315.527H811.627C810.033 315.527 808.826 316.375 808.004 318.073C807.814 318.479 807.723 318.891 807.723 319.309V319.899C807.723 321.738 808.826 323.072 811.038 323.896C812.632 323.896 814.348 324.647 816.193 326.141C817.971 327.955 818.866 329.948 818.866 332.112C818.866 334.775 817.732 336.958 815.452 338.655C814.06 339.621 812.522 340.1 810.824 340.1C808.084 340.1 805.81 338.914 804.02 336.546L803.867 335.956C804.033 335.045 804.492 334.584 805.252 334.584C805.761 334.584 806.411 335.095 807.208 336.109C808.397 336.933 809.482 337.345 810.468 337.345H811.112C813.037 337.345 814.581 336.257 815.758 334.074C815.948 333.367 816.046 332.832 816.046 332.475V331.755C816.046 329.843 814.955 328.287 812.785 327.094L809.089 326.067C806.331 324.481 804.958 322.402 804.958 319.825V319.315C804.958 316.781 806.307 314.795 809.016 313.362C810.021 312.962 810.965 312.766 811.835 312.766Z" fill="white"/>
<path d="M831.155 320.588C833.656 320.588 835.93 321.535 837.977 323.423C838.118 323.675 838.185 323.915 838.185 324.148V324.222C838.02 325.12 837.572 325.575 836.837 325.575H836.763C836.42 325.575 835.666 325.126 834.489 324.222C833.441 323.687 832.399 323.423 831.363 323.423H830.946C828.188 323.423 826.104 324.874 824.688 327.777C824.364 328.755 824.198 329.634 824.198 330.421C824.198 333.238 825.645 335.371 828.544 336.829C829.414 337.161 830.34 337.321 831.308 337.321C832.939 337.321 834.544 336.657 836.126 335.322L836.696 335.187H836.923C837.615 335.187 838.044 335.636 838.191 336.54V336.595C838.191 337.573 836.671 338.643 833.643 339.811C832.62 340.002 831.86 340.094 831.369 340.094H830.799C828.182 340.094 825.749 338.858 823.499 336.386C822.12 334.431 821.434 332.42 821.434 330.335C821.434 327.168 822.831 324.499 825.62 322.347C827.404 321.178 829.249 320.588 831.155 320.588Z" fill="white"/>
<path d="M843.027 312.902H843.315C844.174 313.081 844.603 313.462 844.603 314.046V322.815C846.435 321.229 848.391 320.436 850.481 320.436C853.668 320.436 856.212 321.948 858.124 324.962C858.847 326.302 859.203 327.575 859.203 328.768V338.81C859.203 339.518 858.749 339.954 857.836 340.102H857.781C857.1 340.102 856.647 339.671 856.414 338.81V329.186C856.414 326.597 855.078 324.734 852.411 323.596C851.768 323.406 851.124 323.314 850.474 323.314C847.82 323.314 845.957 324.728 844.878 327.557C844.688 328.166 844.596 329.168 844.596 330.564V338.817C844.596 339.524 844.143 339.96 843.23 340.108H843.174C842.494 340.108 842.034 339.678 841.808 338.817V314.261C841.998 313.351 842.402 312.902 843.027 312.902Z" fill="white"/>
<path d="M872.129 320.736C874.618 320.736 876.873 321.683 878.896 323.571C880.821 325.601 881.777 327.882 881.777 330.422C881.777 334.05 880.067 336.904 876.64 338.982C875.163 339.732 873.729 340.107 872.338 340.107H871.768C869.175 340.107 866.76 338.884 864.523 336.436C863.156 334.493 862.476 332.494 862.476 330.428C862.476 327.286 863.861 324.647 866.625 322.514C868.397 321.327 870.229 320.736 872.129 320.736ZM865.301 330.213V330.557C865.301 333.146 866.545 335.151 869.034 336.565C869.929 337.033 870.891 337.266 871.915 337.266H872.332C874.998 337.266 877.039 335.877 878.455 333.103C878.78 332.23 878.945 331.381 878.945 330.557V330.213C878.945 328.054 877.958 326.24 875.985 324.77C874.832 323.971 873.521 323.571 872.043 323.571C869.126 323.571 866.987 325.103 865.638 328.153C865.418 328.909 865.301 329.592 865.301 330.213Z" fill="white"/>
<path d="M894.311 320.736C896.8 320.736 899.055 321.683 901.078 323.571C902.997 325.601 903.959 327.882 903.959 330.422C903.959 334.05 902.243 336.904 898.816 338.982C897.339 339.732 895.905 340.107 894.514 340.107H893.944C891.351 340.107 888.936 338.884 886.699 336.436C885.332 334.493 884.652 332.494 884.652 330.428C884.652 327.286 886.037 324.647 888.801 322.514C890.579 321.327 892.417 320.736 894.311 320.736ZM887.483 330.213V330.557C887.483 333.146 888.728 335.151 891.216 336.565C892.111 337.033 893.073 337.266 894.097 337.266H894.514C897.18 337.266 899.221 335.877 900.637 333.103C900.968 332.23 901.127 331.381 901.127 330.557V330.213C901.127 328.054 900.14 326.24 898.173 324.77C897.021 323.971 895.709 323.571 894.232 323.571C891.314 323.571 889.175 325.103 887.82 328.153C887.6 328.909 887.483 329.592 887.483 330.213Z" fill="white"/>
<path d="M908.568 312.957H908.85C909.708 313.135 910.137 313.517 910.137 314.101V337.309H911.633C912.252 337.309 912.656 337.764 912.846 338.681V338.736C912.693 339.646 912.24 340.107 911.48 340.107H908.709C907.98 340.107 907.52 339.634 907.342 338.681V314.525C907.465 313.48 907.869 312.957 908.568 312.957Z" fill="white"/>
<path d="M648.918 171.628C648.918 172.267 648.593 175.201 647.956 180.422C647.306 185.637 645.485 191.473 642.488 197.93C637.977 206.865 631.621 213.691 623.42 218.426C615.213 223.161 605.7 225.529 594.869 225.529H476.42V265.876C476.42 269.535 475.109 272.69 472.485 275.322C469.85 277.954 466.662 279.27 462.917 279.27C459.27 279.27 456.126 277.954 453.503 275.322C450.867 272.69 449.555 269.535 449.555 265.876V131.281C449.555 127.622 450.867 124.467 453.503 121.835C456.126 119.203 459.27 117.875 462.917 117.875H476.42V198.569H594.876C606.344 198.569 614.06 194.486 618.032 186.313C619.319 183.945 620.233 181.689 620.766 179.524C621.305 177.372 621.655 175.551 621.814 174.039C621.979 172.532 622.053 171.732 622.053 171.622C622.053 160.104 617.769 152.361 609.188 148.376C606.828 147.196 604.578 146.359 602.433 145.873C600.288 145.388 597.762 145.037 594.876 144.822H525.369C521.348 150.197 514.943 153.671 507.735 153.671C500.527 153.671 494.122 150.19 490.101 144.822C487.33 141.126 485.694 136.526 485.694 131.563C485.694 126.392 487.465 121.626 490.45 117.868C494.483 112.746 500.729 109.462 507.735 109.462C514.741 109.462 520.987 112.746 525.02 117.868H594.869C595.617 117.868 598.541 118.194 603.634 118.846C608.728 119.486 614.551 121.324 621.085 124.332C639.638 134.134 648.918 149.889 648.918 171.628Z" fill="white"/>
<path d="M912.883 226.009V228.266C912.883 241.611 908.059 253.399 898.406 263.614C887.465 274.05 874.44 279.264 859.313 279.264H857.388C838.718 278.01 824.768 269.929 815.537 255.041C810.407 254.137 805.957 251.272 802.948 247.262C800.422 243.892 798.927 239.692 798.927 235.16C798.927 230.449 800.539 226.101 803.26 222.67C806.944 217.996 812.638 215.002 819.031 215.002C825.424 215.002 831.13 217.996 834.802 222.67C837.535 226.101 839.147 230.449 839.147 235.16C839.147 237.066 838.884 238.917 838.375 240.676C842.537 247.932 849.193 251.813 858.357 252.317H859.491C867.532 252.317 874.066 249.839 879.111 244.888C883.83 240.049 886.19 234.502 886.19 228.26V227.294C885.228 221.92 881.342 217.16 874.526 213.021C867.71 208.877 861.789 206.103 856.757 204.701L855.782 204.215C832.08 195.495 820.238 180.712 820.238 159.834V158.057C820.778 145.893 825.982 135.943 835.838 128.207C844.854 121.325 855.359 117.869 867.373 117.869H869.457C879.435 118.41 888.605 121.805 896.971 128.041C900.508 131.171 902.279 134.719 902.279 138.692C902.279 141.496 901.366 144.189 899.533 146.772C896.426 150.32 892.84 152.098 888.758 152.098C885.963 152.098 883.291 151.231 880.717 149.515C876.959 146.711 872.883 145.155 868.488 144.829H867.201C861.519 144.829 856.775 146.12 852.975 148.703C849.157 151.286 847.152 154.73 846.932 159.028V159.84C846.932 163.61 847.796 166.678 849.506 169.04C851.228 171.407 853.392 173.375 856.015 174.931C858.651 176.487 861.513 177.852 864.621 179.039C867.306 179.691 872.375 181.683 879.822 185.016C887.275 188.349 894.434 193.349 901.305 200.027C908.164 206.7 912.013 215.358 912.883 226.009Z" fill="white"/>
</g>
<defs>
<clipPath id="clip0_287_1088">
<rect width="926" height="411" fill="white"/>
</clipPath>
</defs>
</svg>
