<svg width="30" height="30" viewBox="0 0 30 30" fill="none" xmlns="http://www.w3.org/2000/svg">
<rect width="30" height="30" rx="15" fill="black"/>
<path d="M15.3537 7.0135C16.2325 7 17.1062 7.008 17.9789 7C18.0318 8.02055 18.4014 9.06011 19.1538 9.78165C19.9046 10.5212 20.9666 10.8597 22 10.9742V13.6589C21.0316 13.6274 20.0587 13.4273 19.1799 13.0133C18.7972 12.8413 18.4407 12.6198 18.0917 12.3933C18.0872 14.3414 18.0998 16.287 18.0791 18.2271C18.0267 19.1591 17.717 20.0867 17.1711 20.8547C16.2929 22.1333 14.7686 22.9669 13.2029 22.9929C12.2426 23.0474 11.2833 22.7873 10.4649 22.3083C9.10879 21.5143 8.1545 20.0607 8.01551 18.5006C7.998 18.1702 7.99532 17.8392 8.00745 17.5086C8.12831 16.24 8.76031 15.0264 9.74129 14.2009C10.8532 13.2393 12.4108 12.7813 13.8692 13.0523C13.8828 14.0399 13.843 15.0264 13.843 16.014C13.1767 15.8 12.3982 15.86 11.816 16.2615C11.3901 16.5401 11.0683 16.95 10.9 17.4281C10.761 17.7661 10.8008 18.1416 10.8089 18.5006C10.9685 19.5947 12.0281 20.5142 13.1591 20.4147C13.9089 20.4067 14.6276 19.9747 15.0183 19.3422C15.1447 19.1206 15.2862 18.8941 15.2938 18.6336C15.3598 17.4411 15.3336 16.2535 15.3416 15.0609C15.3472 12.3733 15.3336 9.69314 15.3542 7.014L15.3537 7.0135Z" fill="white"/>
</svg>
