<svg width="388" height="388" viewBox="0 0 388 388" fill="none" xmlns="http://www.w3.org/2000/svg">
<path d="M198.385 0.642929C193.749 1.36866 187.788 2.82011 185.139 3.9087C182.489 4.99729 175.866 6.44874 170.899 6.81161C165.931 7.53733 158.977 10.0774 155.996 13.3431C153.016 16.2461 148.38 17.6975 146.393 16.9718C144.074 15.8832 142.088 16.6089 142.088 18.4232C142.088 20.2375 136.458 23.8662 129.835 26.4062C114.601 32.5749 87.7769 54.7096 83.803 64.8697C82.1472 68.8612 77.5109 73.5785 73.537 75.7556C69.2318 77.5699 65.9202 80.11 65.9202 81.5614C65.9202 82.65 62.9398 87.3673 59.297 92.0845C55.323 97.1646 52.6737 98.616 52.6737 95.3503C52.6737 92.4473 51.0179 93.1731 48.0375 97.5274C39.7584 110.953 19.5575 153.771 19.5575 158.488C19.5575 160.666 17.2394 167.56 14.2589 173.729C3.66176 195.863 -0.312186 223.441 0.0189756 271.702C0.350138 326.494 4.65524 350.806 14.5901 352.62C18.8952 353.346 19.8887 352.62 17.2394 350.806C14.9213 348.992 12.6031 336.654 11.6096 322.503C10.9473 308.351 8.62919 290.571 6.64222 282.588C4.65524 273.153 4.32408 266.985 6.64222 264.082C8.62919 261.542 9.29151 252.833 8.29803 244.85C7.30454 236.504 7.6357 229.973 8.96035 229.973C10.285 229.973 12.9343 225.981 15.2524 220.901C17.2394 215.821 17.5706 212.555 15.9148 214.007C14.2589 215.095 12.9343 213.644 12.9343 211.104C12.9343 208.564 15.9148 204.209 19.5575 201.669C23.2003 199.129 26.1808 194.412 25.8496 190.783C25.8496 185.703 25.1873 185.703 22.8692 191.872C20.2199 198.766 19.8887 198.766 19.8887 190.783C19.5575 184.615 22.2068 181.349 29.4924 178.446C37.1091 175.543 38.7649 173.729 36.1156 170.1C32.4729 165.02 35.7845 150.868 41.0831 150.143C43.07 150.143 44.3947 147.603 44.3947 144.337C44.3947 141.434 46.7128 137.442 49.3621 135.628C52.0114 133.814 53.0049 131.274 52.0114 129.822C50.6868 128.371 53.3361 124.379 57.6412 120.388C61.9463 116.759 66.5825 110.591 67.576 106.962C68.5695 102.97 73.8681 98.2532 79.1667 96.076C84.7965 94.2617 89.1016 90.633 89.1016 88.4558C89.1016 86.2787 91.0885 84.8272 93.4067 85.5529C95.3937 85.9158 102.679 81.1986 108.971 74.667C115.263 68.1355 121.555 63.0554 123.211 63.0554C127.185 63.0554 135.464 53.2581 135.464 48.9037C135.464 46.3637 138.776 45.638 143.743 47.0894C149.042 48.5409 153.678 47.0894 156.99 43.4608C159.97 40.195 165.269 37.655 168.58 37.655C172.223 37.655 176.528 34.3892 178.515 30.3977C180.502 26.4062 183.483 23.1405 185.47 23.1405C187.457 23.1405 188.119 26.4062 186.794 30.3977C185.47 34.3892 186.132 37.655 188.119 37.655C190.106 37.655 191.762 34.0264 191.762 29.672C191.762 23.5033 192.755 22.7776 195.736 26.0434C201.366 32.212 211.963 31.4863 209.645 25.3176C208.651 22.7776 210.307 19.5118 213.619 18.0604C217.261 16.6089 218.586 17.3346 217.261 20.9633C214.281 29.3091 218.255 30.3977 225.54 22.4147C231.501 15.8832 232.495 15.8832 240.443 21.3261C246.404 25.6805 249.715 26.4062 252.364 23.5033C257.332 18.0604 261.306 18.4232 261.306 24.9548C261.306 28.5834 264.286 29.672 273.228 28.2205C282.831 27.132 285.481 27.8577 286.805 34.0264C288.13 39.8322 289.786 40.5579 295.084 37.2921C300.383 34.3892 302.701 35.1149 308 42.7351C311.642 48.178 316.279 51.0809 318.266 49.9923C320.253 48.5409 324.558 51.4438 327.869 56.161C331.181 60.8782 334.162 62.6926 334.162 60.1525C334.162 57.6125 329.525 51.0809 323.895 45.638C318.266 40.195 310.98 33.3006 308 30.3977C299.721 22.0519 278.526 12.2546 269.585 12.2546C265.28 12.2546 260.975 10.8031 259.981 8.98879C257.001 3.54584 215.937 -1.89711 198.385 0.642929ZM112.283 46.7266C109.965 49.9923 107.315 51.4438 106.653 50.7181C104.335 48.178 108.971 41.2836 112.945 41.2836C114.932 41.2836 114.932 43.4608 112.283 46.7266ZM94.4002 61.2411C93.4067 64.144 94.069 66.6841 95.7248 66.6841C97.7118 66.6841 99.0364 68.1355 99.0364 70.3127C99.0364 72.127 97.7118 73.9413 96.056 73.9413C92.082 73.9413 88.4393 63.4183 91.0885 59.0639C94.069 53.621 96.7183 55.4353 94.4002 61.2411Z" fill="#93C5FD"/>
<path d="M206.664 52.1709C205.671 53.9852 206.333 55.7996 207.989 55.7996C209.976 55.7996 211.632 53.9852 211.632 52.1709C211.632 49.9937 210.97 48.5423 210.307 48.5423C209.314 48.5423 207.658 49.9937 206.664 52.1709Z" fill="#93C5FD"/>
<path d="M178.516 57.9748C178.516 64.1435 169.574 64.8692 167.587 58.3377C166.263 54.709 165.269 54.709 161.626 58.3377C158.315 61.9663 158.315 63.0549 161.626 63.0549C163.944 63.0549 164.607 64.8692 163.613 67.0464C161.957 69.5864 158.977 68.4979 155.003 64.5064C151.36 61.2406 148.38 59.0634 147.717 59.7891C147.386 60.5149 145.399 64.5064 143.412 68.4979C141.425 72.4894 135.796 76.118 131.159 76.8437C126.192 77.5694 119.238 82.2867 115.595 87.3668C105.991 100.793 110.296 102.607 122.218 90.2697C136.458 75.3923 137.451 80.8352 123.874 97.8898C117.582 105.51 112.283 113.13 112.283 114.582C112.283 116.396 110.296 117.484 108.309 117.847C102.679 117.847 87.446 153.771 82.1474 178.445C78.5046 195.137 78.5046 198.04 83.1409 203.12C87.7771 208.563 89.1018 206.749 95.3938 185.703C103.342 159.939 107.316 153.408 118.244 146.876C122.218 144.336 124.867 141.071 123.874 139.619C123.211 137.805 124.205 134.539 126.523 132.725C128.841 130.547 132.815 122.927 135.464 115.67C138.114 108.05 142.419 102.97 146.062 102.607C149.373 102.244 154.01 101.881 156.328 101.518C158.315 101.518 160.633 97.5269 161.295 92.8097C161.957 88.4553 164.276 84.8267 166.263 84.4638C168.581 84.4638 173.548 83.7381 177.853 82.6495C182.489 81.9238 184.808 82.6495 183.483 84.8267C182.489 86.641 182.821 88.4553 184.808 88.4553C186.463 88.4553 188.45 86.641 189.113 84.8267C189.775 82.6495 196.729 80.4723 204.677 79.7466C212.625 79.0209 220.242 76.118 221.898 73.5779C223.885 69.9493 224.878 70.675 224.878 77.2066C224.878 84.101 226.203 85.1896 231.833 83.7381C239.781 81.1981 248.06 88.4553 248.06 97.5269C248.06 101.518 249.715 102.97 253.027 101.518C256.339 100.067 259.319 102.244 261.306 108.05C262.962 113.493 267.929 117.122 274.221 118.573C282.169 120.387 284.487 122.927 284.487 129.096C284.819 141.071 292.104 151.231 297.072 145.788C303.032 139.256 302.37 154.134 296.078 163.205C292.104 169.737 292.104 171.914 295.747 177.72C298.396 181.348 299.721 186.428 298.727 188.968C297.734 191.509 298.727 193.686 300.714 193.686C305.351 193.686 305.682 210.74 301.045 213.643C299.059 215.095 298.727 217.635 299.721 219.812C301.045 221.989 298.727 226.706 294.422 229.972C289.124 234.326 286.806 240.132 286.474 248.478C286.143 260.09 285.481 260.815 275.546 259.727C267.598 259.001 264.618 260.09 264.618 264.081C264.618 271.701 251.702 284.402 246.073 281.862C243.423 280.773 240.443 282.587 239.449 285.853C237.131 292.747 211.632 292.385 211.632 285.127C211.632 282.587 209.314 279.684 206.333 278.233C203.353 277.144 197.392 272.427 192.755 267.71C188.45 263.355 182.489 260.453 179.84 261.541C175.866 262.993 175.204 261.541 177.191 253.921C178.516 247.389 177.522 241.947 174.21 237.955C168.25 230.335 167.587 209.289 172.886 205.66C177.191 202.394 179.178 194.049 179.509 178.083C179.509 172.64 180.503 168.285 182.158 168.285C183.483 168.285 185.47 165.02 186.795 161.391C188.782 154.496 197.392 149.779 210.307 148.328C214.281 147.965 220.242 146.513 223.554 145.062C228.852 142.885 228.852 142.522 222.891 137.805C208.32 126.919 201.697 128.007 184.808 145.425C171.892 159.214 168.25 165.745 165.269 180.623C159.308 212.555 159.308 231.061 164.276 253.195C172.555 290.57 191.762 308.713 226.203 312.342C238.125 313.431 248.06 315.971 248.06 317.422C248.06 319.236 246.073 319.599 243.423 318.511C240.774 317.422 237.794 318.148 236.8 320.325C235.475 322.502 232.164 322.865 229.183 321.776C225.541 320.325 224.547 320.688 226.203 323.591C227.528 326.131 231.833 327.219 236.8 325.768C241.105 324.679 246.735 325.405 249.053 327.219C251.371 329.397 256.339 330.848 260.313 330.485C266.936 330.122 268.592 326.131 271.572 306.899C272.566 300.73 278.195 291.659 281.507 291.659C293.429 291.659 314.954 239.406 319.259 200.217C320.915 186.066 319.922 178.083 316.279 170.1C313.298 163.931 310.98 156.674 310.98 153.408C310.98 150.142 308.662 145.425 306.013 142.885C303.364 140.345 301.045 135.628 301.045 132.362C301.045 122.927 254.683 73.9408 245.741 73.9408C242.761 73.9408 237.794 71.4008 235.144 68.8607C232.164 65.9578 223.554 63.0549 215.606 62.692C207.989 61.9663 201.697 60.152 201.697 58.7005C201.697 57.2491 200.372 55.7976 198.385 55.7976C196.729 55.7976 195.074 58.3377 195.074 61.6035C195.074 64.5064 193.749 66.3207 191.762 64.8692C190.106 63.7806 189.444 60.8777 190.437 58.3377C191.1 55.7976 189.113 53.6205 185.139 53.2576C181.496 52.8947 178.516 54.709 178.516 57.9748ZM149.704 75.7551C146.393 78.2952 143.081 80.1095 142.75 79.3838C140.432 76.8437 150.367 67.4093 153.016 69.2236C154.672 70.3122 153.016 73.2151 149.704 75.7551ZM257.994 311.253C257.994 312.342 256.67 314.156 254.683 315.245C253.027 316.334 251.371 315.608 251.371 313.793C251.371 311.616 253.027 309.802 254.683 309.802C256.67 309.802 257.994 310.528 257.994 311.253Z" fill="#93C5FD"/>
<path d="M350.058 80.4735C352.707 82.2878 353.369 86.2793 352.045 90.2708C350.058 95.3509 350.72 96.4395 354.694 94.9881C357.674 93.5366 361.648 94.6252 363.967 96.8024C366.285 99.3424 364.629 95.7138 360.655 89.1822C356.35 83.0136 351.051 77.5706 349.395 77.5706C347.408 77.5706 347.74 79.0221 350.058 80.4735Z" fill="#93C5FD"/>
<path d="M362.31 113.494C360.986 116.035 361.648 120.026 363.635 122.566C365.953 125.832 365.953 128.372 363.635 130.912C360.986 133.815 361.979 135.992 366.947 139.258C372.577 142.524 374.232 142.161 375.888 137.806C378.537 130.549 365.622 107.689 362.31 113.494Z" fill="#93C5FD"/>
<path d="M373.901 151.232C373.901 154.497 372.577 157.4 370.59 157.4C368.934 157.4 367.278 160.303 367.278 163.569C367.278 169.375 367.941 169.375 370.921 164.658C373.57 160.666 373.901 162.118 371.914 170.101C370.59 175.906 369.928 188.607 370.259 198.041C370.59 208.927 368.934 218.361 365.291 224.53C361.317 231.424 360.655 234.69 363.635 238.682C366.616 242.31 366.285 244.488 362.311 248.116C359.661 250.656 357.343 256.462 357.343 261.542C357.343 266.259 355.025 270.977 352.045 272.428C349.064 273.517 345.753 277.871 344.428 282.225C342.772 286.217 338.798 289.845 335.487 289.845C330.85 289.845 328.863 292.748 328.201 302.183C327.208 312.706 326.214 314.157 318.929 312.343C313.299 311.254 309.656 312.706 307.338 317.423C305.682 321.415 301.046 324.317 297.734 324.317C294.091 324.317 291.111 326.495 291.111 328.672C291.111 331.212 288.793 336.655 285.812 340.646C281.838 346.452 279.851 346.815 274.553 343.549C269.254 339.558 266.936 340.646 257.995 349.718C245.411 362.418 244.748 362.781 244.748 353.347C244.748 345.001 242.099 344.275 233.158 350.807C223.223 358.427 196.399 358.427 193.749 351.169C192.093 346.452 190.769 346.089 187.126 349.718C183.483 352.984 180.503 352.984 174.873 349.718C169.574 346.452 167.256 346.452 165.269 349.718C163.614 352.621 161.627 352.258 157.653 348.266C155.003 345.001 150.698 342.461 148.711 342.461C146.724 342.461 140.101 338.469 134.14 333.389C128.179 328.309 122.218 325.406 121.225 326.858C119.9 327.946 118.907 327.22 118.907 325.043C118.907 322.866 120.562 319.963 122.218 318.875C126.523 315.972 126.523 309.803 121.887 309.803C116.589 309.803 108.309 299.28 110.628 295.288C111.621 293.111 110.296 292.748 107.647 293.837C104.336 295.288 102.349 294.2 102.349 290.571C102.349 287.668 100.03 283.314 97.05 280.411C94.4007 277.871 92.7449 272.791 93.4072 269.162C94.4007 265.534 93.7383 262.631 91.7514 262.631C89.7644 262.631 89.1021 260.091 90.0956 257.188C91.4202 254.285 90.7579 251.019 89.1021 249.931C87.1151 248.479 85.7905 241.585 85.7905 233.965C85.7905 226.707 83.8035 217.273 81.1542 213.281C76.8491 207.113 76.1868 209.29 76.1868 233.602C75.8556 248.479 75.8556 263.356 75.5244 266.259C74.8621 284.403 81.1542 300.006 98.3746 324.317C122.218 357.338 138.114 370.401 168.581 380.924C195.736 390.359 242.099 390.359 262.3 380.924C269.254 378.021 275.877 375.481 277.202 375.844C283.494 377.296 293.76 370.401 315.286 349.355C323.896 341.009 330.85 335.566 331.182 337.381C331.182 339.195 332.506 337.018 334.162 332.3C335.818 327.946 339.461 324.317 342.441 324.317C345.09 324.317 347.408 321.777 347.408 318.875C347.408 315.972 348.733 313.432 350.72 313.432C352.376 313.432 359.661 300.006 366.947 283.314C382.512 248.116 390.791 207.838 387.148 185.704C385.492 177.358 385.161 168.649 386.154 166.109C387.148 163.569 384.499 157.763 380.856 153.409C374.895 146.514 373.901 146.152 373.901 151.232Z" fill="#93C5FD"/>
<path d="M231.501 158.489C231.501 163.207 233.157 168.65 235.475 171.19C238.456 174.455 237.462 177.721 230.177 186.067C220.904 196.953 220.242 205.662 227.527 218.362C232.164 225.982 247.066 216.548 251.702 203.122C257.994 184.616 257.332 179.173 248.391 173.73C241.105 169.375 240.774 168.65 246.072 168.287C252.033 168.287 252.033 167.561 244.748 159.215C235.144 147.966 231.501 147.603 231.501 158.489Z" fill="#93C5FD"/>
<path d="M186.794 171.916C185.801 173.73 186.132 175.544 188.119 175.544C189.775 175.544 192.424 173.73 193.418 171.916C194.411 169.738 194.08 168.287 192.093 168.287C190.437 168.287 187.788 169.738 186.794 171.916Z" fill="#93C5FD"/>
<path d="M286.143 300.005C282.501 302.908 281.507 305.811 283.494 307.263C285.481 308.714 289.455 306.537 292.767 302.545C299.721 294.2 295.416 292.748 286.143 300.005Z" fill="#93C5FD"/>
<path d="M198.385 324.317C198.385 326.494 196.067 327.945 193.087 327.945C190.437 327.945 189.113 329.76 190.106 331.574C191.431 333.751 197.061 335.202 203.022 334.477C208.651 334.114 215.275 334.84 217.262 336.291C222.229 339.557 225.209 334.477 221.898 328.308C218.917 322.865 198.385 319.599 198.385 324.317Z" fill="#93C5FD"/>
</svg>
