<svg width="538" height="199" viewBox="0 0 538 199" fill="none" xmlns="http://www.w3.org/2000/svg">
<path opacity="0.7" d="M4.16138 105.393C13.134 78.5177 34.8419 53.5216 68.4167 31.1567C87.5197 18.3767 123.989 -1.92093 123.989 0.146421C123.989 0.522302 113.569 6.53641 100.834 13.4902C68.1273 31.3446 42.0778 51.8302 26.7376 71.9398C6.7663 98.4395 -2.49573 128.134 5.02966 141.102C8.50293 147.116 21.2382 154.822 34.5524 159.332L45.2616 162.903L45.5511 147.304C46.1299 120.992 58.8652 102.198 97.9395 70.0604C124.857 48.2593 152.643 32.8481 187.665 20.632C229.923 5.97259 264.077 4.657 280.286 17.437C284.917 21.1958 286.653 33.9758 283.18 43.7487C281.733 47.8834 281.154 51.4543 281.733 51.8302C282.022 52.206 289.548 50.1387 297.941 47.3196C324.859 38.6743 351.488 41.3055 358.724 53.7096C363.065 60.8513 364.223 75.1348 360.75 79.0816C356.987 83.7801 360.171 89.0424 365.091 86.4113C366.828 85.4716 373.485 84.156 379.563 83.7801C389.115 83.0283 391.72 83.7801 397.798 88.4786C418.637 104.454 388.825 142.418 335.858 166.85C323.412 172.676 328.043 173.804 351.488 170.609C365.091 168.729 390.562 158.768 407.349 148.808C408.218 148.244 407.06 146.928 405.323 145.801C400.113 142.418 400.982 137.155 408.218 127.57C414.585 118.549 429.057 108.588 435.425 108.588C438.898 108.588 448.16 113.475 448.16 115.354C448.16 120.053 428.478 141.102 420.663 144.673C415.743 146.928 427.32 148.62 438.898 147.116C444.687 146.364 453.37 144.485 458.29 142.794C469.289 138.659 503.732 123.06 521.677 113.851C529.492 109.904 536.439 107.085 537.307 107.649C538.175 108.212 538.175 108.776 537.597 109.152C469 144.861 453.081 150.875 427.899 150.875C414.006 150.875 410.822 151.627 401.85 157.077C396.351 160.46 383.326 165.91 373.195 169.105C358.145 173.992 350.909 175.307 334.99 175.495C322.254 175.495 312.992 176.811 308.361 178.69C267.84 195.981 230.792 200.867 204.453 192.41C196.349 189.591 194.322 189.779 174.351 194.101C150.617 199.552 119.937 200.491 96.7817 196.733C80.8626 194.101 53.3659 178.314 49.8926 169.857C49.0243 167.226 46.7088 164.971 44.6827 164.971C37.7362 164.971 7.92407 151.251 3.87195 146.176C-1.33795 139.411 -1.33795 121.368 4.16138 105.393ZM54.5237 163.091C64.9435 167.414 103.149 162.715 129.199 154.07C159.011 143.921 174.93 134.9 183.324 123.248C193.454 109.152 221.24 86.5992 248.158 71.0001C272.471 56.9046 276.523 52.5819 279.128 38.2984C282.312 20.8199 274.497 14.054 248.447 11.7988C217.767 9.35552 154.669 33.0361 115.016 61.979C82.0203 86.2233 61.7596 107.649 52.787 127.382C47.8666 138.471 49.0243 160.836 54.5237 163.091ZM67.259 180.382C85.4936 192.41 96.7817 195.417 123.989 195.793C141.066 195.981 153.801 194.853 165.957 192.41C188.244 187.711 189.981 186.584 182.745 181.509C179.561 179.066 175.509 174.556 173.483 171.361C169.72 165.158 168.562 145.801 171.746 142.418C174.93 139.223 171.167 140.35 150.907 148.62C122.542 160.46 102.86 165.158 77.3893 166.286C51.9187 167.414 50.761 169.293 67.259 180.382ZM179.561 169.669C183.034 175.871 192.875 183.765 196.927 183.765C202.427 183.765 242.08 167.602 261.472 157.265C291.863 141.29 300.836 134.9 313.571 120.804C319.939 113.851 330.937 103.89 337.884 98.6274C361.907 81.3369 363.355 55.2131 340.489 47.8834C331.516 45.0643 328.043 44.8763 317.334 46.5678C297.363 49.9507 276.523 59.1598 268.998 67.8051C252.21 87.163 239.185 97.6877 209.952 116.858C181.587 135.276 178.114 138.283 176.088 145.989C173.772 155.198 174.641 160.648 179.561 169.669ZM189.402 125.503C190.27 125.503 202.137 118.173 215.451 109.152C238.028 93.9289 262.63 71.9398 259.157 69.8725C256.841 68.181 204.742 105.581 196.059 115.166C187.087 125.503 186.797 125.503 189.402 125.503ZM226.161 192.034C244.106 193.538 265.235 189.967 288.969 181.509C312.992 172.864 313.282 172.676 306.046 167.602C301.994 164.783 299.099 159.896 298.231 153.694C297.073 145.237 293.889 141.666 291.284 145.801C288.101 150.875 212.557 185.644 204.453 185.644C194.901 185.832 212.557 190.906 226.161 192.034ZM307.782 161.024C313.571 168.541 318.781 169.293 331.516 163.655C345.988 157.265 375.8 138.283 375.8 135.464C375.8 134.148 376.958 133.021 378.116 133.021C382.168 133.021 395.482 113.851 397.508 105.205C400.403 93.9289 394.035 87.9148 379.274 87.9148C365.67 87.9148 356.987 91.6736 349.462 101.447C342.515 110.092 343.383 109.34 323.412 124.563C315.308 130.765 307.493 137.531 306.335 139.599C302.283 145.613 303.151 155.386 307.782 161.024ZM410.533 143.357C414.006 144.673 438.609 124.563 440.345 118.737C441.214 115.166 440.345 114.227 435.135 114.227C427.32 114.227 421.242 118.361 413.717 129.262C407.06 138.659 406.481 141.666 410.533 143.357Z" fill="#F97316"/>
</svg>
